<svg width="190" height="186" viewBox="0 0 190 186" fill="none" xmlns="http://www.w3.org/2000/svg">
<path d="M94.9893 185.5C95.2654 185.5 95.4893 185.276 95.4893 185C95.4893 184.724 95.2654 184.5 94.9893 184.5V185.5ZM187.489 93.0005C187.489 93.2766 187.712 93.5005 187.989 93.5005C188.265 93.5005 188.489 93.2766 188.489 93.0005H187.489ZM158.279 24.2006L158.621 23.8356L158.62 23.8356L158.279 24.2006ZM143.279 31.7006L143.168 31.213L143.077 31.2338L142.999 31.2862L143.279 31.7006ZM140.279 15.7007L139.796 15.8307L139.797 15.8322L140.279 15.7007ZM89.2894 13.7007L89.7593 13.5298L89.7589 13.5289L89.2894 13.7007ZM73.7895 13.7007L73.5071 14.1133L73.7289 14.2651L73.9778 14.1638L73.7895 13.7007ZM64.2896 7.2007L64.0123 6.78464L63.3962 7.19526L64.0072 7.61335L64.2896 7.2007ZM146.179 158.629C146.029 158.86 146.095 159.17 146.327 159.32C146.559 159.47 146.869 159.404 147.019 159.172L146.179 158.629ZM153.279 152.2L153.028 151.768L153.028 151.768L153.279 152.2ZM143.279 115.7L143.471 115.239L143.471 115.239L143.279 115.7ZM116.779 108.2L116.929 107.723L116.575 107.612L116.366 107.919L116.779 108.2ZM113.279 122.16L112.798 122.296L112.798 122.298L113.279 122.16ZM118.779 135.66L118.405 135.328L118.405 135.328L118.779 135.66ZM114.391 141.23C114.258 141.472 114.346 141.776 114.589 141.909C114.831 142.041 115.135 141.953 115.267 141.711L114.391 141.23ZM185.779 115.7H186.279V115.475L186.11 115.326L185.779 115.7ZM178.279 115.7L177.879 115.4L178.279 115.7ZM169.5 148.5L169.175 148.12L169.074 148.206L169.03 148.33L169.5 148.5ZM23.7899 83.7005L24.035 84.1363L24.035 84.1363L23.7899 83.7005ZM50.2897 19.7007L50.4548 19.2288L50.2897 19.7007ZM33.7898 25.2007L33.5163 24.7821L33.5162 24.7821L33.7898 25.2007ZM0.795054 92.2711C0.834106 92.5445 1.08737 92.7344 1.36074 92.6954C1.63411 92.6563 1.82406 92.4031 1.785 92.1297L0.795054 92.2711ZM188.776 87.1472C188.746 86.8726 188.5 86.6739 188.225 86.7033C187.951 86.7327 187.752 86.9791 187.781 87.2537L188.776 87.1472ZM178.779 133.7L178.35 133.443L178.35 133.444L178.779 133.7ZM167.5 152L167.102 151.697L167.081 151.725L167.064 151.754L167.5 152ZM117 183.5L116.895 183.011L116.887 183.013L116.879 183.015L117 183.5ZM104 185.011L104.06 185.508L104.06 185.508L104 185.011ZM16.2301 140.463C16.0992 140.22 15.7959 140.129 15.5528 140.26C15.3097 140.391 15.2188 140.694 15.3498 140.937L16.2301 140.463ZM69.4795 174.35L69.7337 173.92L69.733 173.919L69.4795 174.35ZM50.5297 173.04L50.424 172.551L49.3103 172.792L50.2415 173.449L50.5297 173.04ZM111.899 184.3L111.983 184.793L112.27 184.744L112.369 184.471L111.899 184.3ZM94.7093 179.1L94.8998 178.638L94.8994 178.638L94.7093 179.1ZM79.7494 178.07L79.7604 177.57L79.7599 177.57L79.7494 178.07ZM115.146 140.646C113.563 142.229 110.5 146.953 110.5 153.5H111.5C111.5 147.247 114.437 142.771 115.854 141.354L115.146 140.646ZM110.5 153.5C110.5 157.555 111.261 161.23 111.821 164.278C112.102 165.811 112.331 167.173 112.399 168.365C112.468 169.558 112.371 170.531 112.04 171.303L112.96 171.697C113.379 170.719 113.47 169.567 113.398 168.307C113.325 167.046 113.085 165.627 112.804 164.097C112.239 161.02 111.5 157.445 111.5 153.5H110.5ZM112.04 171.303C111.65 172.214 111.353 173.23 111.245 174.194C111.139 175.147 111.209 176.111 111.624 176.866C112.062 177.661 112.841 178.151 113.96 178.187C115.043 178.222 116.443 177.837 118.224 176.947L117.776 176.053C116.057 176.913 114.832 177.215 113.993 177.188C113.19 177.162 112.751 176.839 112.501 176.384C112.228 175.889 112.143 175.165 112.239 174.306C112.334 173.457 112.6 172.536 112.96 171.697L112.04 171.303ZM118.224 176.947C121.616 175.251 125.253 175.126 128.724 174.874C132.14 174.625 135.455 174.252 137.854 171.854L137.146 171.146C135.045 173.248 132.11 173.625 128.651 173.876C125.247 174.124 121.384 174.249 117.776 176.053L118.224 176.947ZM137.854 171.854C141.494 168.213 146.085 161.608 147.92 158.772L147.08 158.228C145.249 161.059 140.706 167.587 137.146 171.146L137.854 171.854ZM94.9893 184.5C43.8909 184.5 2.50003 143.519 2.50003 93.0005H1.50003C1.50003 144.081 43.3485 185.5 94.9893 185.5V184.5ZM2.50003 93.0005C2.50003 42.4817 43.8909 1.50072 94.9893 1.50072V0.500724C43.3485 0.500724 1.50003 41.9195 1.50003 93.0005H2.50003ZM94.9893 1.50072C146.098 1.50072 187.489 42.4817 187.489 93.0005H188.489C188.489 41.9195 146.64 0.500724 94.9893 0.500724V1.50072ZM157.983 23.7972C156.129 25.1553 151.847 29.2406 143.168 31.213L143.39 32.1882C152.311 30.1606 156.769 25.926 158.574 24.604L157.983 23.7972ZM142.999 31.2862C138.036 34.6361 134.253 36.1652 131.381 36.7578C128.519 37.3483 126.542 37.0134 125.175 36.5972C124.469 36.3825 123.955 36.1578 123.478 35.986C123.253 35.905 123.024 35.8321 122.81 35.8008C122.592 35.7691 122.338 35.7721 122.096 35.8971C121.849 36.025 121.692 36.2397 121.59 36.4756C121.491 36.7052 121.429 36.9868 121.387 37.3091C121.302 37.954 121.279 38.8924 121.279 40.2006H122.279C122.279 38.8838 122.303 38.0097 122.378 37.4398C122.416 37.1546 122.463 36.9782 122.508 36.8724C122.551 36.7728 122.576 36.7747 122.556 36.7853C122.541 36.7932 122.558 36.7747 122.665 36.7903C122.775 36.8064 122.925 36.8497 123.139 36.9269C123.541 37.0715 124.152 37.3312 124.883 37.5539C126.391 38.0128 128.539 38.3654 131.583 37.7371C134.618 37.111 138.522 35.5151 143.559 32.115L142.999 31.2862ZM121.279 40.2006C121.279 42.7888 120.939 44.229 120.436 45.2062C119.929 46.1911 119.246 46.7468 118.37 47.5904C117.498 48.4295 116.533 49.4773 115.632 51.3769C114.737 53.2639 113.914 55.9717 113.285 60.1256L114.274 60.2754C114.894 56.1793 115.696 53.5747 116.536 51.8055C117.369 50.0488 118.247 49.0966 119.063 48.3107C119.875 47.5293 120.723 46.835 121.325 45.6637C121.932 44.4846 122.279 42.8623 122.279 40.2006H121.279ZM113.285 60.1256C112.04 68.3432 110.802 71.1546 109.841 72.8964C109.366 73.7583 108.891 74.4637 108.53 75.4229C108.162 76.4004 107.907 77.6419 107.78 79.6693L108.778 79.7316C108.902 77.7591 109.146 76.6255 109.466 75.7749C109.793 74.906 110.192 74.3302 110.717 73.3795C111.756 71.4963 113.019 68.5578 114.274 60.2754L113.285 60.1256ZM107.78 79.6693C107.259 88.0157 115.079 94.7612 123.894 92.6871L123.665 91.7137C115.479 93.6396 108.3 87.3851 108.778 79.7316L107.78 79.6693ZM123.894 92.6871C128.049 91.7094 130.335 92.0763 132.826 92.8053C135.357 93.546 138.17 94.692 143.229 95.1979L143.329 94.2029C138.388 93.7089 135.701 92.6049 133.107 91.8456C130.473 91.0745 128.009 90.6914 123.665 91.7137L123.894 92.6871ZM143.229 95.1979C145.756 95.4506 147.47 95.3336 148.771 94.8575C150.093 94.3736 150.929 93.5404 151.735 92.5082C153.322 90.4771 154.89 87.5605 160.056 84.1165L159.501 83.2844C154.168 86.8404 152.485 89.9238 150.947 91.8926C150.191 92.8605 149.496 93.5272 148.427 93.9184C147.338 94.3172 145.802 94.4502 143.329 94.2029L143.229 95.1979ZM160.056 84.1165C161.332 83.2662 162.359 82.8636 163.19 82.7622C164.005 82.6627 164.654 82.8495 165.206 83.2294C165.771 83.6187 166.259 84.2285 166.7 85.0096C167.139 85.7888 167.515 86.7074 167.872 87.6844C168.049 88.1717 168.221 88.6685 168.393 89.1667C168.564 89.6634 168.737 90.1618 168.914 90.645C169.267 91.6078 169.649 92.5357 170.107 93.3072C170.563 94.0755 171.121 94.7357 171.851 95.1046C172.602 95.4842 173.466 95.5218 174.447 95.1713L174.111 94.2295C173.342 94.5041 172.768 94.4479 172.302 94.2122C171.815 93.9659 171.378 93.4894 170.966 92.7968C170.557 92.1073 170.201 91.2501 169.853 90.3007C169.679 89.8279 169.51 89.3385 169.338 88.8403C169.167 88.3437 168.992 87.8385 168.811 87.3415C168.449 86.3497 168.051 85.3699 167.571 84.5183C167.091 83.6685 166.513 82.915 165.773 82.4058C165.02 81.8873 164.126 81.6405 163.069 81.7696C162.027 81.8966 160.851 82.3847 159.501 83.2844L160.056 84.1165ZM174.447 95.1713C177.758 93.9886 180.721 95.0412 183.172 95.921C183.777 96.1383 184.361 96.3478 184.9 96.4999C185.436 96.6515 185.962 96.7564 186.452 96.7472C186.952 96.7379 187.432 96.6091 187.844 96.2815C188.251 95.9585 188.546 95.48 188.753 94.8585L187.804 94.5423C187.636 95.0459 187.431 95.333 187.223 95.4982C187.02 95.6589 186.769 95.7411 186.433 95.7474C186.088 95.7538 185.672 95.679 185.171 95.5376C184.673 95.3968 184.124 95.2001 183.51 94.9798C181.086 94.1096 177.799 92.9122 174.111 94.2295L174.447 95.1713ZM188.753 94.8585C188.87 94.5061 188.928 94.0111 188.947 93.4245C188.966 92.8269 188.944 92.0945 188.883 91.2455C188.76 89.5466 188.476 87.3549 188.021 84.7927C187.11 79.667 185.511 73.0343 183.128 65.8555C178.368 51.5111 170.459 34.9189 158.621 23.8356L157.937 24.5656C169.598 35.4822 177.44 51.89 182.179 66.1705C184.547 73.3042 186.134 79.8901 187.036 84.9676C187.487 87.5069 187.766 89.6628 187.885 91.3175C187.945 92.1452 187.965 92.841 187.947 93.3931C187.93 93.9562 187.874 94.3322 187.804 94.5423L188.753 94.8585ZM158.62 23.8356C153.567 19.1053 142.514 12.3981 135.484 9.24448L135.074 10.1569C142.044 13.2833 152.991 19.936 157.937 24.5657L158.62 23.8356ZM134.993 10.1111C136.032 10.8341 137.145 11.9101 138.05 13.0012C138.969 14.1078 139.616 15.1607 139.796 15.8307L140.762 15.5707C140.522 14.6807 139.754 13.4886 138.82 12.3626C137.873 11.2212 136.696 10.0773 135.565 9.29027L134.993 10.1111ZM139.797 15.8322C140.169 17.1971 140.354 18.1598 140.4 18.8197C140.423 19.1493 140.41 19.3827 140.378 19.543C140.347 19.7034 140.303 19.7588 140.289 19.7723C140.284 19.7776 140.273 19.7912 140.216 19.7958C140.148 19.8013 140.037 19.7898 139.869 19.7395C139.531 19.6375 139.102 19.4208 138.581 19.1367C137.592 18.5971 136.298 17.8212 135.096 17.5996C134.477 17.4853 133.83 17.506 133.234 17.8129C132.636 18.1214 132.162 18.6822 131.817 19.5084L132.741 19.893C133.021 19.2192 133.359 18.8737 133.693 18.7017C134.029 18.5282 134.433 18.4941 134.915 18.583C135.916 18.7677 137.029 19.4292 138.102 20.0146C138.612 20.293 139.129 20.5607 139.581 20.697C140.01 20.8261 140.586 20.8975 141.003 20.4728C141.197 20.2754 141.304 20.0163 141.359 19.7377C141.415 19.459 141.424 19.129 141.398 18.7496C141.345 17.9915 141.139 16.9543 140.761 15.5691L139.797 15.8322ZM131.817 19.5084C131.547 20.1564 131.17 20.5217 130.726 20.721C130.265 20.9274 129.678 20.9797 128.957 20.8918C127.496 20.7139 125.707 19.9957 123.775 19.2354C121.883 18.4913 119.865 17.7122 118.06 17.5161C116.224 17.3167 114.503 17.7133 113.363 19.4233L114.195 19.978C115.055 18.688 116.334 18.3346 117.952 18.5102C119.599 18.6891 121.487 19.4101 123.409 20.1659C125.289 20.9056 127.218 21.6874 128.836 21.8845C129.654 21.9841 130.445 21.9427 131.135 21.6335C131.841 21.3171 132.386 20.7449 132.741 19.893L131.817 19.5084ZM113.363 19.4233C111.494 22.2267 107.949 23.3315 104.296 23.7032C100.639 24.0754 97.1183 23.7007 95.2893 23.7007V24.7007C96.9603 24.7007 100.684 25.0759 104.397 24.6981C108.115 24.3198 112.064 23.1746 114.195 19.978L113.363 19.4233ZM95.2893 23.7007C94.5519 23.7007 93.9875 23.4442 93.5051 22.975C93.0062 22.4897 92.5845 21.7655 92.1879 20.8198C91.7927 19.8774 91.4401 18.7601 91.0562 17.5144C90.6747 16.2762 90.2644 14.9191 89.7592 13.5298L88.8195 13.8716C89.3143 15.2323 89.7165 16.5627 90.1006 17.8089C90.4823 19.0475 90.8485 20.2115 91.2657 21.2065C91.6816 22.1983 92.1662 23.0678 92.8079 23.6919C93.4661 24.3321 94.2767 24.7007 95.2893 24.7007V23.7007ZM89.7589 13.5289C89.287 12.2391 88.2441 11.4878 86.9633 11.1077C85.6964 10.7318 84.1566 10.7034 82.5718 10.8671C79.3968 11.1949 75.8759 12.3124 73.6011 13.2375L73.9778 14.1638C76.203 13.259 79.6271 12.1765 82.6745 11.8618C84.201 11.7042 85.5918 11.7439 86.6789 12.0664C87.7521 12.3849 88.4868 12.9623 88.8198 13.8725L89.7589 13.5289ZM74.0718 13.288L64.5719 6.78805L64.0072 7.61335L73.5071 14.1133L74.0718 13.288ZM64.5668 7.61676C68.9842 4.67263 74.7774 2.93742 81.2196 2.10645C87.6572 1.27608 94.7101 1.35278 101.62 2.00724C115.451 3.31738 128.628 6.93437 135.055 10.1479L135.503 9.25347C128.93 5.96702 115.622 2.32904 101.714 1.01169C94.7535 0.352407 87.6228 0.272227 81.0917 1.11467C74.5652 1.95651 68.6048 3.72378 64.0123 6.78464L64.5668 7.61676ZM147.019 159.172C148.644 156.659 150.672 154.289 153.53 152.633L153.028 151.768C149.985 153.531 147.853 156.041 146.179 158.629L147.019 159.172ZM153.529 152.633C155.959 151.226 157.473 149.73 158.365 148.122C159.257 146.513 159.498 144.839 159.466 143.128C159.434 141.437 159.13 139.653 158.908 137.865C158.683 136.057 158.533 134.2 158.775 132.262L157.783 132.138C157.525 134.201 157.687 136.156 157.915 137.989C158.146 139.841 158.436 141.526 158.466 143.147C158.497 144.749 158.269 146.232 157.49 147.638C156.709 149.045 155.349 150.424 153.028 151.768L153.529 152.633ZM158.775 132.262C159.289 128.151 158.518 125.114 156.016 122.481C153.561 119.896 149.468 117.737 143.471 115.239L143.087 116.162C149.09 118.663 152.997 120.755 155.291 123.17C157.54 125.536 158.269 128.249 157.783 132.138L158.775 132.262ZM143.471 115.239C138.635 113.224 132.647 111.551 127.551 110.28C125.001 109.644 122.668 109.107 120.809 108.677C118.937 108.244 117.573 107.926 116.929 107.723L116.629 108.677C117.32 108.895 118.736 109.224 120.583 109.651C122.444 110.081 124.768 110.617 127.309 111.251C132.396 112.519 138.323 114.177 143.087 116.162L143.471 115.239ZM116.366 107.919C115.069 109.822 113.979 112.675 113.31 115.387C112.974 116.748 112.741 118.088 112.643 119.273C112.545 120.446 112.576 121.51 112.798 122.296L113.76 122.025C113.587 121.411 113.545 120.488 113.639 119.355C113.733 118.234 113.955 116.947 114.281 115.626C114.935 112.975 115.989 110.249 117.192 108.482L116.366 107.919ZM112.798 122.298C113.081 123.285 113.867 124.36 114.735 125.429C115.631 126.534 116.634 127.655 117.502 128.832C118.366 130.005 119.031 131.152 119.258 132.246C119.478 133.305 119.294 134.329 118.405 135.328L119.153 135.992C120.264 134.742 120.517 133.391 120.237 132.043C119.965 130.731 119.193 129.441 118.307 128.239C117.424 127.041 116.364 125.85 115.511 124.798C114.628 123.711 113.978 122.785 113.76 122.023L112.798 122.298ZM118.405 135.328C116.307 137.691 115.686 138.87 114.391 141.23L115.267 141.711C116.552 139.37 117.131 138.27 119.153 135.992L118.405 135.328ZM186.11 115.326C185.315 114.621 183.957 113.763 182.449 113.509C180.902 113.248 179.205 113.632 177.879 115.4L178.679 116C179.752 114.569 181.055 114.288 182.283 114.495C183.551 114.708 184.743 115.45 185.447 116.074L186.11 115.326ZM177.879 115.4C177.094 116.447 176.482 117.676 175.938 118.913C175.379 120.186 174.923 121.387 174.387 122.554C173.322 124.871 172.174 126.487 170.223 126.703L170.334 127.697C172.883 127.414 174.235 125.28 175.296 122.972C175.822 121.826 176.335 120.496 176.854 119.316C177.388 118.099 177.964 116.954 178.679 116L177.879 115.4ZM170.223 126.703C168.981 126.841 168.177 127.347 167.768 128.174C167.385 128.95 167.406 129.908 167.533 130.831C167.661 131.755 167.921 132.79 168.101 133.696C168.288 134.641 168.394 135.467 168.286 136.118L169.272 136.282C169.413 135.434 169.269 134.447 169.082 133.501C168.886 132.517 168.647 131.583 168.524 130.694C168.401 129.805 168.423 129.107 168.665 128.617C168.881 128.179 169.326 127.809 170.334 127.697L170.223 126.703ZM168.286 136.118C168.025 137.682 168.075 141.187 168.25 144.068C168.338 145.517 168.459 146.838 168.595 147.71C168.66 148.127 168.736 148.5 168.836 148.727C168.862 148.786 168.904 148.869 168.97 148.945C169.032 149.015 169.19 149.159 169.434 149.141C169.669 149.123 169.802 148.969 169.853 148.9C169.91 148.821 169.947 148.736 169.97 148.67L169.03 148.33C169.02 148.358 169.022 148.342 169.045 148.31C169.061 148.288 169.16 148.158 169.36 148.143C169.57 148.128 169.693 148.252 169.72 148.283C169.752 148.32 169.76 148.344 169.751 148.324C169.712 148.235 169.65 147.987 169.583 147.556C169.454 146.731 169.335 145.446 169.248 144.007C169.073 141.113 169.033 137.718 169.272 136.282L168.286 136.118ZM169.825 148.88C170.309 148.466 170.919 147.742 171.606 146.814C172.3 145.877 173.093 144.702 173.943 143.361C175.641 140.679 177.573 137.317 179.395 133.832C181.216 130.347 182.931 126.73 184.192 123.54C185.444 120.374 186.279 117.556 186.279 115.7H185.279C185.279 117.345 184.516 120.002 183.262 123.173C182.018 126.32 180.32 129.903 178.509 133.369C176.698 136.833 174.779 140.171 173.098 142.826C172.257 144.154 171.477 145.308 170.803 146.219C170.121 147.139 169.566 147.784 169.175 148.12L169.825 148.88ZM1.63683 84.1764C4.00133 84.9376 7.94213 85.8465 12.1056 86.112C16.2547 86.3765 20.7079 86.0078 24.035 84.1363L23.5447 83.2647C20.4719 84.9932 16.2552 85.3745 12.1693 85.114C8.09785 84.8544 4.23871 83.9634 1.94324 83.2245L1.63683 84.1764ZM24.035 84.1363C28.0693 81.867 29.9984 80.076 31.5848 78.9167C32.3756 78.3388 33.078 77.9181 33.9311 77.6362C34.7867 77.3534 35.8237 77.2005 37.2898 77.2005V76.2005C35.7558 76.2005 34.6053 76.3601 33.6173 76.6867C32.6266 77.0141 31.8289 77.4997 30.9948 78.1093C29.3312 79.325 27.5104 81.034 23.5447 83.2647L24.035 84.1363ZM37.2898 77.2005C38.8035 77.2005 39.8224 77.0178 40.5236 76.5016C41.2382 75.9756 41.5222 75.1756 41.7717 74.271C42.2735 72.452 42.7551 69.6583 45.6982 65.4889L44.8812 64.9122C41.8244 69.2428 41.3059 72.1991 40.8077 74.0051C40.5573 74.913 40.3412 75.3942 39.9308 75.6963C39.507 76.0082 38.776 76.2005 37.2898 76.2005V77.2005ZM45.6982 65.4889C48.7735 61.1322 50.1608 54.5165 51.282 48.1625C51.8468 44.9623 52.3436 41.8249 52.9503 39.0091C53.5576 36.1903 54.265 33.7469 55.2308 31.9359L54.3484 31.4654C53.3143 33.4044 52.5841 35.961 51.9727 38.7984C51.3607 41.6388 50.8575 44.8139 50.2973 47.9887C49.1686 54.3847 47.8058 60.769 44.8812 64.9122L45.6982 65.4889ZM55.2308 31.9359C56.2187 30.0836 57.0798 28.5829 57.6354 27.3607C58.1877 26.1457 58.5043 25.0742 58.2768 24.0882C58.0432 23.0759 57.2739 22.295 56.0263 21.5659C54.7774 20.836 52.9551 20.1039 50.4548 19.2288L50.1245 20.1726C52.6242 21.0475 54.3644 21.7529 55.5217 22.4292C56.6803 23.1063 57.161 23.7004 57.3024 24.3131C57.4499 24.9521 57.2665 25.7557 56.725 26.9469C56.1869 28.1309 55.3605 29.5677 54.3484 31.4654L55.2308 31.9359ZM50.4548 19.2288C46.3081 17.7774 43.1636 18.4417 40.4932 19.8564C39.1724 20.556 37.9726 21.4361 36.8363 22.3111C35.6892 23.1942 34.62 24.061 33.5163 24.7821L34.0633 25.6193C35.2096 24.8703 36.3278 23.9646 37.4464 23.1034C38.5756 22.234 39.7196 21.3978 40.9613 20.74C43.4158 19.4397 46.2713 18.824 50.1245 20.1726L50.4548 19.2288ZM33.5162 24.7821C25.2432 30.1895 5.7151 48.6706 1.29399 83.6378L2.28609 83.7632C6.66491 49.1306 25.9965 30.8918 34.0633 25.6192L33.5162 24.7821ZM1.30009 83.6007C0.957252 85.2847 0.38254 89.3835 0.795054 92.2711L1.785 92.1297C1.39752 89.4173 1.94283 85.4563 2.27999 83.8002L1.30009 83.6007ZM187.781 87.2537C188.775 96.5339 187.773 117.741 178.35 133.443L179.207 133.958C188.784 118 189.782 96.5469 188.776 87.1472L187.781 87.2537ZM178.35 133.444C175.284 138.566 171.64 145.726 167.102 151.697L167.898 152.303C172.48 146.274 176.193 138.995 179.208 133.957L178.35 133.444ZM116.879 183.015C115.055 183.47 112.837 183.725 110.554 183.926C108.288 184.126 105.945 184.274 103.94 184.515L104.06 185.508C106.045 185.269 108.337 185.126 110.641 184.922C112.928 184.721 115.215 184.46 117.121 183.985L116.879 183.015ZM103.94 184.515C91.8856 185.962 74.4749 183.357 57.8017 176.167C41.133 168.978 25.2657 157.234 16.2301 140.463L15.3498 140.937C24.5241 157.966 40.6018 169.838 57.4057 177.085C74.2052 184.33 91.7946 186.98 104.06 185.508L103.94 184.515ZM69.733 173.919C66.9244 172.267 63.0982 171.718 59.5154 171.676C55.9188 171.635 52.4913 172.104 50.424 172.551L50.6353 173.529C52.638 173.096 55.9904 172.636 59.5038 172.676C63.0309 172.717 66.6446 173.263 69.226 174.781L69.733 173.919ZM50.2415 173.449C58.3244 179.148 70.5368 182.527 82.2951 184.213C94.0603 185.9 105.466 185.905 111.983 184.793L111.815 183.807C105.433 184.896 94.1393 184.901 82.4371 183.223C70.728 181.544 58.7053 178.193 50.8178 172.632L50.2415 173.449ZM112.369 184.471C112.579 183.892 112.499 183.349 112.156 182.893C111.84 182.473 111.33 182.165 110.752 181.923C109.591 181.436 107.893 181.112 106.039 180.827C104.15 180.537 102.106 180.289 100.12 179.955C98.1443 179.623 96.3076 179.218 94.8998 178.638L94.5189 179.562C96.036 180.188 97.9656 180.607 99.9547 180.942C101.935 181.274 104.055 181.534 105.887 181.816C107.754 182.102 109.334 182.412 110.366 182.845C110.885 183.062 111.2 183.285 111.357 183.494C111.487 183.667 111.529 183.853 111.429 184.13L112.369 184.471ZM94.8994 178.638C91.9445 177.423 90.7561 177.196 88.9596 177.272C87.222 177.345 84.996 177.685 79.7604 177.57L79.7385 178.57C85.0128 178.685 87.3468 178.341 89.0016 178.271C90.5976 178.204 91.6341 178.377 94.5193 179.563L94.8994 178.638ZM79.7599 177.57C77.1194 177.515 75.6033 177.504 74.6846 177.456C74.2238 177.433 73.9492 177.401 73.7734 177.359C73.6127 177.321 73.5718 177.284 73.5516 177.264C73.5038 177.217 73.4699 177.158 73.3453 176.956C73.2322 176.772 73.079 176.537 72.8244 176.249C72.3197 175.677 71.4443 174.93 69.7337 173.92L69.2253 174.781C70.8846 175.761 71.6643 176.446 72.0749 176.911C72.2779 177.14 72.3975 177.324 72.4941 177.481C72.5792 177.619 72.6921 177.821 72.8499 177.976C73.0353 178.159 73.2589 178.265 73.5436 178.333C73.8131 178.396 74.1646 178.431 74.6328 178.455C75.5719 178.504 77.1245 178.515 79.739 178.57L79.7599 177.57ZM167.064 151.754C162.72 159.461 146.558 176.641 116.895 183.011L117.105 183.989C147.043 177.559 163.447 160.206 167.936 152.246L167.064 151.754Z" fill="black"/>
</svg>
