<svg width="189" height="186" viewBox="0 0 189 186" fill="none" xmlns="http://www.w3.org/2000/svg">
<path d="M114.661 182.73C108.062 184.22 101.202 185 94.1416 185C42.7721 185 1.15237 143.8 1.15237 93.0005C1.15237 42.2006 42.7721 1.00073 94.1416 1.00073C145.521 1.00073 187.141 42.2006 187.141 93.0005C187.141 115.24 179.171 135.63 165.871 151.53M162.789 30.9308C152.023 34.7766 156.898 35.3586 156.64 40C156.14 49 155.043 42.1463 153.204 58.6354C151.365 75.1246 149.526 70.1279 149.158 78.1226C148.79 86.1174 154.307 92.6131 160.561 90.6144C166.814 88.6157 167.55 92.1134 174.906 93.1128C182.263 94.1121 179.916 94.9954 187.64 88M2.5 79C6 46 31.7598 20.7975 50 12.0057M187.431 87.2005C188.431 96.5404 187.431 117.87 177.931 133.7C174.891 138.78 170.471 145.54 165.911 151.54M98.3984 184.905C88.5 185.5 82 184.223 74 182.837C75.1969 181.211 82.6038 175.502 86.2133 177.41C90.7344 179.81 87.7528 180.735 92.0075 178.871C96.2669 177.017 94.9706 175.792 98.3984 176.89C101.835 177.995 106.64 174.5 110.64 178.871C125.07 181.148 113.129 184.264 98.3984 184.905ZM98.3984 184.905C107.184 184.688 125.422 181.708 143.5 170.824M143.5 170.824C150.184 166.8 156.846 161.762 163 155.5C167.439 150.46 170 148.059 176.31 137.399C182.619 126.739 180.189 121.857 181.189 113.857C182.189 105.857 170.06 106.498 158.06 101.498C148.46 97.4979 135.9 105.38 133.23 104.54C130.73 108.21 128.94 118.7 129.73 121.5C130.73 125 135.029 126.7 133.23 133.7C131.431 140.7 137.663 155.127 139.431 155.5C140.454 156.5 142.7 159.1 143.5 161.5C144.3 163.9 143.833 168.716 143.5 170.824ZM134 9.85299C136.17 11.363 139.011 14.1407 139.431 15.7007C142.431 26.7006 133.931 13.7007 131.431 19.7007C128.931 25.7006 116.932 13.7007 112.932 19.7007C108.932 25.7006 97.9417 24.2007 94.4417 24.2007C90.9417 24.2007 90.4417 19.2007 88.4417 13.7007C86.8318 9.3007 77.4418 11.8707 72.9419 13.7007L63.4419 7.2007C81.4618 -4.80926 121 3.35301 134 9.85299ZM26.6403 156.279C38.3106 168.743 32.0639 165 26.6403 151.54C17.7575 138.627 20.3374 138.72 19.2441 128C22.7514 121.026 17.6496 109.81 22.5 108C22.5 95.6411 19.2441 87.5 13 87.5C4.45253 87.5 4.04819 83.6217 1.69544 83C-1 108 5.5 133.7 26.6403 156.279ZM4.17506 71.7187C11.5668 75.3028 23.3086 86.0733 37.9356 78.9197C43.2612 74.0562 51.7103 71.9078 56.1531 70.9986C60.5959 70.0894 60.7666 71.1324 64.0796 63.3265C67.3927 55.5206 64.6966 41.3973 66.6616 34.7059C68.6266 28.0144 62.5038 25.6736 54.6339 24.3492C48.338 23.2897 47.3372 15.2209 41.9702 17.8051C27.9854 24.5388 7.83604 44.596 4.17506 71.7187Z" stroke="black" stroke-linecap="round"/>
</svg>
