<svg width="189" height="187" viewBox="0 0 189 187" fill="none" xmlns="http://www.w3.org/2000/svg">
<path d="M116.652 183.06C110.052 184.55 103.192 185.33 96.1317 185.33C40.6515 182 1 143.8 1 93.0005C1 42.2006 42.6197 1.00072 93.9893 1.00072C145.369 1.00072 186.989 42.2006 186.989 93.0005C186.989 115.24 179.019 135.63 165.719 151.53M116.652 183.06C112.652 178.689 111.088 182.105 107.652 181C104.224 179.902 93.7998 177.435 89.5404 179.289C85.2857 181.153 85.1726 180.4 80.6515 178C77.042 176.092 66.8484 178.228 65.6515 179.854M116.652 183.06C128.614 179.599 155.183 168.449 165.759 151.54C170.319 145.54 174.739 138.78 177.779 133.7C187.279 117.87 188.279 96.5404 187.279 87.2004M168.697 34.5C157.931 38.3459 163.97 43.4564 162.988 48C158.645 68.0911 158.111 69.0312 159.919 75C158.08 91.4892 186.362 71.5053 185.994 79.5M156.544 24.9199C151.544 20.2399 141.279 12.8407 134.279 9.70069M134.279 9.70069C136.449 11.2107 138.859 14.1407 139.279 15.7007C142.279 26.7006 133.779 13.7007 131.279 19.7007C128.779 25.7006 116.779 13.7007 112.779 19.7007C108.779 25.7006 97.7893 24.2007 94.2893 24.2007C90.7893 24.2007 90.2893 19.2007 88.2894 13.7007C86.6794 9.30069 77.2894 11.8707 72.7895 13.7007L63.2896 7.2007C81.3094 -4.80926 121.279 3.2007 134.279 9.70069ZM182.548 110.403C172.948 106.403 160.388 114.285 157.718 113.445C155.218 117.115 153.428 127.605 154.218 130.405C155.218 133.905 164.647 149 162.848 156M103.779 185.2C79.4594 188.12 34.6515 174.5 14.7899 140.7M76.0482 170.304C88.7035 173.771 84.3262 169.864 82.7365 164.537C75.173 139.193 79.0782 139.149 74.1509 130.793C73.9601 123.925 77.9341 124.007 73.0442 113.714C75.6671 104.486 61.9885 105.696 57.0101 106.087C50.1678 106.626 49.5177 101.067 42.0532 103.95C38.5103 110.162 37.5505 116.708 52.9226 135.889C60.4516 145.284 69.8102 168.595 76.0482 170.304ZM25.1448 63.0688C35.5905 33.5113 24.1188 45.6524 38.8551 33.3942C42.767 30.1401 79.8025 43.6501 88.1362 42.8581C98.5534 41.8682 106.978 42.3852 106.088 49.5303C105.199 56.6753 112.1 69.7638 109.754 78.396C107.407 87.0282 106.934 86.0533 101.457 88.2397C95.9801 90.4261 93.7816 94.996 88.1362 101.324C80.7468 106.224 82.0282 82.8447 52.0913 84.4737C39.7038 85.1477 31.0033 63.8433 25.1448 63.0688Z" stroke="black" stroke-linecap="round"/>
</svg>
