<svg width="198" height="186" viewBox="0 0 198 186" fill="none" xmlns="http://www.w3.org/2000/svg">
<path d="M29.9025 41L30.2366 40.628L30.0941 40.5H29.9025V41ZM35.5393 45.3396L35.2599 45.7543L35.2599 45.7543L35.5393 45.3396ZM12.5 86L12.9642 86.1857L12.5 86ZM18.1082 131.5L18.4987 131.188L18.4987 131.188L18.1082 131.5ZM31.6082 153.5L31.3654 153.937L31.3654 153.937L31.6082 153.5ZM120.406 183.627C120.676 183.569 120.848 183.303 120.79 183.033C120.732 182.763 120.466 182.592 120.196 182.65L120.406 183.627ZM173.748 151.539C173.566 151.746 173.586 152.062 173.794 152.244C174.002 152.426 174.317 152.406 174.5 152.198L173.748 151.539ZM175.658 36.4279C175.894 36.2851 175.97 35.9777 175.827 35.7414C175.685 35.505 175.377 35.4292 175.141 35.5721L175.658 36.4279ZM174.124 45.3396L173.629 45.4155L174.124 45.3396ZM192.548 65.7358L193.045 65.7939L193.058 65.687L193.025 65.5844L192.548 65.7358ZM194.934 79.652C194.921 79.9278 195.134 80.1622 195.41 80.1755C195.686 80.1888 195.92 79.976 195.933 79.7002L194.934 79.652ZM147.893 13.0904C147.817 12.8249 147.541 12.6713 147.275 12.7472C147.01 12.8231 146.856 13.0999 146.932 13.3654L147.893 13.0904ZM92.7434 7.21443L93.2106 7.03628L93.2102 7.03531L92.7434 7.21443ZM76.4526 7.21443L76.193 7.64171L76.4036 7.76973L76.6334 7.68061L76.4526 7.21443ZM72.3367 4.12796C72.1008 3.98454 71.7932 4.05958 71.6498 4.29556C71.5064 4.53154 71.5814 4.8391 71.8174 4.98252L72.3367 4.12796ZM191.627 111.113C191.884 111.215 192.174 111.089 192.276 110.833C192.378 110.576 192.253 110.285 191.996 110.184L191.627 111.113ZM185 114L185.144 113.521L184.801 113.418L184.593 113.709L185 114ZM182.419 141.014L182.765 141.375L182.419 141.014ZM171.799 153.87C171.727 154.137 171.885 154.411 172.151 154.483C172.418 154.555 172.692 154.397 172.764 154.13L171.799 153.87ZM187.055 134.259C187.179 134.012 187.079 133.711 186.833 133.587C186.586 133.463 186.285 133.563 186.161 133.81L187.055 134.259ZM174.166 151.878L174.549 152.2L174.557 152.19L174.166 151.878ZM120.993 183.565C121.262 183.501 121.428 183.231 121.364 182.963C121.3 182.694 121.031 182.528 120.762 182.592L120.993 183.565ZM105.108 185.22L105.138 185.719L105.152 185.718L105.165 185.717L105.108 185.22ZM15.9289 140.768C15.7931 140.528 15.488 140.443 15.2476 140.579C15.0072 140.715 14.9224 141.02 15.0582 141.26L15.9289 140.768ZM75.1057 182.284C74.8506 182.39 74.7297 182.683 74.8356 182.938C74.9415 183.193 75.2341 183.314 75.4891 183.208L75.1057 182.284ZM118.702 183.469L118.341 183.816L118.523 184.006L118.783 183.963L118.702 183.469ZM102.108 182L101.962 182.478L101.986 182.485L102.01 182.49L102.108 182ZM83.7718 66.6822L83.2753 66.6233L83.2026 67.2357L83.8168 67.1801L83.7718 66.6822ZM153.631 90.157L153.992 90.5027L154.037 90.4561L154.068 90.3997L153.631 90.157ZM140.781 33.121L140.937 33.5962L140.781 33.121ZM90.6248 34.7198L90.2284 34.4151L90.2284 34.4151L90.6248 34.7198ZM114.764 81.6411L114.9 82.1222L114.764 81.6411ZM148.771 157.507L148.913 157.028L148.913 157.028L148.771 157.507ZM155.574 151.875L155.092 152.008L155.092 152.008L155.574 151.875ZM147.664 117.967L147.164 117.971L147.165 118.1L147.229 118.212L147.664 117.967ZM146.899 100.869L146.421 100.723L146.366 100.903L146.443 101.074L146.899 100.869ZM131.021 92.9229L131.05 93.4221L131.05 93.4221L131.021 92.9229ZM116.109 90.4875L115.939 90.0176L115.771 90.0784L115.68 90.2312L116.109 90.4875ZM126.338 122.637L125.942 122.942L125.942 122.942L126.338 122.637ZM18.1631 41.5H29.9025V40.5H18.1631V41.5ZM29.5684 41.372C30.3882 42.1083 32.6611 44.0036 35.2599 45.7543L35.8186 44.9249C33.2638 43.2039 31.0273 41.3382 30.2366 40.628L29.5684 41.372ZM35.2599 45.7543C36.7514 46.759 37.5614 48.2447 37.6062 49.6947C37.6506 51.13 36.9482 52.5924 35.2824 53.5899L35.7961 54.4478C37.754 53.2755 38.662 51.4832 38.6058 49.6638C38.55 47.8591 37.5482 46.09 35.8186 44.9249L35.2599 45.7543ZM35.2824 53.5899C34.7023 53.9372 34.2252 54.6167 33.8129 55.429C33.3917 56.259 32.9996 57.3077 32.6264 58.4873C31.8802 60.8462 31.1873 63.8033 30.4884 66.7314C29.7865 69.6722 29.0783 72.5849 28.2971 74.8968C27.9066 76.0528 27.5038 77.04 27.0836 77.797C26.6558 78.5679 26.2454 79.0342 25.871 79.2359L26.3454 80.1162C26.9776 79.7755 27.5036 79.101 27.958 78.2823C28.4201 77.4497 28.8453 76.3985 29.2445 75.2169C30.043 72.8537 30.7615 69.8946 31.4611 66.9635C32.1637 64.0198 32.8472 61.105 33.5799 58.7889C33.9462 57.6309 34.3192 56.6412 34.7047 55.8816C35.0991 55.1043 35.4703 54.643 35.7961 54.4478L35.2824 53.5899ZM25.871 79.2359C24.9304 79.7428 23.7692 80.063 22.4806 80.3372C21.225 80.6045 19.7967 80.8366 18.4796 81.1571C15.815 81.8055 13.2024 82.8977 12.0358 85.8143L12.9642 86.1857C13.9403 83.7456 16.1187 82.7607 18.716 82.1288C20.0298 81.8091 21.3501 81.6003 22.6888 81.3153C23.9944 81.0374 25.2729 80.6942 26.3454 80.1162L25.871 79.2359ZM12.0358 85.8143C10.0713 90.7254 7.78396 92.7578 5.80112 93.7614C4.79678 94.2698 3.84843 94.5261 2.99415 94.7498C2.17514 94.9642 1.34843 95.1655 0.752221 95.594L1.33575 96.406C1.74611 96.1112 2.35468 95.9509 3.2474 95.7172C4.10486 95.4927 5.14469 95.2145 6.25272 94.6537C8.4946 93.5189 10.9287 91.2746 12.9642 86.1857L12.0358 85.8143ZM5.36016 123.434C7.10385 124.431 9.82004 126.05 12.2973 127.669C13.5362 128.478 14.7102 129.284 15.6712 130.009C16.6437 130.742 17.3607 131.366 17.7178 131.812L18.4987 131.188C18.0558 130.634 17.2478 129.945 16.2734 129.21C15.2875 128.466 14.0928 127.647 12.8442 126.831C10.3464 125.2 7.6126 123.569 5.85629 122.566L5.36016 123.434ZM17.7178 131.812C18.6893 133.027 20.5472 135.995 22.2328 139.054C23.0728 140.578 23.8634 142.113 24.4737 143.45C25.091 144.802 25.502 145.904 25.615 146.582L26.6014 146.418C26.4644 145.596 26.0005 144.386 25.3834 143.034C24.7593 141.668 23.9562 140.109 23.1086 138.571C21.4192 135.505 19.5271 132.473 18.4987 131.188L17.7178 131.812ZM25.615 146.582C25.8657 148.086 26.1284 149.312 26.9497 150.476C27.7655 151.632 29.0953 152.676 31.3654 153.937L31.851 153.063C29.6211 151.824 28.4509 150.868 27.7667 149.899C27.088 148.938 26.8508 147.914 26.6014 146.418L25.615 146.582ZM31.3654 153.937C33.054 154.875 34.6241 156.747 35.9115 158.769C37.1908 160.778 38.1508 162.871 38.6401 164.176L39.5764 163.824C39.0656 162.462 38.0757 160.306 36.755 158.231C35.4424 156.17 33.7624 154.125 31.851 153.063L31.3654 153.937ZM120.196 182.65C113.294 184.136 106.119 184.914 98.7342 184.914V185.914C106.19 185.914 113.435 185.128 120.406 183.627L120.196 182.65ZM98.7342 184.914C44.9918 184.914 1.5 143.818 1.5 93.2069H0.5C0.5 144.424 44.495 185.914 98.7342 185.914V184.914ZM1.5 93.2069C1.5 42.5958 44.9918 1.5 98.7342 1.5V0.5C44.495 0.5 0.5 41.9896 0.5 93.2069H1.5ZM98.7342 1.5C152.489 1.5 196.607 42.8909 196.607 93.5H197.607C197.607 42.2806 152.982 0.5 98.7342 0.5V1.5ZM196.607 93.5C196.607 115.65 187.659 135.679 173.748 151.539L174.5 152.198C188.545 136.186 197.607 115.93 197.607 93.5H196.607ZM175.141 35.5721C173.674 36.4584 172.748 37.2381 172.24 38.0122C171.706 38.8232 171.653 39.5942 171.838 40.3681C172.011 41.0882 172.407 41.8551 172.753 42.6295C173.112 43.4315 173.462 44.3262 173.629 45.4155L174.618 45.2638C174.431 44.0453 174.04 43.0562 173.666 42.2213C173.28 41.3587 172.954 40.7354 172.81 40.135C172.679 39.5884 172.715 39.1086 173.075 38.5615C173.459 37.9774 174.229 37.2916 175.658 36.4279L175.141 35.5721ZM173.629 45.4155C174.42 50.5696 175.866 54.1004 177.65 56.5817C179.437 59.0688 181.541 60.47 183.591 61.3984C184.611 61.8608 185.618 62.2055 186.556 62.5073C187.503 62.8123 188.36 63.0673 189.13 63.3606C190.664 63.9452 191.668 64.6176 192.072 65.8873L193.025 65.5844C192.478 63.863 191.096 63.0398 189.486 62.4262C188.683 62.1204 187.779 61.8506 186.862 61.5554C185.935 61.257 184.971 60.926 184.003 60.4875C182.076 59.6142 180.125 58.3128 178.462 55.9981C176.794 53.6777 175.392 50.3077 174.618 45.2638L173.629 45.4155ZM192.052 65.6778C191.568 69.8157 191.523 72.3067 191.743 73.8307C191.854 74.5955 192.035 75.1534 192.29 75.561C192.553 75.9841 192.88 76.22 193.22 76.3607C193.521 76.4848 193.872 76.5415 194.064 76.5877C194.288 76.6417 194.421 76.6989 194.526 76.8004C194.631 76.902 194.762 77.1031 194.851 77.5522C194.941 78.0042 194.982 78.669 194.934 79.652L195.933 79.7002C195.983 78.6799 195.945 77.9231 195.832 77.3566C195.718 76.787 195.521 76.3724 195.222 76.0827C194.924 75.7928 194.578 75.683 194.298 75.6155C193.986 75.5402 193.807 75.5211 193.602 75.4364C193.437 75.3682 193.282 75.2623 193.138 75.0318C192.985 74.7859 192.833 74.3785 192.733 73.6878C192.533 72.3006 192.562 69.9191 193.045 65.7939L192.052 65.6778ZM146.932 13.3654C147.325 14.739 147.498 15.6292 147.518 16.1656C147.529 16.4395 147.496 16.5606 147.479 16.5969C147.474 16.6077 147.481 16.5886 147.511 16.5665C147.543 16.5431 147.574 16.5364 147.587 16.5352C147.591 16.5348 147.527 16.5365 147.361 16.4541C147.207 16.3777 147.016 16.2548 146.787 16.0853C146.328 15.7457 145.781 15.2679 145.166 14.7306C143.967 13.6825 142.509 12.4034 141.17 11.7871C140.497 11.4776 139.776 11.2968 139.095 11.4688C138.385 11.6484 137.839 12.1791 137.468 13.0277L138.385 13.4281C138.671 12.7734 139.013 12.5211 139.34 12.4383C139.698 12.3481 140.165 12.4256 140.752 12.6955C141.93 13.2381 143.271 14.402 144.508 15.4836C145.112 16.0113 145.693 16.52 146.192 16.8891C146.442 17.0739 146.687 17.2358 146.917 17.3498C147.134 17.4578 147.401 17.5553 147.674 17.5314C147.821 17.5186 147.97 17.4702 148.103 17.3723C148.235 17.2756 148.326 17.149 148.387 17.0161C148.503 16.7651 148.53 16.4546 148.518 16.1276C148.492 15.4621 148.289 14.473 147.893 13.0904L146.932 13.3654ZM137.468 13.0277C137.186 13.6737 136.79 14.0442 136.313 14.248C135.819 14.459 135.192 14.5112 134.429 14.4226C132.887 14.2434 131 13.5209 128.972 12.7598C126.982 12.0134 124.867 11.2351 122.977 11.0393C121.063 10.8411 119.268 11.2324 118.073 12.9414L118.893 13.5144C119.8 12.2167 121.158 11.8563 122.873 12.034C124.612 12.214 126.603 12.9391 128.62 13.6961C130.599 14.4384 132.621 15.2192 134.314 15.4159C135.168 15.5151 135.99 15.4734 136.706 15.1676C137.438 14.8546 138.01 14.2855 138.385 13.4281L137.468 13.0277ZM118.073 12.9414C116.105 15.7562 112.368 16.8671 108.521 17.2404C104.674 17.6136 100.964 17.238 99.0495 17.238V18.238C100.813 18.238 104.718 18.6141 108.617 18.2357C112.516 17.8573 116.656 16.7131 118.893 13.5144L118.073 12.9414ZM99.0495 17.238C98.26 17.238 97.6578 16.9753 97.1479 16.5023C96.6221 16.0146 96.1792 15.2885 95.763 14.3421C95.3479 13.3982 94.9775 12.2791 94.574 11.0305C94.173 9.78968 93.7417 8.42908 93.2106 7.03628L92.2762 7.39258C92.7961 8.75596 93.2188 10.0889 93.6225 11.338C94.0236 12.5794 94.4087 13.7467 94.8476 14.7447C95.2853 15.7401 95.7949 16.6113 96.4679 17.2355C97.1568 17.8744 97.9998 18.238 99.0495 18.238V17.238ZM93.2102 7.03531C92.7129 5.7392 91.6187 4.99223 90.2853 4.61497C88.9619 4.24055 87.3508 4.21162 85.6881 4.37533C82.3571 4.70331 78.6609 5.82178 76.2718 6.74826L76.6334 7.68061C78.9739 6.77297 82.5771 5.68649 85.7861 5.37052C87.3933 5.21226 88.8623 5.25161 90.0131 5.5772C91.1538 5.89994 91.9279 6.48472 92.2766 7.39355L93.2102 7.03531ZM76.7123 6.78715L72.3367 4.12796L71.8174 4.98252L76.193 7.64171L76.7123 6.78715ZM191.996 110.184C189.47 109.18 187.832 108.884 186.78 109.11C186.226 109.23 185.817 109.497 185.55 109.886C185.293 110.26 185.201 110.698 185.175 111.105C185.15 111.513 185.189 111.937 185.231 112.309C185.276 112.701 185.321 113.017 185.33 113.283C185.334 113.412 185.327 113.503 185.315 113.564C185.303 113.625 185.292 113.622 185.312 113.599C185.393 113.509 185.445 113.611 185.144 113.521L184.856 114.479C185.257 114.599 185.732 114.629 186.057 114.267C186.199 114.108 186.265 113.919 186.297 113.756C186.329 113.591 186.334 113.417 186.329 113.252C186.319 112.931 186.264 112.542 186.225 112.196C186.183 111.83 186.154 111.482 186.173 111.168C186.193 110.853 186.26 110.618 186.374 110.452C186.479 110.301 186.652 110.161 186.991 110.088C187.723 109.93 189.109 110.112 191.627 111.113L191.996 110.184ZM184.593 113.709C184.185 114.28 184.009 115.04 183.954 115.878C183.897 116.724 183.959 117.71 184.081 118.781C184.202 119.855 184.385 121.038 184.577 122.276C184.769 123.519 184.971 124.822 185.132 126.154C185.785 131.526 185.75 137.117 182.072 140.654L182.765 141.375C186.833 137.463 186.775 131.386 186.125 126.033C185.961 124.683 185.757 123.364 185.565 122.123C185.373 120.879 185.193 119.719 185.074 118.669C184.955 117.618 184.901 116.701 184.951 115.945C185.002 115.18 185.158 114.639 185.407 114.291L184.593 113.709ZM182.072 140.654C179.522 143.106 173.737 146.677 171.799 153.87L172.764 154.13C174.608 147.291 180.024 144.011 182.765 141.375L182.072 140.654ZM186.161 133.81C182.191 141.717 178.584 145.532 173.775 151.567L174.557 152.19C179.333 146.197 183.026 142.283 187.055 134.259L186.161 133.81ZM120.762 182.592C116.88 183.515 109.274 184.239 105.051 184.723L105.165 185.717C109.329 185.239 117.035 184.506 120.993 183.565L120.762 182.592ZM105.078 184.721C75.3823 186.494 34.9416 174.421 15.9289 140.768L15.0582 141.26C34.3236 175.36 75.2125 187.506 105.138 185.719L105.078 184.721ZM119.062 183.123C117.941 181.955 116.755 181.357 115.485 181.112C114.233 180.869 112.925 180.974 111.573 181.159C108.839 181.533 105.852 182.239 102.206 181.51L102.01 182.49C105.865 183.261 109.072 182.511 111.709 182.15C113.042 181.967 114.213 181.884 115.295 182.093C116.359 182.299 117.36 182.794 118.341 183.816L119.062 183.123ZM102.254 181.522C101.287 181.226 99.3806 181.018 97.0558 180.892C94.7096 180.764 91.8786 180.718 89.0225 180.764C86.1669 180.809 83.2787 180.948 80.8191 181.193C78.3798 181.436 76.3012 181.788 75.1057 182.284L75.4891 183.208C76.5319 182.775 78.4736 182.431 80.9181 182.188C83.3423 181.947 86.2014 181.809 89.0386 181.763C91.8754 181.718 94.6825 181.764 97.0015 181.89C99.3421 182.018 101.129 182.224 101.962 182.478L102.254 181.522ZM173.783 151.557C166.54 160.188 145.338 178.577 118.62 182.976L118.783 183.963C145.814 179.512 167.211 160.943 174.549 152.2L173.783 151.557ZM154.068 90.3997C155.104 88.5344 155.952 86.826 156.714 85.2663C157.479 83.7025 158.153 82.2987 158.85 81.0216C160.238 78.4781 161.692 76.4838 164.033 74.8773L163.467 74.0528C160.946 75.7831 159.399 77.9278 157.972 80.5426C157.261 81.8447 156.575 83.2749 155.816 84.827C155.055 86.3832 154.216 88.0726 153.194 89.9142L154.068 90.3997ZM164.033 74.8773C164.635 74.4644 165.172 74.1159 165.657 73.8024C166.139 73.4905 166.575 73.2092 166.961 72.9378C167.736 72.3926 168.352 71.8606 168.816 71.1167C169.279 70.3757 169.567 69.4657 169.766 68.2031C169.966 66.9431 170.082 65.2956 170.18 63.0604L169.181 63.0166C169.083 65.2499 168.968 66.8478 168.779 68.0468C168.589 69.2431 168.331 70.0055 167.968 70.587C167.607 71.1655 167.117 71.6059 166.386 72.1197C166.019 72.3777 165.601 72.6475 165.114 72.9629C164.629 73.2766 164.081 73.6315 163.467 74.0528L164.033 74.8773ZM170.18 63.0604C170.383 58.4401 168.008 53.2766 165.577 48.4716C164.35 46.045 163.106 43.7077 162.118 41.5191C161.129 39.3278 160.426 37.3424 160.258 35.6355L159.263 35.7331C159.447 37.6091 160.208 39.7173 161.207 41.9303C162.206 44.146 163.471 46.5237 164.685 48.9229C167.137 53.7694 169.37 58.7002 169.181 63.0166L170.18 63.0604ZM160.258 35.6355C160.072 33.7411 159.372 32.3453 158.21 31.4129C157.061 30.491 155.524 30.0738 153.759 29.9952C150.244 29.8387 145.596 31.0188 140.625 32.6458L140.937 33.5962C145.911 31.9678 150.401 30.8467 153.714 30.9942C155.363 31.0677 156.663 31.4538 157.584 32.1929C158.492 32.9216 159.097 34.0446 159.263 35.7331L160.258 35.6355ZM140.625 32.6458C139.694 32.9507 138.265 33.1541 136.436 33.2729C134.617 33.3911 132.439 33.4237 130.028 33.4021C125.205 33.359 119.486 33.0998 113.902 32.8845C108.326 32.6695 102.881 32.4983 98.6351 32.6345C96.5135 32.7025 94.6717 32.8478 93.2538 33.1078C92.5451 33.2378 91.9261 33.3993 91.4244 33.6021C90.9313 33.8013 90.5012 34.0602 90.2284 34.4151L91.0212 35.0245C91.136 34.8752 91.3748 34.7006 91.799 34.5292C92.2146 34.3613 92.7614 34.2148 93.4342 34.0914C94.7791 33.8447 96.5628 33.7015 98.6672 33.634C102.873 33.4991 108.282 33.6686 113.863 33.8837C119.435 34.0985 125.177 34.3588 130.019 34.4021C132.441 34.4238 134.647 34.3913 136.501 34.2708C138.345 34.151 139.879 33.9423 140.937 33.5962L140.625 32.6458ZM90.2284 34.4151C87.332 38.1831 85.6435 40.1749 84.7368 41.4592C84.276 42.1118 83.9778 42.6334 83.8185 43.1578C83.6559 43.693 83.6499 44.1914 83.7051 44.7732C83.8153 45.9342 84.1619 47.4535 84.2585 50.7068C84.3546 53.944 84.1968 58.8576 83.2753 66.6233L84.2683 66.7411C85.1939 58.9414 85.356 53.9767 85.258 50.6771C85.1606 47.3935 84.7992 45.7174 84.7007 44.6787C84.6515 44.1607 84.666 43.8084 84.7753 43.4484C84.8879 43.0777 85.113 42.66 85.5537 42.0359C86.4498 40.7667 88.0767 38.8552 91.0212 35.0245L90.2284 34.4151ZM83.8168 67.1801C84.42 67.1256 85.1716 67.3181 86.0858 67.7608C86.9926 68.2 88.0084 68.86 89.1239 69.6742C91.3795 71.3207 93.8908 73.4787 96.6947 75.6266C99.4635 77.7476 102.453 79.804 105.517 81.1147C108.584 82.4266 111.768 83.0093 114.9 82.1222L114.628 81.16C111.792 81.9631 108.854 81.4544 105.91 80.1953C102.964 78.9349 100.054 76.9405 97.3028 74.8328C94.5864 72.7519 91.9557 70.5032 89.7135 68.8665C88.5802 68.0393 87.5082 67.3386 86.5217 66.8608C85.5424 66.3866 84.595 66.1057 83.7268 66.1842L83.8168 67.1801ZM114.9 82.1222C122.048 80.0981 127.618 80.0186 132.045 80.9161C136.471 81.8135 139.787 83.694 142.418 85.6394C143.737 86.6142 144.882 87.6037 145.917 88.5009C146.943 89.3904 147.878 90.2049 148.747 90.7934C149.613 91.38 150.483 91.7918 151.382 91.7948C152.308 91.7978 153.162 91.3695 153.992 90.5027L153.27 89.8112C152.567 90.5455 151.958 90.7966 151.385 90.7948C150.786 90.7928 150.12 90.5153 149.308 89.9655C148.5 89.4177 147.615 88.6488 146.572 87.7452C145.539 86.8492 144.366 85.8359 143.013 84.8353C140.3 82.8301 136.852 80.8703 132.244 79.9361C127.637 79.002 121.903 79.0997 114.628 81.16L114.9 82.1222ZM148.63 157.987C151.778 158.917 153.919 159.381 155.327 159.449C156.029 159.483 156.604 159.422 157.044 159.231C157.515 159.026 157.813 158.677 157.931 158.221C158.04 157.801 157.987 157.333 157.877 156.876C157.766 156.411 157.581 155.895 157.372 155.358C156.947 154.263 156.417 153.049 156.055 151.742L155.092 152.008C155.471 153.38 156.035 154.674 156.44 155.719C156.646 156.251 156.81 156.713 156.905 157.109C157.001 157.512 157.011 157.787 156.963 157.969C156.926 158.114 156.847 158.226 156.645 158.314C156.412 158.416 156.017 158.481 155.375 158.45C154.097 158.389 152.057 157.957 148.913 157.028L148.63 157.987ZM156.055 151.742C152.536 139.026 151.753 132.687 151.254 128.473C151.005 126.367 150.823 124.744 150.399 123.12C149.973 121.485 149.305 119.862 148.1 117.721L147.229 118.212C148.403 120.298 149.032 121.84 149.432 123.373C149.835 124.916 150.01 126.463 150.261 128.591C150.764 132.845 151.556 139.235 155.092 152.008L156.055 151.742ZM148.164 117.963C148.151 116.299 148.381 115.065 148.664 113.984C148.939 112.934 149.306 111.905 149.509 110.83C149.936 108.572 149.718 105.906 147.355 100.663L146.443 101.074C148.763 106.22 148.901 108.668 148.526 110.644C148.329 111.687 148.005 112.554 147.697 113.731C147.397 114.877 147.15 116.199 147.164 117.971L148.164 117.963ZM147.377 101.015C148.114 98.6056 147.789 96.7599 146.692 95.4017C145.622 94.0764 143.887 93.3073 141.997 92.8595C138.215 91.963 133.465 92.2788 130.991 92.4238L131.05 93.4221C133.562 93.2749 138.155 92.9765 141.767 93.8325C143.574 94.2609 145.05 94.9597 145.914 96.03C146.752 97.0674 147.087 98.5451 146.421 100.723L147.377 101.015ZM130.991 92.4238C127.73 92.6149 126.012 91.4056 124.046 90.3867C123.06 89.8758 122.009 89.4155 120.702 89.2741C119.395 89.1325 117.873 89.3144 115.939 90.0176L116.28 90.9575C118.106 90.2937 119.472 90.1468 120.595 90.2683C121.719 90.3899 122.64 90.7846 123.586 91.2745C125.482 92.2571 127.46 93.6324 131.05 93.4221L130.991 92.4238ZM115.68 90.2312C114.75 91.7891 113.965 93.4012 113.565 95.2555C113.164 97.1144 113.156 99.1901 113.743 101.673C114.911 106.615 118.44 113.188 125.942 122.942L126.735 122.333C119.251 112.602 115.833 106.169 114.716 101.443C114.16 99.0911 114.176 97.1665 114.542 95.4663C114.91 93.7615 115.636 92.2557 116.539 90.7439L115.68 90.2312ZM125.942 122.942C129.579 127.671 133.605 135.868 137.541 143.2C139.499 146.849 141.433 150.278 143.271 152.914C144.191 154.232 145.096 155.364 145.977 156.231C146.853 157.091 147.74 157.724 148.63 157.987L148.913 157.028C148.252 156.832 147.505 156.33 146.678 155.518C145.858 154.711 144.993 153.633 144.092 152.342C142.289 149.758 140.379 146.374 138.422 142.727C134.526 135.469 130.437 127.147 126.735 122.333L125.942 122.942Z" fill="black"/>
</svg>
