<svg width="197" height="187" viewBox="0 0 197 187" fill="none" xmlns="http://www.w3.org/2000/svg">
<path d="M147.413 13.2279C133.081 5.44938 116.46 1 98.7341 1C74.667 1 52.636 9.20511 35.6082 22.81M147.413 13.2279C176.74 29.1459 196.479 59.0056 196.479 93.2069C196.479 110.559 191.402 126.788 182.558 140.645M147.413 13.2279C150.566 24.2527 140.554 7.21443 137.927 13.2279C135.299 19.2414 122.687 7.21443 118.483 13.2279C114.279 19.2414 102.728 17.738 99.0495 17.738C95.3709 17.738 94.8454 12.7268 92.7434 7.21443C91.0513 2.80454 81.1822 5.38032 76.4526 7.21443L72.077 4.55524M182.558 140.645C181.976 141.556 181.378 142.458 180.764 143.348M182.558 140.645C184.136 138.233 185.574 135.95 186.799 133.998M182.558 140.645C181.978 141.532 181.379 142.436 180.764 143.348M180.764 143.348C178.722 146.31 176.504 149.155 174.124 151.868M180.764 143.348C178.691 146.425 176.445 149.586 174.166 152.446C166.875 161.132 145.576 179.612 118.702 184.037M121.226 183.469C120.392 183.668 119.55 183.857 118.702 184.037M118.702 184.037C115.561 184.701 112.325 185.235 109.024 185.614C106.154 185.943 102.99 186.062 99.6082 185.968M118.702 184.037C115.273 182.99 83.1156 181.083 76.1559 182.503M118.702 184.037C118.702 184.037 118.702 184.037 118.702 184.037ZM76.1559 182.503C76.1385 182.507 76.1213 182.51 76.1042 182.514M76.1559 182.503C76.7189 182.647 77.2806 182.787 77.8409 182.922M76.1559 182.503C62.3261 178.966 47.7521 172.695 35.6082 163.473M76.1042 182.514C75.7741 182.583 75.5032 182.661 75.2974 182.746M76.1042 182.514C76.6805 182.654 77.2594 182.79 77.8409 182.922M76.1042 182.514C60.1423 178.645 46.1386 171.87 34.6812 162.788M0.999988 93.2069C0.999988 70.7753 9.49091 50.2113 23.6082 34.2234C27.2502 30.0989 31.2666 26.2789 35.6082 22.81M0.999988 93.2069C0.999988 96.0694 1.13825 98.9014 1.40882 101.697C2.07356 108.566 3.46899 115.161 5.5394 121.424M0.999988 93.2069C0.672919 54.9612 23.9359 30.3399 35.6082 22.81M0.999988 93.2069C0.725127 99.6683 1.76103 110.035 5.5394 121.424M35.6082 22.81C42.6082 23.062 53.5 31.769 62.1082 31.769C65.9843 31.769 68.8567 41.5 72.077 40.5C75.2974 39.5 78.6082 51.5 83.1082 50C83.2749 49.8333 83.7082 50.7 84.1082 55.5C84.6082 61.5 80.7608 64 78.0291 69.5C75.2974 75 75.1082 84 68.6082 86.5C62.1082 89 54.5 84.3655 46.5 93.2069C43.905 96.0749 39.2967 100.438 35.6082 101.697C34.5734 106.855 33.1246 119.366 35.6082 124C38.7127 129.793 28.5 133.514 28.5 139.5L19.1386 147M99.6082 185.968C99.6082 185.968 99.6082 185.968 99.6082 185.968ZM99.6082 185.968C92.0264 185.524 84.755 184.493 77.8409 182.922M99.6082 185.968C92.9999 185.783 85.5576 184.781 77.8409 182.922M34.6812 162.788C34.167 162.38 33.658 161.968 33.1541 161.551M34.6812 162.788C19.8983 151.707 11.2105 137.202 6.36593 123.808M34.6812 162.788C34.9876 163.018 35.2966 163.246 35.6082 163.473M33.1541 161.551C29.0917 158.191 25.3661 154.531 22.0052 150.602M33.1541 161.551C33.9456 162.191 34.7622 162.83 35.6082 163.473M33.1541 161.551C28.954 158.156 25.4585 154.734 22.0052 150.602M22.0052 150.602C19.6625 147.863 17.4969 144.992 15.518 142M22.0052 150.602C19.8783 148.057 17.7675 145.243 15.518 142M22.0052 150.602C21.0511 149.46 20.1002 148.264 19.1386 147M15.518 142C11.7804 136.349 8.70861 130.263 6.36593 123.808M15.518 142C16.7584 143.788 17.9566 145.446 19.1386 147M6.36593 123.808C6.07948 123.019 5.80393 122.224 5.5394 121.424M6.36593 123.808C6.0769 123.009 5.80156 122.214 5.5394 121.424M35.6082 163.473L19.1386 147M195 84.5C188.892 87.6305 184.26 83.4436 178.48 88.9781C177.601 96.0747 173.429 96.7126 195 108.5M175.5 34.9999C167.5 37 149.023 35.0849 147.07 39.784C139.716 57.4853 144.234 41.4043 148.716 72.4313C154.264 70.3953 172.647 86.375 182.523 78.8667C195.5 69 186.893 75.8626 192.5 72.4313" stroke="black" stroke-linecap="round"/>
</svg>
