<svg width="198" height="187" viewBox="0 0 198 187" fill="none" xmlns="http://www.w3.org/2000/svg">
<path d="M173.79 151.539C173.607 151.746 173.628 152.062 173.836 152.244C174.043 152.426 174.359 152.406 174.541 152.198L173.79 151.539ZM92.7851 7.21443L93.2523 7.03628L93.252 7.03531L92.7851 7.21443ZM76.4944 7.21443L76.2347 7.64172L76.4453 7.76973L76.6752 7.68061L76.4944 7.21443ZM72.3785 4.12796C72.1425 3.98454 71.8349 4.05958 71.6915 4.29556C71.5481 4.53154 71.6231 4.8391 71.8591 4.98252L72.3785 4.12796ZM187.264 134.264C187.411 134.03 187.34 133.722 187.107 133.575C186.873 133.428 186.564 133.499 186.417 133.733L187.264 134.264ZM174.208 152.446L174.591 152.767L174.599 152.757L174.208 152.446ZM121.383 183.956C121.652 183.892 121.818 183.622 121.754 183.354C121.69 183.085 121.421 182.919 121.152 182.983L121.383 183.956ZM109.065 185.614L109.099 186.113L109.111 186.112L109.122 186.111L109.065 185.614ZM75.1474 182.284C74.8924 182.39 74.7715 182.683 74.8774 182.938C74.9832 183.193 75.2758 183.314 75.5309 183.208L75.1474 182.284ZM23.65 34.2234L23.2752 33.8925L23.2752 33.8925L23.65 34.2234ZM99.65 185.968L99.683 185.469L99.6792 185.469L99.65 185.968ZM1.45058 101.697L1.94825 101.649L1.45058 101.697ZM102.168 40.9826L102.233 41.4782L102.233 41.4782L102.168 40.9826ZM115.407 46.5563L115.572 47.0283L115.572 47.0283L115.407 46.5563ZM130.212 53.0604C130.471 52.9654 130.605 52.6783 130.51 52.419C130.415 52.1596 130.128 52.0264 129.868 52.1213L130.212 53.0604ZM130.04 91.0001L129.6 90.763L129.6 90.763L130.04 91.0001ZM102.168 100.5L102.355 100.964L102.355 100.964L102.168 100.5ZM92.5001 108L92.3258 107.531L92.0001 107.653L92.0001 108L92.5001 108ZM92.5001 118L92.8459 117.639L92.8459 117.639L92.5001 118ZM81.4251 151.5L81.0084 151.224L80.9635 151.292L80.9423 151.37L81.4251 151.5ZM71.0001 163L70.6604 163.367L70.8728 163.564L71.1492 163.477L71.0001 163ZM56.5 161L56.6682 160.529L56.4775 160.461L56.2931 160.545L56.5 161ZM33 151.5L32.5404 151.697L32.5404 151.697L33 151.5ZM19.5 129L19.7236 128.553L19.7236 128.553L19.5 129ZM23.4556 105.206C23.5694 104.954 23.4577 104.658 23.2061 104.544C22.9545 104.431 22.6583 104.542 22.5445 104.794L23.4556 105.206ZM32.5 31.5L32.0358 31.6857L32.0358 31.6857L32.5 31.5ZM167 127.5L166.7 127.9L166.736 127.927L166.776 127.947L167 127.5ZM150.5 127.5L150.878 127.828L150.878 127.828L150.5 127.5ZM98.7759 1.5C116.418 1.5 132.957 5.9281 147.216 13.6674L147.693 12.7885C133.289 4.97066 116.586 0.5 98.7759 0.5V1.5ZM147.216 13.6674C176.398 29.5065 196.021 59.2063 196.021 93.2069H197.021C197.021 58.8049 177.166 28.7853 147.693 12.7885L147.216 13.6674ZM196.021 93.2069C196.021 110.46 190.974 126.596 182.179 140.376L183.021 140.914C191.915 126.98 197.021 110.659 197.021 93.2069H196.021ZM182.179 140.376C181.6 141.282 181.005 142.179 180.394 143.065L181.218 143.632C181.835 142.737 182.436 141.83 183.021 140.914L182.179 140.376ZM180.394 143.065C178.363 146.01 176.157 148.839 173.79 151.539L174.541 152.198C176.935 149.47 179.165 146.61 181.218 143.632L180.394 143.065ZM146.974 13.3654C147.367 14.739 147.54 15.6292 147.56 16.1656C147.571 16.4396 147.538 16.5606 147.521 16.5969C147.516 16.6077 147.523 16.5886 147.553 16.5665C147.585 16.5431 147.615 16.5364 147.628 16.5352C147.633 16.5348 147.569 16.5365 147.403 16.4541C147.249 16.3777 147.058 16.2548 146.829 16.0853C146.37 15.7457 145.823 15.2679 145.208 14.7306C144.009 13.6825 142.55 12.4034 141.212 11.7871C140.539 11.4776 139.818 11.2968 139.137 11.4688C138.427 11.6484 137.881 12.1791 137.51 13.0277L138.427 13.4281C138.713 12.7734 139.055 12.5211 139.382 12.4383C139.74 12.3481 140.207 12.4256 140.793 12.6955C141.972 13.2381 143.312 14.402 144.55 15.4836C145.154 16.0113 145.735 16.52 146.234 16.8891C146.484 17.0739 146.729 17.2358 146.958 17.3498C147.176 17.4578 147.443 17.5553 147.716 17.5314C147.863 17.5186 148.012 17.4702 148.145 17.3723C148.276 17.2756 148.368 17.149 148.429 17.0161C148.545 16.7651 148.572 16.4546 148.559 16.1276C148.534 15.4621 148.331 14.473 147.935 13.0904L146.974 13.3654ZM137.51 13.0277C137.228 13.6737 136.831 14.0442 136.354 14.248C135.861 14.459 135.234 14.5112 134.471 14.4226C132.928 14.2434 131.042 13.5209 129.013 12.7598C127.024 12.0134 124.909 11.2351 123.018 11.0393C121.104 10.8411 119.31 11.2324 118.115 12.9414L118.934 13.5144C119.842 12.2167 121.2 11.8563 122.915 12.034C124.654 12.214 126.644 12.9391 128.662 13.6961C130.641 14.4384 132.662 15.2192 134.355 15.4159C135.21 15.5151 136.032 15.4734 136.747 15.1676C137.48 14.8546 138.052 14.2855 138.427 13.4281L137.51 13.0277ZM118.115 12.9414C116.147 15.7562 112.41 16.8671 108.563 17.2404C104.716 17.6136 101.006 17.238 99.0913 17.238V18.238C100.855 18.238 104.759 18.6141 108.659 18.2357C112.558 17.8573 116.698 16.7131 118.934 13.5144L118.115 12.9414ZM99.0913 17.238C98.3017 17.238 97.6996 16.9753 97.1896 16.5023C96.6638 16.0146 96.2209 15.2885 95.8047 14.3421C95.3896 13.3982 95.0193 12.2791 94.6157 11.0305C94.2147 9.78969 93.7835 8.42909 93.2523 7.03628L92.318 7.39259C92.8379 8.75597 93.2605 10.0889 93.6642 11.338C94.0654 12.5794 94.4504 13.7467 94.8893 14.7447C95.3271 15.7401 95.8366 16.6113 96.5096 17.2355C97.1985 17.8744 98.0415 18.238 99.0913 18.238V17.238ZM93.252 7.03531C92.7546 5.7392 91.6605 4.99224 90.3271 4.61497C89.0037 4.24055 87.3925 4.21162 85.7298 4.37534C82.3988 4.70332 78.7027 5.82178 76.3136 6.74826L76.6752 7.68061C79.0156 6.77297 82.6188 5.68649 85.8278 5.37052C87.4351 5.21227 88.904 5.25161 90.0548 5.5772C91.1956 5.89995 91.9696 6.48472 92.3183 7.39356L93.252 7.03531ZM76.754 6.78715L72.3785 4.12796L71.8591 4.98252L76.2347 7.64172L76.754 6.78715ZM186.417 133.733C185.193 135.684 183.757 137.963 182.182 140.371L183.018 140.918C184.599 138.502 186.039 136.216 187.264 134.264L186.417 133.733ZM182.182 140.371C181.602 141.257 181.004 142.159 180.391 143.069L181.221 143.628C181.836 142.714 182.437 141.807 183.018 140.918L182.182 140.371ZM180.391 143.069C178.323 146.139 176.085 149.288 173.817 152.134L174.599 152.757C176.889 149.883 179.144 146.71 181.221 143.628L180.391 143.069ZM121.152 182.983C120.322 183.18 119.484 183.369 118.64 183.547L118.847 184.526C119.7 184.345 120.545 184.155 121.383 183.956L121.152 182.983ZM118.64 183.547C115.514 184.209 112.294 184.741 109.008 185.117L109.122 186.111C112.44 185.73 115.692 185.194 118.847 184.526L118.64 183.547ZM118.889 183.558C118.411 183.412 117.487 183.263 116.268 183.114C115.034 182.963 113.456 182.808 111.643 182.655C108.016 182.35 103.434 182.057 98.7476 181.842C94.061 181.627 89.2642 181.49 85.2076 181.497C81.1694 181.503 77.8142 181.652 76.0431 182.025L76.2488 183.003C77.9029 182.656 81.1554 182.503 85.2093 182.497C89.2449 182.49 94.0249 182.627 98.7018 182.841C103.378 183.056 107.947 183.348 111.559 183.652C113.365 183.804 114.929 183.958 116.147 184.107C117.38 184.258 118.217 184.398 118.597 184.515L118.889 183.558ZM76.0431 182.025C75.6979 182.097 75.3934 182.182 75.1474 182.284L75.5309 183.208C75.6964 183.139 75.9339 183.07 76.2488 183.003L76.0431 182.025ZM173.825 152.124C166.581 160.755 145.38 179.144 118.662 183.543L118.825 184.53C145.856 180.08 167.253 161.51 174.591 152.767L173.825 152.124ZM118.743 183.537C118.743 183.537 118.743 183.537 118.743 183.537C118.743 183.537 118.743 183.537 118.743 183.537C118.743 183.537 118.743 183.537 118.743 183.537C118.743 183.537 118.743 183.537 118.743 183.537C118.743 183.537 118.743 183.537 118.743 183.537C118.743 183.537 118.743 183.537 118.743 183.537C118.743 183.537 118.743 183.537 118.743 183.537C118.743 183.537 118.743 183.537 118.743 183.537C118.743 183.537 118.743 183.537 118.743 183.537C118.743 183.537 118.743 183.537 118.743 183.537C118.743 183.537 118.743 183.537 118.743 183.537C118.743 183.537 118.743 183.537 118.743 183.537C118.743 183.537 118.743 183.537 118.743 183.537C118.743 183.537 118.743 183.537 118.743 183.537C118.743 183.537 118.743 183.537 118.743 183.537C118.743 183.537 118.743 183.537 118.743 183.537C118.743 183.537 118.743 183.537 118.743 183.537C118.743 183.537 118.743 183.537 118.743 183.537C118.743 183.537 118.743 183.537 118.743 183.537C118.743 183.537 118.743 183.537 118.743 183.537C118.743 183.537 118.743 183.537 118.743 183.537C118.743 183.537 118.743 183.537 118.743 183.537C118.743 183.537 118.743 183.537 118.743 183.537C118.743 183.537 118.743 183.537 118.743 183.537C118.743 183.537 118.743 183.537 118.743 183.537C118.743 183.537 118.743 183.537 118.743 183.537C118.743 183.537 118.743 183.537 118.743 183.537C118.743 183.537 118.743 183.537 118.743 183.537C118.743 183.537 118.743 183.537 118.743 183.537C118.743 183.537 118.743 183.537 118.743 183.537C118.743 183.537 118.743 183.537 118.743 183.537C118.743 183.537 118.743 183.537 118.743 183.537C118.743 183.537 118.743 183.537 118.743 183.537C118.743 183.537 118.743 183.537 118.743 183.537C118.743 183.537 118.743 183.537 118.743 183.537C118.743 183.537 118.743 183.537 118.743 183.537C118.743 183.537 118.743 183.537 118.743 183.537C118.743 183.537 118.743 183.537 118.743 183.537C118.743 183.537 118.743 183.537 118.743 183.537C118.743 183.537 118.743 183.537 118.743 183.537C118.743 183.537 118.743 183.537 118.743 183.537C118.743 183.537 118.743 183.537 118.743 183.537C118.743 183.537 118.743 183.537 118.743 183.537C118.743 183.537 118.743 183.537 118.743 183.537C118.743 183.537 118.743 183.537 118.743 183.537C118.743 183.537 118.743 183.537 118.743 183.537C118.743 183.537 118.743 183.537 118.743 183.537C118.743 183.537 118.743 183.537 118.743 183.537C118.743 183.537 118.743 183.537 118.743 183.537C118.743 183.537 118.743 183.537 118.743 183.537C118.743 183.537 118.743 183.537 118.743 183.537C118.743 183.537 118.743 183.537 118.743 183.537C118.743 183.537 118.743 183.537 118.743 183.537C118.743 183.537 118.743 183.537 118.743 183.537C118.743 183.537 118.743 183.537 118.743 183.537C118.743 183.537 118.743 183.537 118.743 183.537C118.743 183.537 118.743 183.537 118.743 183.537C118.743 183.537 118.743 183.537 118.743 183.537C118.743 183.537 118.743 183.537 118.743 183.537C118.743 183.537 118.743 183.537 118.743 183.537C118.743 183.537 118.743 183.537 118.743 183.537C118.743 183.537 118.743 183.537 118.743 183.537C118.743 183.537 118.743 183.537 118.743 183.537C118.743 183.537 118.743 183.537 118.743 183.537C118.743 183.537 118.743 183.537 118.743 183.537C118.743 183.537 118.743 183.537 118.743 183.537C118.743 183.537 118.743 183.537 118.743 183.537C118.743 183.537 118.743 183.537 118.743 183.537C118.743 183.537 118.743 183.537 118.743 183.537C118.743 183.537 118.743 183.537 118.743 183.537C118.743 183.537 118.743 183.537 118.743 183.537C118.743 183.537 118.743 183.537 118.743 183.537C118.743 183.537 118.743 183.537 118.743 183.537C118.743 183.537 118.743 183.537 118.743 183.537C118.743 183.537 118.743 183.537 118.743 183.537C118.743 183.537 118.743 183.537 118.743 183.537C118.743 183.537 118.743 183.537 118.743 183.537C118.743 183.537 118.743 183.537 118.743 183.537C118.743 183.537 118.743 183.537 118.743 183.537C118.743 183.537 118.743 183.537 118.743 183.537C118.743 183.537 118.743 183.537 118.743 183.537C118.743 183.537 118.743 183.537 118.743 183.537C118.743 183.537 118.743 183.537 118.743 183.537C118.743 183.537 118.743 183.537 118.743 183.537C118.743 183.537 118.743 183.537 118.743 183.537C118.743 183.537 118.743 183.537 118.743 183.537C118.743 183.537 118.743 183.537 118.743 183.537C118.743 183.537 118.743 183.537 118.743 183.537C118.743 183.537 118.743 183.537 118.743 183.537C118.743 183.537 118.743 183.537 118.743 183.537C118.743 183.537 118.743 183.537 118.743 183.537C118.743 183.537 118.743 183.537 118.743 183.537C118.743 183.537 118.743 183.537 118.743 183.537C118.743 183.537 118.743 183.537 118.743 183.537C118.743 183.537 118.743 183.537 118.743 183.537C118.743 183.537 118.743 183.537 118.743 183.537C118.743 183.537 118.743 183.537 118.743 183.537C118.743 183.537 118.743 183.537 118.743 183.537C118.743 183.537 118.743 183.537 118.743 183.537C118.743 183.537 118.743 183.537 118.743 183.537C118.743 183.537 118.743 183.537 118.743 183.537C118.743 183.537 118.743 183.537 118.743 183.537C118.743 183.537 118.743 183.537 118.743 183.537C118.743 183.537 118.743 183.537 118.743 183.537C118.743 183.537 118.743 183.537 118.743 183.537C118.743 183.537 118.743 183.537 118.743 183.537C118.743 183.537 118.743 183.537 118.743 183.537C118.743 183.537 118.743 183.537 118.743 183.537C118.743 184.037 118.743 184.537 118.743 184.537C118.743 184.537 118.743 184.537 118.743 184.537C118.743 184.537 118.743 184.537 118.743 184.537C118.743 184.537 118.743 184.537 118.743 184.537C118.743 184.537 118.743 184.537 118.743 184.537C118.743 184.537 118.743 184.537 118.743 184.537C118.743 184.537 118.743 184.537 118.743 184.537C118.743 184.537 118.743 184.537 118.743 184.537C118.743 184.537 118.743 184.537 118.743 184.537C118.743 184.537 118.743 184.537 118.743 184.537C118.743 184.537 118.743 184.537 118.743 184.537C118.743 184.537 118.743 184.537 118.743 184.537C118.743 184.537 118.743 184.537 118.743 184.537C118.743 184.537 118.743 184.537 118.743 184.537C118.743 184.537 118.743 184.537 118.743 184.537C118.743 184.537 118.743 184.537 118.743 184.537C118.743 184.537 118.743 184.537 118.743 184.537C118.743 184.537 118.743 184.537 118.743 184.537C118.743 184.537 118.743 184.537 118.743 184.537C118.743 184.537 118.743 184.537 118.743 184.537C118.743 184.537 118.743 184.537 118.743 184.537C118.743 184.537 118.743 184.537 118.743 184.537C118.743 184.537 118.743 184.537 118.743 184.537C118.743 184.537 118.743 184.537 118.743 184.537C118.743 184.537 118.743 184.537 118.743 184.537C118.743 184.537 118.743 184.537 118.743 184.537C118.743 184.537 118.743 184.537 118.743 184.537C118.743 184.537 118.743 184.537 118.743 184.537C118.743 184.537 118.743 184.537 118.743 184.537C118.743 184.537 118.743 184.537 118.743 184.537C118.743 184.537 118.743 184.537 118.743 184.537C118.743 184.537 118.743 184.537 118.743 184.537C118.743 184.537 118.743 184.537 118.743 184.537C118.743 184.537 118.743 184.537 118.743 184.537C118.743 184.537 118.743 184.537 118.743 184.537C118.743 184.537 118.743 184.537 118.743 184.537C118.743 184.537 118.743 184.537 118.743 184.537C118.743 184.537 118.743 184.537 118.743 184.537C118.743 184.537 118.743 184.537 118.743 184.537C118.743 184.537 118.743 184.537 118.743 184.537C118.743 184.537 118.743 184.537 118.743 184.537C118.743 184.537 118.743 184.537 118.743 184.537C118.743 184.537 118.743 184.537 118.743 184.537C118.743 184.537 118.743 184.537 118.743 184.537C118.743 184.537 118.743 184.537 118.743 184.537C118.743 184.537 118.743 184.537 118.743 184.537C118.743 184.537 118.743 184.537 118.743 184.537C118.743 184.537 118.743 184.537 118.743 184.537C118.743 184.537 118.743 184.537 118.743 184.537C118.743 184.537 118.743 184.537 118.743 184.537C118.743 184.537 118.743 184.537 118.743 184.537C118.743 184.537 118.743 184.537 118.743 184.537C118.743 184.537 118.743 184.537 118.743 184.537C118.743 184.537 118.743 184.537 118.743 184.537C118.743 184.537 118.743 184.537 118.743 184.537C118.743 184.537 118.743 184.537 118.743 184.537C118.743 184.537 118.743 184.537 118.743 184.537C118.743 184.537 118.743 184.537 118.743 184.537C118.743 184.537 118.743 184.537 118.743 184.537C118.743 184.537 118.743 184.537 118.743 184.537C118.743 184.537 118.743 184.537 118.743 184.537C118.743 184.537 118.743 184.537 118.743 184.537C118.743 184.537 118.743 184.537 118.743 184.537C118.743 184.537 118.743 184.537 118.743 184.537C118.743 184.537 118.743 184.537 118.743 184.537C118.743 184.537 118.743 184.537 118.743 184.537C118.743 184.537 118.743 184.537 118.743 184.537C118.743 184.537 118.743 184.537 118.743 184.537C118.743 184.537 118.743 184.537 118.743 184.537C118.743 184.537 118.743 184.537 118.743 184.537C118.743 184.537 118.743 184.537 118.743 184.537C118.743 184.537 118.743 184.537 118.743 184.537C118.743 184.537 118.743 184.537 118.743 184.537C118.743 184.537 118.743 184.537 118.743 184.537C118.743 184.537 118.743 184.537 118.743 184.537C118.743 184.537 118.743 184.537 118.743 184.537C118.743 184.537 118.743 184.537 118.743 184.537C118.743 184.537 118.743 184.537 118.743 184.537C118.743 184.537 118.743 184.537 118.743 184.537C118.743 184.537 118.743 184.537 118.743 184.537C118.743 184.537 118.743 184.537 118.743 184.537C118.743 184.537 118.743 184.537 118.743 184.537C118.743 184.537 118.743 184.537 118.743 184.537C118.743 184.537 118.743 184.537 118.743 184.537C118.743 184.537 118.743 184.537 118.743 184.537C118.743 184.537 118.743 184.537 118.743 184.537C118.743 184.537 118.743 184.537 118.743 184.537C118.743 184.537 118.743 184.537 118.743 184.537C118.743 184.537 118.743 184.537 118.743 184.537C118.743 184.537 118.743 184.537 118.743 184.537C118.743 184.537 118.743 184.537 118.743 184.537C118.743 184.537 118.743 184.537 118.743 184.537C118.743 184.537 118.743 184.537 118.743 184.537C118.743 184.537 118.743 184.537 118.743 184.537C118.743 184.537 118.743 184.537 118.743 184.537C118.743 184.537 118.743 184.537 118.743 184.537C118.743 184.537 118.743 184.537 118.743 184.537C118.743 184.537 118.743 184.537 118.743 184.537C118.743 184.537 118.743 184.537 118.743 184.537C118.743 184.537 118.743 184.537 118.743 184.537C118.743 184.537 118.743 184.537 118.743 184.537C118.743 184.537 118.743 184.537 118.743 184.537C118.743 184.537 118.743 184.537 118.743 184.537C118.743 184.537 118.743 184.537 118.743 184.537C118.743 184.537 118.743 184.537 118.743 184.537C118.743 184.537 118.743 184.537 118.743 184.537C118.743 184.537 118.743 184.537 118.743 184.537C118.743 184.537 118.743 184.537 118.743 184.537C118.743 184.537 118.743 184.537 118.743 184.537C118.743 184.537 118.743 184.537 118.743 184.537C118.743 184.537 118.743 184.537 118.743 184.537C118.743 184.537 118.743 184.537 118.743 184.537C118.743 184.537 118.743 184.537 118.743 184.537C118.743 184.537 118.743 184.537 118.743 184.537C118.743 184.537 118.743 184.537 118.743 184.537C118.743 184.537 118.743 184.537 118.743 184.537C118.743 184.537 118.743 184.537 118.743 184.537C118.743 184.537 118.743 184.537 118.743 184.537C118.743 184.537 118.743 184.537 118.743 184.537C118.743 184.537 118.743 184.537 118.743 184.537C118.743 184.537 118.743 184.537 118.743 184.537C118.743 184.537 118.743 184.537 118.743 184.537C118.743 184.537 118.743 184.537 118.743 184.537C118.743 184.537 118.743 184.537 118.743 184.537C118.743 184.537 118.743 184.537 118.743 184.537C118.743 184.537 118.743 184.537 118.743 184.537C118.743 184.537 118.743 184.537 118.743 184.537C118.743 184.537 118.743 184.537 118.743 184.537C118.743 184.537 118.743 184.537 118.743 184.537C118.743 184.537 118.743 184.537 118.743 184.537C118.743 184.537 118.743 184.537 118.743 184.537C118.743 184.537 118.743 184.537 118.743 184.537C118.743 184.537 118.743 184.537 118.743 184.537C118.743 184.537 118.743 184.537 118.743 184.537C118.743 184.537 118.743 184.537 118.743 184.537C118.743 184.537 118.743 184.537 118.743 184.537C118.743 184.537 118.743 184.537 118.743 184.537C118.743 184.537 118.743 184.537 118.743 184.537C118.743 184.537 118.743 184.537 118.743 184.537C118.743 184.537 118.743 184.537 118.743 184.537C118.743 184.537 118.743 184.537 118.743 184.537C118.743 184.537 118.743 184.537 118.743 184.537C118.743 184.537 118.743 184.537 118.743 184.537C118.743 184.537 118.743 184.537 118.743 184.537C118.743 184.537 118.743 184.537 118.743 184.537C118.743 184.537 118.743 184.537 118.743 184.537C118.743 184.537 118.743 184.537 118.743 184.537C118.743 184.537 118.743 184.537 118.743 184.537C118.743 184.537 118.743 184.537 118.743 184.537C118.743 184.537 118.743 184.537 118.743 184.537C118.743 184.537 118.743 184.537 118.743 184.537C118.743 184.537 118.743 184.537 118.743 184.537C118.743 184.537 118.743 184.537 118.743 184.537C118.743 184.537 118.743 184.537 118.743 184.537C118.743 184.537 118.743 184.537 118.743 184.537C118.743 184.537 118.743 184.537 118.743 184.537C118.743 184.537 118.743 184.537 118.743 184.537C118.743 184.537 118.743 184.537 118.743 184.537C118.743 184.537 118.743 184.537 118.743 184.537C118.743 184.537 118.743 184.537 118.743 184.537C118.743 184.537 118.743 184.537 118.743 184.537C118.743 184.537 118.743 184.537 118.743 184.537C118.743 184.537 118.743 184.537 118.743 184.537C118.743 184.537 118.743 184.537 118.743 184.537C118.743 184.537 118.743 184.537 118.743 184.537C118.743 184.537 118.743 184.537 118.743 184.537C118.743 184.537 118.743 184.537 118.743 184.537C118.743 184.537 118.743 184.537 118.743 184.537C118.743 184.537 118.743 184.537 118.743 184.537C118.743 184.537 118.743 184.537 118.743 184.537C118.743 184.537 118.743 184.537 118.743 184.537C118.743 184.537 118.743 184.537 118.743 184.537C118.743 184.537 118.743 184.537 118.743 184.537C118.743 184.537 118.743 184.537 118.743 184.537C118.743 184.537 118.743 184.537 118.743 184.537C118.743 184.537 118.743 184.537 118.743 184.537C118.743 184.537 118.743 184.537 118.743 184.537C118.743 184.537 118.743 184.537 118.743 184.537C118.743 184.537 118.743 184.537 118.743 184.537C118.743 184.537 118.743 184.537 118.743 184.537C118.743 184.537 118.743 184.537 118.743 184.537C118.743 184.537 118.743 184.537 118.743 184.537C118.743 184.537 118.743 184.537 118.743 184.537C118.743 184.537 118.743 184.537 118.743 184.537C118.743 184.537 118.743 184.537 118.743 184.537C118.743 184.537 118.743 184.537 118.743 184.537C118.743 184.537 118.743 184.537 118.743 184.537C118.743 184.537 118.743 184.537 118.743 184.537C118.743 184.537 118.743 184.537 118.743 184.537C118.743 184.537 118.743 184.537 118.743 184.537C118.743 184.537 118.743 184.537 118.743 184.537C118.743 184.537 118.743 184.537 118.743 184.537C118.743 184.537 118.743 184.537 118.743 184.537C118.743 184.537 118.743 184.537 118.743 184.537C118.743 184.537 118.743 184.537 118.743 184.537C118.743 184.537 118.743 184.537 118.743 184.537C118.743 184.537 118.743 184.537 118.743 184.537C118.743 184.537 118.743 184.537 118.743 184.537C118.743 184.537 118.743 184.537 118.743 184.537C118.743 184.537 118.743 184.537 118.743 184.537C118.743 184.537 118.743 184.537 118.743 184.537C118.743 184.537 118.743 184.537 118.743 184.537C118.743 184.537 118.743 184.537 118.743 184.537C118.743 184.537 118.743 184.537 118.743 184.537C118.743 184.537 118.743 184.537 118.743 184.537C118.743 184.537 118.743 184.537 118.743 184.537C118.743 184.537 118.743 184.537 118.743 184.537C118.743 184.537 118.743 184.537 118.743 184.537C118.743 184.537 118.743 184.537 118.743 184.537C118.743 184.537 118.743 184.537 118.743 184.537C118.743 184.537 118.743 184.537 118.743 184.537C118.743 184.537 118.743 184.537 118.743 184.537C118.743 184.537 118.743 184.537 118.743 184.537C118.743 184.537 118.743 184.537 118.743 184.537C118.743 184.537 118.743 184.537 118.743 184.537C118.743 184.537 118.743 184.537 118.743 184.537C118.743 184.537 118.743 184.537 118.743 184.537C118.743 184.537 118.743 184.537 118.743 184.537C118.743 184.537 118.743 184.537 118.743 184.537C118.743 184.537 118.743 184.537 118.743 184.537C118.743 184.537 118.743 184.537 118.743 184.537C118.743 184.537 118.743 184.537 118.743 184.537C118.743 184.537 118.743 184.537 118.743 184.537C118.743 184.537 118.743 184.537 118.743 184.537C118.743 184.537 118.743 184.537 118.743 184.537C118.743 184.537 118.743 184.537 118.743 184.537C118.743 184.537 118.743 184.537 118.743 184.537C118.743 184.537 118.743 184.537 118.743 184.537C118.743 184.537 118.743 184.537 118.743 184.537C118.743 184.537 118.743 184.537 118.743 184.537C118.743 184.537 118.743 184.537 118.743 184.537C118.743 184.537 118.743 184.537 118.743 184.537C118.743 184.537 118.743 184.537 118.743 184.537C118.743 184.537 118.743 184.537 118.743 184.537C118.743 184.537 118.743 184.537 118.743 184.537C118.743 184.537 118.743 184.537 118.743 184.537C118.743 184.537 118.743 184.537 118.743 184.537C118.743 184.537 118.743 184.537 118.743 184.537C118.743 184.537 118.743 184.537 118.743 184.537C118.743 184.537 118.743 184.537 118.743 184.537C118.743 184.537 118.743 184.537 118.743 184.537C118.743 184.537 118.743 184.537 118.743 184.537C118.743 184.537 118.743 184.537 118.743 184.537C118.743 184.537 118.743 184.537 118.743 184.537C118.743 184.537 118.743 184.537 118.743 184.537C118.743 184.537 118.743 184.537 118.743 184.537C118.743 184.537 118.743 184.537 118.743 184.537C118.743 184.537 118.743 184.537 118.743 184.537C118.743 184.537 118.743 184.537 118.743 184.537C118.743 184.537 118.743 184.537 118.743 184.537C118.743 184.537 118.743 184.537 118.743 184.537C118.743 184.537 118.743 184.537 118.743 184.537C118.743 184.537 118.743 184.537 118.743 184.537C118.743 184.537 118.743 184.537 118.743 184.537C118.743 184.537 118.743 184.537 118.743 184.537C118.743 184.537 118.743 184.537 118.743 184.537C118.743 184.537 118.743 184.537 118.743 184.537C118.743 184.537 118.743 184.537 118.743 184.537C118.743 184.537 118.743 184.537 118.743 184.537C118.743 184.537 118.743 184.537 118.743 184.537C118.743 184.537 118.743 184.537 118.743 184.537C118.743 184.537 118.743 184.537 118.743 184.537C118.743 184.537 118.743 184.537 118.743 184.537C118.743 184.537 118.743 184.537 118.743 184.537C118.743 184.537 118.743 184.537 118.743 184.537C118.743 184.537 118.743 184.537 118.743 184.537C118.743 184.537 118.743 184.537 118.743 184.537C118.743 184.537 118.743 184.537 118.743 184.537C118.743 184.537 118.743 184.537 118.743 184.537C118.743 184.537 118.743 184.537 118.743 184.537C118.743 184.537 118.743 184.537 118.743 184.537C118.743 184.537 118.743 184.537 118.743 184.537C118.743 184.537 118.743 184.537 118.743 184.537C118.743 184.537 118.743 184.537 118.743 184.537C118.743 184.537 118.743 184.537 118.743 184.537C118.743 184.537 118.743 184.537 118.743 184.537C118.743 184.537 118.743 184.537 118.743 184.537C118.743 184.537 118.743 184.537 118.743 184.537C118.743 184.537 118.743 184.537 118.743 184.537C118.743 184.537 118.743 184.537 118.743 184.537C118.743 184.537 118.743 184.537 118.743 184.537C118.743 184.537 118.743 184.537 118.743 184.537C118.743 184.537 118.743 184.537 118.743 184.537C118.743 184.537 118.743 184.537 118.743 184.537C118.743 184.537 118.743 184.537 118.743 184.537C118.743 184.537 118.743 184.537 118.743 184.537C118.743 184.537 118.743 184.537 118.743 184.537C118.743 184.537 118.743 184.537 118.743 184.537C118.743 184.537 118.743 184.537 118.743 184.537C118.743 184.537 118.743 184.537 118.743 184.537C118.743 184.537 118.743 184.537 118.743 184.537C118.743 184.537 118.743 184.537 118.743 184.537C118.743 184.537 118.743 184.537 118.743 184.537C118.743 184.537 118.743 184.537 118.743 184.537C118.743 184.537 118.743 184.537 118.743 184.537C118.743 184.537 118.743 184.037 118.743 183.537C118.743 183.537 118.743 183.537 118.743 183.537C118.743 183.537 118.743 183.537 118.743 183.537C118.743 183.537 118.743 183.537 118.743 183.537C118.743 183.537 118.743 183.537 118.743 183.537C118.743 183.537 118.743 183.537 118.743 183.537C118.743 183.537 118.743 183.537 118.743 183.537C118.743 183.537 118.743 183.537 118.743 183.537C118.743 183.537 118.743 183.537 118.743 183.537C118.743 183.537 118.743 183.537 118.743 183.537C118.743 183.537 118.743 183.537 118.743 183.537C118.743 183.537 118.743 183.537 118.743 183.537C118.743 183.537 118.743 183.537 118.743 183.537C118.743 183.537 118.743 183.537 118.743 183.537C118.743 183.537 118.743 183.537 118.743 183.537C118.743 183.537 118.743 183.537 118.743 183.537C118.743 183.537 118.743 183.537 118.743 183.537C118.743 183.537 118.743 183.537 118.743 183.537C118.743 183.537 118.743 183.537 118.743 183.537C118.743 183.537 118.743 183.537 118.743 183.537C118.743 183.537 118.743 183.537 118.743 183.537C118.743 183.537 118.743 183.537 118.743 183.537C118.743 183.537 118.743 183.537 118.743 183.537C118.743 183.537 118.743 183.537 118.743 183.537C118.743 183.537 118.743 183.537 118.743 183.537C118.743 183.537 118.743 183.537 118.743 183.537C118.743 183.537 118.743 183.537 118.743 183.537C118.743 183.537 118.743 183.537 118.743 183.537C118.743 183.537 118.743 183.537 118.743 183.537C118.743 183.537 118.743 183.537 118.743 183.537C118.743 183.537 118.743 183.537 118.743 183.537C118.743 183.537 118.743 183.537 118.743 183.537C118.743 183.537 118.743 183.537 118.743 183.537C118.743 183.537 118.743 183.537 118.743 183.537C118.743 183.537 118.743 183.537 118.743 183.537C118.743 183.537 118.743 183.537 118.743 183.537C118.743 183.537 118.743 183.537 118.743 183.537C118.743 183.537 118.743 183.537 118.743 183.537C118.743 183.537 118.743 183.537 118.743 183.537C118.743 183.537 118.743 183.537 118.743 183.537C118.743 183.537 118.743 183.537 118.743 183.537C118.743 183.537 118.743 183.537 118.743 183.537C118.743 183.537 118.743 183.537 118.743 183.537C118.743 183.537 118.743 183.537 118.743 183.537C118.743 183.537 118.743 183.537 118.743 183.537C118.743 183.537 118.743 183.537 118.743 183.537C118.743 183.537 118.743 183.537 118.743 183.537C118.743 183.537 118.743 183.537 118.743 183.537C118.743 183.537 118.743 183.537 118.743 183.537C118.743 183.537 118.743 183.537 118.743 183.537C118.743 183.537 118.743 183.537 118.743 183.537C118.743 183.537 118.743 183.537 118.743 183.537C118.743 183.537 118.743 183.537 118.743 183.537C118.743 183.537 118.743 183.537 118.743 183.537C118.743 183.537 118.743 183.537 118.743 183.537C118.743 183.537 118.743 183.537 118.743 183.537C118.743 183.537 118.743 183.537 118.743 183.537C118.743 183.537 118.743 183.537 118.743 183.537C118.743 183.537 118.743 183.537 118.743 183.537C118.743 183.537 118.743 183.537 118.743 183.537C118.743 183.537 118.743 183.537 118.743 183.537C118.743 183.537 118.743 183.537 118.743 183.537C118.743 183.537 118.743 183.537 118.743 183.537C118.743 183.537 118.743 183.537 118.743 183.537C118.743 183.537 118.743 183.537 118.743 183.537C118.743 183.537 118.743 183.537 118.743 183.537C118.743 183.537 118.743 183.537 118.743 183.537C118.743 183.537 118.743 183.537 118.743 183.537C118.743 183.537 118.743 183.537 118.743 183.537C118.743 183.537 118.743 183.537 118.743 183.537C118.743 183.537 118.743 183.537 118.743 183.537C118.743 183.537 118.743 183.537 118.743 183.537C118.743 183.537 118.743 183.537 118.743 183.537C118.743 183.537 118.743 183.537 118.743 183.537C118.743 183.537 118.743 183.537 118.743 183.537C118.743 183.537 118.743 183.537 118.743 183.537C118.743 183.537 118.743 183.537 118.743 183.537C118.743 183.537 118.743 183.537 118.743 183.537C118.743 183.537 118.743 183.537 118.743 183.537C118.743 183.537 118.743 183.537 118.743 183.537C118.743 183.537 118.743 183.537 118.743 183.537C118.743 183.537 118.743 183.537 118.743 183.537C118.743 183.537 118.743 183.537 118.743 183.537C118.743 183.537 118.743 183.537 118.743 183.537C118.743 183.537 118.743 183.537 118.743 183.537C118.743 183.537 118.743 183.537 118.743 183.537C118.743 183.537 118.743 183.537 118.743 183.537C118.743 183.537 118.743 183.537 118.743 183.537C118.743 183.537 118.743 183.537 118.743 183.537C118.743 183.537 118.743 183.537 118.743 183.537C118.743 183.537 118.743 183.537 118.743 183.537C118.743 183.537 118.743 183.537 118.743 183.537C118.743 183.537 118.743 183.537 118.743 183.537C118.743 183.537 118.743 183.537 118.743 183.537C118.743 183.537 118.743 183.537 118.743 183.537C118.743 183.537 118.743 183.537 118.743 183.537C118.743 183.537 118.743 183.537 118.743 183.537C118.743 183.537 118.743 183.537 118.743 183.537C118.743 183.537 118.743 183.537 118.743 183.537C118.743 183.537 118.743 183.537 118.743 183.537C118.743 183.537 118.743 183.537 118.743 183.537C118.743 183.537 118.743 183.537 118.743 183.537C118.743 183.537 118.743 183.537 118.743 183.537C118.743 183.537 118.743 183.537 118.743 183.537C118.743 183.537 118.743 183.537 118.743 183.537C118.743 183.537 118.743 183.537 118.743 183.537C118.743 183.537 118.743 183.537 118.743 183.537C118.743 183.537 118.743 183.537 118.743 183.537C118.743 183.537 118.743 183.537 118.743 183.537V184.537C118.743 184.537 118.743 184.537 118.743 184.537C118.743 184.537 118.743 184.537 118.743 184.537C118.743 184.537 118.743 184.537 118.743 184.537C118.743 184.537 118.743 184.537 118.743 184.537C118.743 184.537 118.743 184.537 118.743 184.537C118.743 184.537 118.743 184.537 118.743 184.537C118.743 184.537 118.743 184.537 118.743 184.537C118.743 184.537 118.743 184.537 118.743 184.537C118.743 184.537 118.743 184.537 118.743 184.537C118.743 184.537 118.743 184.537 118.743 184.537C118.743 184.537 118.743 184.537 118.743 184.537C118.743 184.537 118.743 184.537 118.743 184.537C118.743 184.537 118.743 184.537 118.743 184.537C118.743 184.537 118.743 184.537 118.743 184.537C118.743 184.537 118.743 184.537 118.743 184.537C118.743 184.537 118.743 184.537 118.743 184.537C118.743 184.537 118.743 184.537 118.743 184.537C118.743 184.537 118.743 184.537 118.743 184.537C118.743 184.537 118.743 184.537 118.743 184.537C118.743 184.537 118.743 184.537 118.743 184.537C118.743 184.537 118.743 184.537 118.743 184.537C118.743 184.537 118.743 184.537 118.743 184.537C118.743 184.537 118.743 184.537 118.743 184.537C118.743 184.537 118.743 184.537 118.743 184.537C118.743 184.537 118.743 184.537 118.743 184.537C118.743 184.537 118.743 184.537 118.743 184.537C118.743 184.537 118.743 184.537 118.743 184.537C118.743 184.537 118.743 184.537 118.743 184.537C118.743 184.537 118.743 184.537 118.743 184.537C118.743 184.537 118.743 184.537 118.743 184.537C118.743 184.537 118.743 184.537 118.743 184.537C118.743 184.537 118.743 184.537 118.743 184.537C118.743 184.537 118.743 184.537 118.743 184.537C118.743 184.537 118.743 184.537 118.743 184.537C118.743 184.537 118.743 184.537 118.743 184.537C118.743 184.537 118.743 184.537 118.743 184.537C118.743 184.537 118.743 184.537 118.743 184.537C118.743 184.537 118.743 184.537 118.743 184.537C118.743 184.537 118.743 184.537 118.743 184.537C118.743 184.537 118.743 184.537 118.743 184.537C118.743 184.537 118.743 184.537 118.743 184.537C118.743 184.537 118.743 184.537 118.743 184.537C118.743 184.537 118.743 184.537 118.743 184.537C118.743 184.537 118.743 184.537 118.743 184.537C118.743 184.537 118.743 184.537 118.743 184.537C118.743 184.537 118.743 184.537 118.743 184.537C118.743 184.537 118.743 184.537 118.743 184.537C118.743 184.537 118.743 184.537 118.743 184.537C118.743 184.537 118.743 184.537 118.743 184.537C118.743 184.537 118.743 184.537 118.743 184.537C118.743 184.537 118.743 184.537 118.743 184.537C118.743 184.537 118.743 184.537 118.743 184.537C118.743 184.537 118.743 184.537 118.743 184.537C118.743 184.537 118.743 184.537 118.743 184.537C118.743 184.537 118.743 184.537 118.743 184.537C118.743 184.537 118.743 184.537 118.743 184.537C118.743 184.537 118.743 184.537 118.743 184.537C118.743 184.537 118.743 184.537 118.743 184.537C118.743 184.537 118.743 184.537 118.743 184.537C118.743 184.537 118.743 184.537 118.743 184.537C118.743 184.537 118.743 184.537 118.743 184.537C118.743 184.537 118.743 184.537 118.743 184.537C118.743 184.537 118.743 184.537 118.743 184.537C118.743 184.537 118.743 184.537 118.743 184.537C118.743 184.537 118.743 184.537 118.743 184.537C118.743 184.537 118.743 184.537 118.743 184.537C118.743 184.537 118.743 184.537 118.743 184.537C118.743 184.537 118.743 184.537 118.743 184.537C118.743 184.537 118.743 184.537 118.743 184.537C118.743 184.537 118.743 184.537 118.743 184.537C118.743 184.537 118.743 184.537 118.743 184.537C118.743 184.537 118.743 184.537 118.743 184.537C118.743 184.537 118.743 184.537 118.743 184.537C118.743 184.537 118.743 184.537 118.743 184.537C118.743 184.537 118.743 184.537 118.743 184.537C118.743 184.537 118.743 184.537 118.743 184.537C118.743 184.537 118.743 184.537 118.743 184.537C118.743 184.537 118.743 184.537 118.743 184.537C118.743 184.537 118.743 184.537 118.743 184.537C118.743 184.537 118.743 184.537 118.743 184.537C118.743 184.537 118.743 184.537 118.743 184.537C118.743 184.537 118.743 184.537 118.743 184.537C118.743 184.537 118.743 184.537 118.743 184.537C118.743 184.537 118.743 184.537 118.743 184.537C118.743 184.537 118.743 184.537 118.743 184.537C118.743 184.537 118.743 184.537 118.743 184.537C118.743 184.537 118.743 184.537 118.743 184.537C118.743 184.537 118.743 184.537 118.743 184.537C118.743 184.537 118.743 184.537 118.743 184.537C118.743 184.537 118.743 184.537 118.743 184.537C118.743 184.537 118.743 184.537 118.743 184.537C118.743 184.537 118.743 184.537 118.743 184.537C118.743 184.537 118.743 184.537 118.743 184.537C118.743 184.537 118.743 184.537 118.743 184.537C118.743 184.537 118.743 184.537 118.743 184.537C118.743 184.537 118.743 184.537 118.743 184.537C118.743 184.537 118.743 184.537 118.743 184.537C118.743 184.537 118.743 184.537 118.743 184.537C118.743 184.537 118.743 184.537 118.743 184.537C118.743 184.537 118.743 184.537 118.743 184.537C118.743 184.537 118.743 184.537 118.743 184.537C118.743 184.537 118.743 184.537 118.743 184.537C118.743 184.537 118.743 184.537 118.743 184.537C118.743 184.537 118.743 184.537 118.743 184.537C118.743 184.537 118.743 184.537 118.743 184.537C118.743 184.537 118.743 184.537 118.743 184.537C118.743 184.537 118.743 184.537 118.743 184.537C118.743 184.537 118.743 184.537 118.743 184.537C118.743 184.037 118.743 183.537 118.743 183.537C118.743 183.537 118.743 183.537 118.743 183.537C118.743 183.537 118.743 183.537 118.743 183.537C118.743 183.537 118.743 183.537 118.743 183.537C118.743 183.537 118.743 183.537 118.743 183.537C118.743 183.537 118.743 183.537 118.743 183.537C118.743 183.537 118.743 183.537 118.743 183.537C118.743 183.537 118.743 183.537 118.743 183.537C118.743 183.537 118.743 183.537 118.743 183.537C118.743 183.537 118.743 183.537 118.743 183.537C118.743 183.537 118.743 183.537 118.743 183.537C118.743 183.537 118.743 183.537 118.743 183.537C118.743 183.537 118.743 183.537 118.743 183.537C118.743 183.537 118.743 183.537 118.743 183.537C118.743 183.537 118.743 183.537 118.743 183.537C118.743 183.537 118.743 183.537 118.743 183.537C118.743 183.537 118.743 183.537 118.743 183.537C118.743 183.537 118.743 183.537 118.743 183.537C118.743 183.537 118.743 183.537 118.743 183.537C118.743 183.537 118.743 183.537 118.743 183.537C118.743 183.537 118.743 183.537 118.743 183.537C118.743 183.537 118.743 183.537 118.743 183.537C118.743 183.537 118.743 183.537 118.743 183.537C118.743 183.537 118.743 183.537 118.743 183.537C118.743 183.537 118.743 183.537 118.743 183.537C118.743 183.537 118.743 183.537 118.743 183.537C118.743 183.537 118.743 183.537 118.743 183.537C118.743 183.537 118.743 183.537 118.743 183.537C118.743 183.537 118.743 183.537 118.743 183.537C118.743 183.537 118.743 183.537 118.743 183.537C118.743 183.537 118.743 183.537 118.743 183.537C118.743 183.537 118.743 183.537 118.743 183.537C118.743 183.537 118.743 183.537 118.743 183.537C118.743 183.537 118.743 183.537 118.743 183.537C118.743 183.537 118.743 183.537 118.743 183.537C118.743 183.537 118.743 183.537 118.743 183.537C118.743 183.537 118.743 183.537 118.743 183.537C118.743 183.537 118.743 183.537 118.743 183.537C118.743 183.537 118.743 183.537 118.743 183.537C118.743 183.537 118.743 183.537 118.743 183.537C118.743 183.537 118.743 183.537 118.743 183.537C118.743 183.537 118.743 183.537 118.743 183.537C118.743 183.537 118.743 183.537 118.743 183.537C118.743 183.537 118.743 183.537 118.743 183.537C118.743 183.537 118.743 183.537 118.743 183.537C118.743 183.537 118.743 183.537 118.743 183.537C118.743 183.537 118.743 183.537 118.743 183.537C118.743 183.537 118.743 183.537 118.743 183.537C118.743 183.537 118.743 183.537 118.743 183.537C118.743 183.537 118.743 183.537 118.743 183.537C118.743 183.537 118.743 183.537 118.743 183.537C118.743 183.537 118.743 183.537 118.743 183.537C118.743 183.537 118.743 183.537 118.743 183.537C118.743 183.537 118.743 183.537 118.743 183.537C118.743 183.537 118.743 183.537 118.743 183.537C118.743 183.537 118.743 183.537 118.743 183.537C118.743 183.537 118.743 183.537 118.743 183.537C118.743 183.537 118.743 183.537 118.743 183.537C118.743 183.537 118.743 183.537 118.743 183.537C118.743 183.537 118.743 183.537 118.743 183.537C118.743 183.537 118.743 183.537 118.743 183.537C118.743 183.537 118.743 183.537 118.743 183.537C118.743 183.537 118.743 183.537 118.743 183.537C118.743 183.537 118.743 183.537 118.743 183.537C118.743 183.537 118.743 183.537 118.743 183.537C118.743 183.537 118.743 183.537 118.743 183.537C118.743 183.537 118.743 183.537 118.743 183.537C118.743 183.537 118.743 183.537 118.743 183.537C118.743 183.537 118.743 183.537 118.743 183.537C118.743 183.537 118.743 183.537 118.743 183.537C118.743 183.537 118.743 183.537 118.743 183.537C118.743 183.537 118.743 183.537 118.743 183.537C118.743 183.537 118.743 183.537 118.743 183.537C118.743 183.537 118.743 183.537 118.743 183.537C118.743 183.537 118.743 183.537 118.743 183.537C118.743 183.537 118.743 183.537 118.743 183.537C118.743 183.537 118.743 183.537 118.743 183.537C118.743 183.537 118.743 183.537 118.743 183.537C118.743 183.537 118.743 183.537 118.743 183.537C118.743 183.537 118.743 183.537 118.743 183.537C118.743 183.537 118.743 183.537 118.743 183.537C118.743 183.537 118.743 183.537 118.743 183.537C118.743 183.537 118.743 183.537 118.743 183.537C118.743 183.537 118.743 183.537 118.743 183.537C118.743 183.537 118.743 183.537 118.743 183.537C118.743 183.537 118.743 183.537 118.743 183.537C118.743 183.537 118.743 183.537 118.743 183.537C118.743 183.537 118.743 183.537 118.743 183.537C118.743 183.537 118.743 183.537 118.743 183.537C118.743 183.537 118.743 183.537 118.743 183.537C118.743 183.537 118.743 183.537 118.743 183.537C118.743 183.537 118.743 183.537 118.743 183.537C118.743 183.537 118.743 183.537 118.743 183.537C118.743 183.537 118.743 183.537 118.743 183.537C118.743 183.537 118.743 183.537 118.743 183.537C118.743 183.537 118.743 183.537 118.743 183.537C118.743 183.537 118.743 183.537 118.743 183.537C118.743 183.537 118.743 183.537 118.743 183.537C118.743 183.537 118.743 183.537 118.743 183.537C118.743 183.537 118.743 183.537 118.743 183.537C118.743 183.537 118.743 183.537 118.743 183.537C118.743 183.537 118.743 183.537 118.743 183.537C118.743 183.537 118.743 183.537 118.743 183.537C118.743 183.537 118.743 183.537 118.743 183.537C118.743 183.537 118.743 183.537 118.743 183.537C118.743 183.537 118.743 183.537 118.743 183.537C118.743 183.537 118.743 183.537 118.743 183.537C118.743 183.537 118.743 183.537 118.743 183.537C118.743 183.537 118.743 183.537 118.743 183.537C118.743 183.537 118.743 183.537 118.743 183.537C118.743 183.537 118.743 183.537 118.743 183.537C118.743 183.537 118.743 183.537 118.743 183.537C118.743 183.537 118.743 183.537 118.743 183.537C118.743 183.537 118.743 183.537 118.743 183.537C118.743 183.537 118.743 183.537 118.743 183.537C118.743 183.537 118.743 183.537 118.743 183.537C118.743 183.537 118.743 183.537 118.743 183.537C118.743 183.537 118.743 183.537 118.743 183.537C118.743 183.537 118.743 183.537 118.743 183.537C118.743 183.537 118.743 183.537 118.743 183.537C118.743 183.537 118.743 183.537 118.743 183.537C118.743 183.537 118.743 183.537 118.743 183.537C118.743 183.537 118.743 183.537 118.743 183.537C118.743 183.537 118.743 183.537 118.743 183.537C118.743 183.537 118.743 183.537 118.743 183.537C118.743 183.537 118.743 183.537 118.743 183.537C118.743 183.537 118.743 183.537 118.743 183.537C118.743 183.537 118.743 183.537 118.743 183.537C118.743 183.537 118.743 183.537 118.743 183.537C118.743 183.537 118.743 183.537 118.743 183.537C118.743 183.537 118.743 183.537 118.743 183.537C118.743 183.537 118.743 183.537 118.743 183.537C118.743 183.537 118.743 183.537 118.743 183.537C118.743 183.537 118.743 183.537 118.743 183.537C118.743 183.537 118.743 183.537 118.743 183.537C118.743 183.537 118.743 183.537 118.743 183.537C118.743 183.537 118.743 183.537 118.743 183.537C118.743 183.537 118.743 183.537 118.743 183.537C118.743 183.537 118.743 183.537 118.743 183.537C118.743 183.537 118.743 183.537 118.743 183.537C118.743 183.537 118.743 183.537 118.743 183.537C118.743 183.537 118.743 183.537 118.743 183.537C118.743 183.537 118.743 183.537 118.743 183.537C118.743 183.537 118.743 183.537 118.743 183.537C118.743 183.537 118.743 183.537 118.743 183.537C118.743 183.537 118.743 183.537 118.743 183.537C118.743 183.537 118.743 183.537 118.743 183.537C118.743 183.537 118.743 183.537 118.743 183.537C118.743 183.537 118.743 183.537 118.743 183.537C118.743 183.537 118.743 183.537 118.743 183.537C118.743 183.537 118.743 183.537 118.743 183.537C118.743 183.537 118.743 183.537 118.743 183.537C118.743 183.537 118.743 183.537 118.743 183.537C118.743 183.537 118.743 183.537 118.743 183.537C118.743 183.537 118.743 183.537 118.743 183.537C118.743 183.537 118.743 183.537 118.743 183.537C118.743 183.537 118.743 183.537 118.743 183.537C118.743 183.537 118.743 183.537 118.743 183.537C118.743 183.537 118.743 183.537 118.743 183.537C118.743 183.537 118.743 183.537 118.743 183.537C118.743 183.537 118.743 183.537 118.743 183.537C118.743 183.537 118.743 183.537 118.743 183.537C118.743 183.537 118.743 183.537 118.743 183.537C118.743 183.537 118.743 183.537 118.743 183.537C118.743 183.537 118.743 183.537 118.743 183.537C118.743 183.537 118.743 183.537 118.743 183.537C118.743 183.537 118.743 183.537 118.743 183.537C118.743 183.537 118.743 183.537 118.743 183.537C118.743 183.537 118.743 183.537 118.743 183.537C118.743 183.537 118.743 183.537 118.743 183.537C118.743 183.537 118.743 183.537 118.743 183.537C118.743 183.537 118.743 183.537 118.743 183.537C118.743 183.537 118.743 183.537 118.743 183.537C118.743 183.537 118.743 183.537 118.743 183.537C118.743 183.537 118.743 183.537 118.743 183.537C118.743 183.537 118.743 183.537 118.743 183.537C118.743 183.537 118.743 183.537 118.743 183.537C118.743 183.537 118.743 183.537 118.743 183.537C118.743 183.537 118.743 183.537 118.743 183.537C118.743 183.537 118.743 183.537 118.743 183.537C118.743 183.537 118.743 183.537 118.743 183.537C118.743 183.537 118.743 183.537 118.743 183.537C118.743 183.537 118.743 183.537 118.743 183.537C118.743 183.537 118.743 183.537 118.743 183.537C118.743 183.537 118.743 183.537 118.743 183.537C118.743 183.537 118.743 183.537 118.743 183.537C118.743 183.537 118.743 183.537 118.743 183.537C118.743 183.537 118.743 183.537 118.743 183.537C118.743 183.537 118.743 183.537 118.743 183.537C118.743 183.537 118.743 183.537 118.743 183.537C118.743 183.537 118.743 183.537 118.743 183.537C118.743 183.537 118.743 183.537 118.743 183.537C118.743 183.537 118.743 183.537 118.743 183.537C118.743 183.537 118.743 183.537 118.743 183.537C118.743 183.537 118.743 183.537 118.743 183.537C118.743 183.537 118.743 183.537 118.743 183.537C118.743 183.537 118.743 183.537 118.743 183.537C118.743 183.537 118.743 183.537 118.743 183.537C118.743 183.537 118.743 183.537 118.743 183.537C118.743 183.537 118.743 183.537 118.743 183.537C118.743 183.537 118.743 183.537 118.743 183.537C118.743 183.537 118.743 183.537 118.743 183.537C118.743 183.537 118.743 183.537 118.743 183.537C118.743 183.537 118.743 183.537 118.743 183.537C118.743 183.537 118.743 183.537 118.743 183.537C118.743 183.537 118.743 183.537 118.743 183.537C118.743 183.537 118.743 183.537 118.743 183.537C118.743 183.537 118.743 183.537 118.743 183.537C118.743 183.537 118.743 183.537 118.743 183.537C118.743 183.537 118.743 183.537 118.743 183.537C118.743 183.537 118.743 183.537 118.743 183.537C118.743 183.537 118.743 183.537 118.743 183.537C118.743 183.537 118.743 183.537 118.743 183.537C118.743 183.537 118.743 183.537 118.743 183.537C118.743 183.537 118.743 183.537 118.743 183.537C118.743 183.537 118.743 183.537 118.743 183.537C118.743 183.537 118.743 183.537 118.743 183.537C118.743 183.537 118.743 183.537 118.743 183.537C118.743 183.537 118.743 183.537 118.743 183.537C118.743 183.537 118.743 183.537 118.743 183.537C118.743 183.537 118.743 183.537 118.743 183.537C118.743 183.537 118.743 183.537 118.743 183.537C118.743 183.537 118.743 183.537 118.743 183.537C118.743 183.537 118.743 183.537 118.743 183.537C118.743 183.537 118.743 183.537 118.743 183.537C118.743 183.537 118.743 183.537 118.743 183.537C118.743 183.537 118.743 183.537 118.743 183.537C118.743 183.537 118.743 183.537 118.743 183.537C118.743 183.537 118.743 183.537 118.743 183.537C118.743 183.537 118.743 183.537 118.743 183.537C118.743 183.537 118.743 183.537 118.743 183.537C118.743 183.537 118.743 183.537 118.743 183.537C118.743 183.537 118.743 183.537 118.743 183.537C118.743 183.537 118.743 183.537 118.743 183.537C118.743 183.537 118.743 183.537 118.743 183.537C118.743 183.537 118.743 183.537 118.743 183.537C118.743 183.537 118.743 183.537 118.743 183.537C118.743 183.537 118.743 183.537 118.743 183.537C118.743 183.537 118.743 183.537 118.743 183.537C118.743 183.537 118.743 183.537 118.743 183.537C118.743 183.537 118.743 183.537 118.743 183.537C118.743 183.537 118.743 183.537 118.743 183.537C118.743 183.537 118.743 183.537 118.743 183.537C118.743 183.537 118.743 183.537 118.743 183.537C118.743 183.537 118.743 183.537 118.743 183.537C118.743 183.537 118.743 183.537 118.743 183.537C118.743 183.537 118.743 183.537 118.743 183.537C118.743 183.537 118.743 183.537 118.743 183.537C118.743 183.537 118.743 183.537 118.743 183.537C118.743 183.537 118.743 183.537 118.743 183.537C118.743 183.537 118.743 183.537 118.743 183.537C118.743 183.537 118.743 183.537 118.743 183.537C118.743 183.537 118.743 183.537 118.743 183.537C118.743 183.537 118.743 183.537 118.743 183.537C118.743 183.537 118.743 183.537 118.743 183.537C118.743 183.537 118.743 183.537 118.743 183.537C118.743 183.537 118.743 183.537 118.743 183.537C118.743 183.537 118.743 183.537 118.743 183.537C118.743 183.537 118.743 183.537 118.743 183.537C118.743 183.537 118.743 183.537 118.743 183.537C118.743 183.537 118.743 183.537 118.743 183.537C118.743 183.537 118.743 183.537 118.743 183.537C118.743 183.537 118.743 183.537 118.743 183.537C118.743 183.537 118.743 183.537 118.743 183.537C118.743 183.537 118.743 183.537 118.743 183.537C118.743 183.537 118.743 183.537 118.743 183.537C118.743 183.537 118.743 183.537 118.743 183.537C118.743 183.537 118.743 183.537 118.743 183.537C118.743 183.537 118.743 183.537 118.743 183.537C118.743 183.537 118.743 183.537 118.743 183.537C118.743 183.537 118.743 183.537 118.743 183.537C118.743 183.537 118.743 183.537 118.743 183.537C118.743 183.537 118.743 183.537 118.743 183.537C118.743 183.537 118.743 183.537 118.743 183.537C118.743 183.537 118.743 183.537 118.743 183.537C118.743 183.537 118.743 183.537 118.743 183.537C118.743 183.537 118.743 183.537 118.743 183.537C118.743 183.537 118.743 183.537 118.743 183.537C118.743 183.537 118.743 183.537 118.743 183.537C118.743 183.537 118.743 183.537 118.743 183.537C118.743 183.537 118.743 183.537 118.743 183.537C118.743 183.537 118.743 183.537 118.743 183.537C118.743 183.537 118.743 183.537 118.743 183.537C118.743 183.537 118.743 183.537 118.743 183.537C118.743 183.537 118.743 183.537 118.743 183.537C118.743 183.537 118.743 183.537 118.743 183.537C118.743 183.537 118.743 183.537 118.743 183.537C118.743 183.537 118.743 183.537 118.743 183.537C118.743 183.537 118.743 183.537 118.743 183.537C118.743 183.537 118.743 183.537 118.743 183.537C118.743 183.537 118.743 183.537 118.743 183.537C118.743 183.537 118.743 183.537 118.743 183.537C118.743 183.537 118.743 183.537 118.743 183.537C118.743 183.537 118.743 183.537 118.743 183.537C118.743 183.537 118.743 183.537 118.743 183.537C118.743 183.537 118.743 184.037 118.743 184.537C118.743 184.537 118.743 184.537 118.743 184.537C118.743 184.537 118.743 184.537 118.743 184.537C118.743 184.537 118.743 184.537 118.743 184.537C118.743 184.537 118.743 184.537 118.743 184.537C118.743 184.537 118.743 184.537 118.743 184.537C118.743 184.537 118.743 184.537 118.743 184.537C118.743 184.537 118.743 184.537 118.743 184.537C118.743 184.537 118.743 184.537 118.743 184.537C118.743 184.537 118.743 184.537 118.743 184.537C118.743 184.537 118.743 184.537 118.743 184.537C118.743 184.537 118.743 184.537 118.743 184.537C118.743 184.537 118.743 184.537 118.743 184.537C118.743 184.537 118.743 184.537 118.743 184.537C118.743 184.537 118.743 184.537 118.743 184.537C118.743 184.537 118.743 184.537 118.743 184.537C118.743 184.537 118.743 184.537 118.743 184.537C118.743 184.537 118.743 184.537 118.743 184.537C118.743 184.537 118.743 184.537 118.743 184.537C118.743 184.537 118.743 184.537 118.743 184.537C118.743 184.537 118.743 184.537 118.743 184.537C118.743 184.537 118.743 184.537 118.743 184.537C118.743 184.537 118.743 184.537 118.743 184.537C118.743 184.537 118.743 184.537 118.743 184.537C118.743 184.537 118.743 184.537 118.743 184.537C118.743 184.537 118.743 184.537 118.743 184.537C118.743 184.537 118.743 184.537 118.743 184.537C118.743 184.537 118.743 184.537 118.743 184.537C118.743 184.537 118.743 184.537 118.743 184.537C118.743 184.537 118.743 184.537 118.743 184.537C118.743 184.537 118.743 184.537 118.743 184.537C118.743 184.537 118.743 184.537 118.743 184.537C118.743 184.537 118.743 184.537 118.743 184.537C118.743 184.537 118.743 184.537 118.743 184.537C118.743 184.537 118.743 184.537 118.743 184.537C118.743 184.537 118.743 184.537 118.743 184.537C118.743 184.537 118.743 184.537 118.743 184.537C118.743 184.537 118.743 184.537 118.743 184.537C118.743 184.537 118.743 184.537 118.743 184.537C118.743 184.537 118.743 184.537 118.743 184.537C118.743 184.537 118.743 184.537 118.743 184.537C118.743 184.537 118.743 184.537 118.743 184.537C118.743 184.537 118.743 184.537 118.743 184.537C118.743 184.537 118.743 184.537 118.743 184.537C118.743 184.537 118.743 184.537 118.743 184.537C118.743 184.537 118.743 184.537 118.743 184.537C118.743 184.537 118.743 184.537 118.743 184.537C118.743 184.537 118.743 184.537 118.743 184.537C118.743 184.537 118.743 184.537 118.743 184.537C118.743 184.537 118.743 184.537 118.743 184.537C118.743 184.537 118.743 184.537 118.743 184.537C118.743 184.537 118.743 184.537 118.743 184.537C118.743 184.537 118.743 184.537 118.743 184.537C118.743 184.537 118.743 184.537 118.743 184.537C118.743 184.537 118.743 184.537 118.743 184.537C118.743 184.537 118.743 184.537 118.743 184.537C118.743 184.537 118.743 184.537 118.743 184.537C118.743 184.537 118.743 184.537 118.743 184.537C118.743 184.537 118.743 184.537 118.743 184.537C118.743 184.537 118.743 184.537 118.743 184.537C118.743 184.537 118.743 184.537 118.743 184.537C118.743 184.537 118.743 184.537 118.743 184.537C118.743 184.537 118.743 184.537 118.743 184.537C118.743 184.537 118.743 184.537 118.743 184.537C118.743 184.537 118.743 184.537 118.743 184.537C118.743 184.537 118.743 184.537 118.743 184.537C118.743 184.537 118.743 184.537 118.743 184.537C118.743 184.537 118.743 184.537 118.743 184.537C118.743 184.537 118.743 184.537 118.743 184.537C118.743 184.537 118.743 184.537 118.743 184.537C118.743 184.537 118.743 184.537 118.743 184.537C118.743 184.537 118.743 184.537 118.743 184.537C118.743 184.537 118.743 184.537 118.743 184.537C118.743 184.537 118.743 184.537 118.743 184.537C118.743 184.537 118.743 184.537 118.743 184.537C118.743 184.537 118.743 184.537 118.743 184.537C118.743 184.537 118.743 184.537 118.743 184.537C118.743 184.537 118.743 184.537 118.743 184.537C118.743 184.537 118.743 184.537 118.743 184.537C118.743 184.537 118.743 184.537 118.743 184.537C118.743 184.537 118.743 184.537 118.743 184.537C118.743 184.537 118.743 184.537 118.743 184.537C118.743 184.537 118.743 184.537 118.743 184.537C118.743 184.537 118.743 184.537 118.743 184.537C118.743 184.537 118.743 184.537 118.743 184.537C118.743 184.537 118.743 184.537 118.743 184.537C118.743 184.537 118.743 184.537 118.743 184.537C118.743 184.537 118.743 184.537 118.743 184.537C118.743 184.537 118.743 184.537 118.743 184.537C118.743 184.537 118.743 184.537 118.743 184.537C118.743 184.537 118.743 184.537 118.743 184.537C118.743 184.537 118.743 184.537 118.743 184.537C118.743 184.537 118.743 184.537 118.743 184.537C118.743 184.537 118.743 184.537 118.743 184.537C118.743 184.537 118.743 184.537 118.743 184.537C118.743 184.537 118.743 184.537 118.743 184.537C118.743 184.537 118.743 184.537 118.743 184.537C118.743 184.537 118.743 184.537 118.743 184.537C118.743 184.537 118.743 184.537 118.743 184.537C118.743 184.537 118.743 184.537 118.743 184.537C118.743 184.537 118.743 184.537 118.743 184.537C118.743 184.537 118.743 184.537 118.743 184.537C118.743 184.537 118.743 184.537 118.743 184.537C118.743 184.537 118.743 184.537 118.743 184.537C118.743 184.537 118.743 184.537 118.743 184.537C118.743 184.537 118.743 184.537 118.743 184.537C118.743 184.537 118.743 184.537 118.743 184.537C118.743 184.537 118.743 184.537 118.743 184.537C118.743 184.537 118.743 184.537 118.743 184.537V183.537ZM1.54174 93.2069C1.54174 70.9049 9.98287 50.4569 24.0248 34.5544L23.2752 33.8925C9.08246 49.9658 0.541743 70.6457 0.541743 93.2069H1.54174ZM24.0248 34.5544C27.6474 30.4517 31.6428 26.6517 35.9621 23.2006L35.3379 22.4194C30.9739 25.9062 26.9364 29.7461 23.2752 33.8925L24.0248 34.5544ZM35.9621 23.2006C52.9023 9.66574 74.8234 1.5 98.7759 1.5V0.5C74.594 0.5 52.4533 8.74448 35.3379 22.4194L35.9621 23.2006ZM99.6792 185.469C91.4884 184.989 83.6637 183.822 76.2637 182.028L76.0282 183C83.4885 184.808 91.3726 185.984 99.6207 186.467L99.6792 185.469ZM76.2637 182.028C34.156 171.822 5.78858 141.333 1.94825 101.649L0.952904 101.746C4.83923 141.905 33.5593 172.706 76.0282 183L76.2637 182.028ZM1.94825 101.649C1.67923 98.8692 1.54174 96.0532 1.54174 93.2069H0.541743C0.541743 96.0855 0.680784 98.9336 0.952904 101.746L1.94825 101.649ZM35.3789 22.3899C23.5976 29.99 0.212903 54.7561 0.541761 93.2112L1.54172 93.2026C1.21645 55.1662 24.3576 30.6898 35.921 23.2302L35.3789 22.3899ZM109.031 185.115C106.593 185.282 101.361 185.58 99.683 185.469L99.6169 186.467C101.379 186.583 106.694 186.277 109.099 186.113L109.031 185.115ZM68.5818 38.414C72.8203 37.9567 78.4886 39.0531 84.5281 40.1184C90.5162 41.1746 96.8391 42.192 102.233 41.4782L102.102 40.4869C96.8866 41.177 90.7173 40.1946 84.7018 39.1336C78.7378 38.0816 72.8912 36.9432 68.4745 37.4197L68.5818 38.414ZM102.233 41.4782C103.286 41.339 104.362 41.6459 105.481 42.2212C106.602 42.7979 107.713 43.6151 108.835 44.4412C109.94 45.2544 111.066 46.0832 112.164 46.6158C113.266 47.1503 114.426 47.4291 115.572 47.0283L115.242 46.0843C114.459 46.3583 113.596 46.1989 112.6 45.716C111.601 45.2314 110.553 44.4639 109.428 43.6358C108.32 42.8208 107.144 41.952 105.938 41.3319C104.729 40.7105 103.439 40.31 102.102 40.4869L102.233 41.4782ZM115.572 47.0283C116.321 46.7666 117.211 46.9997 118.315 47.6394C119.41 48.2746 120.576 49.225 121.848 50.2029C123.099 51.1641 124.441 52.1417 125.825 52.7476C127.22 53.3578 128.705 53.6122 130.212 53.0604L129.868 52.1213C128.684 52.5549 127.477 52.379 126.226 51.8315C124.966 51.2798 123.71 50.3724 122.458 49.41C121.227 48.4642 119.985 47.452 118.816 46.7743C117.655 46.1012 116.424 45.671 115.242 46.0843L115.572 47.0283ZM131.389 57.0894C131.971 59.3192 131.26 61.0548 129.992 62.9052C129.35 63.8422 128.59 64.7736 127.789 65.8189C126.996 66.8538 126.18 67.9786 125.471 69.2559L126.345 69.7415C127.019 68.5284 127.799 67.4493 128.583 66.4272C129.358 65.4154 130.155 64.4366 130.817 63.4705C132.157 61.5148 133.045 59.4729 132.357 56.8367L131.389 57.0894ZM125.471 69.2559C124.681 70.6767 124.809 72.4876 125.288 74.3655C125.772 76.2588 126.649 78.3486 127.506 80.3962C128.371 82.4629 129.217 84.4879 129.681 86.3109C130.148 88.1482 130.194 89.6597 129.6 90.763L130.48 91.2372C131.261 89.7885 131.132 87.9589 130.65 86.0644C130.164 84.1556 129.286 82.0582 128.428 80.0101C127.563 77.9429 126.719 75.9258 126.257 74.1181C125.792 72.295 125.751 70.8111 126.345 69.7415L125.471 69.2559ZM129.6 90.763C127.732 94.2307 126.094 96.083 124.481 97.0615C122.883 98.0312 121.244 98.1826 119.261 98.0959C115.272 97.9215 110.056 96.7798 101.981 100.036L102.355 100.964C110.181 97.8079 115.131 98.9163 119.218 99.095C121.273 99.1848 123.15 99.0386 125 97.9165C126.835 96.8032 128.578 94.7695 130.48 91.2372L129.6 90.763ZM101.981 100.036C99.9981 100.836 98.6062 102.396 97.2284 103.854C95.8276 105.337 94.4106 106.756 92.3258 107.531L92.6744 108.469C94.9985 107.604 96.5546 106.024 97.9552 104.541C99.3788 103.035 100.616 101.665 102.355 100.964L101.981 100.036ZM92.0001 108C92.0001 113.977 91.1061 115.477 90.7679 115.912C90.7229 115.97 90.6838 116.014 90.6436 116.059C90.6158 116.091 90.5473 116.166 90.4995 116.249C90.4349 116.361 90.3771 116.538 90.4453 116.742C90.4963 116.895 90.6003 116.998 90.6495 117.045C90.7493 117.14 90.9443 117.29 91.1568 117.466C91.3923 117.662 91.7177 117.943 92.1542 118.361L92.8459 117.639C92.3908 117.203 92.0474 116.906 91.7953 116.697C91.5201 116.468 91.4086 116.387 91.3412 116.323C91.3068 116.29 91.3621 116.33 91.3939 116.425C91.443 116.573 91.3956 116.697 91.3658 116.748C91.3528 116.771 91.3435 116.778 91.3941 116.72C91.4323 116.677 91.4908 116.611 91.5571 116.526C92.1107 115.814 93.0001 114.023 93.0001 108L92.0001 108ZM92.1542 118.361C93.164 119.328 93.4735 120.318 93.4147 121.345C93.3538 122.409 92.8952 123.547 92.2792 124.777C91.6824 125.968 90.9144 127.285 90.366 128.554C89.8101 129.842 89.4217 131.199 89.6026 132.566L90.594 132.435C90.4484 131.334 90.7543 130.178 91.2841 128.951C91.8214 127.707 92.5306 126.507 93.1733 125.224C93.7966 123.98 94.3396 122.685 94.4131 121.402C94.4887 120.081 94.0654 118.807 92.8459 117.639L92.1542 118.361ZM89.6026 132.566C89.7476 133.661 89.3349 135.358 88.5527 137.37C87.7811 139.354 86.6878 141.554 85.5675 143.612C84.4483 145.668 83.308 147.572 82.447 148.962C82.0167 149.657 81.6565 150.223 81.4042 150.616C81.278 150.812 81.1788 150.964 81.1112 151.067C81.0775 151.119 81.0516 151.158 81.0343 151.185C81.0256 151.198 81.0191 151.208 81.0148 151.214C81.0126 151.218 81.011 151.22 81.0099 151.222C81.0094 151.222 81.009 151.223 81.0087 151.223C81.0086 151.223 81.0085 151.224 81.0085 151.224C81.0084 151.224 81.0084 151.224 81.4251 151.5C81.8418 151.776 81.8419 151.776 81.842 151.776C81.8421 151.776 81.8422 151.776 81.8424 151.776C81.8427 151.775 81.8431 151.774 81.8437 151.774C81.8449 151.772 81.8467 151.769 81.849 151.766C81.8536 151.759 81.8605 151.748 81.8694 151.735C81.8873 151.707 81.9138 151.667 81.9482 151.615C82.0169 151.509 82.1175 151.355 82.245 151.157C82.5001 150.76 82.8635 150.189 83.2973 149.489C84.1646 148.088 85.315 146.167 86.4458 144.09C87.5754 142.015 88.6912 139.773 89.4847 137.732C90.2675 135.719 90.7757 133.807 90.594 132.435L89.6026 132.566ZM80.9423 151.37C80.5542 152.811 79.5755 155.127 77.911 157.323C76.2483 159.517 73.9237 161.563 70.8509 162.523L71.1492 163.477C74.4764 162.437 76.9602 160.233 78.708 157.927C80.4538 155.623 81.4877 153.19 81.9079 151.63L80.9423 151.37ZM71.3398 162.633C70.1551 161.536 69.0398 160.996 67.9105 160.789C66.7975 160.586 65.7089 160.714 64.6122 160.881C62.4142 161.216 60.0341 161.731 56.6682 160.529L56.3318 161.471C59.9659 162.769 62.5858 162.201 64.7628 161.869C65.8537 161.703 66.7963 161.602 67.7303 161.773C68.6478 161.941 69.5951 162.38 70.6604 163.367L71.3398 162.633ZM56.2931 160.545C55.4778 160.915 53.9122 161.167 51.8985 161.149C49.9046 161.131 47.5326 160.85 45.1393 160.206C40.3367 158.912 35.5523 156.186 33.4596 151.303L32.5404 151.697C34.8059 156.983 39.9381 159.84 44.8793 161.171C47.3579 161.839 49.8146 162.13 51.8897 162.149C53.9451 162.167 55.6889 161.918 56.7069 161.455L56.2931 160.545ZM33.4596 151.303C31.9702 147.828 30.0803 142.917 27.8197 138.521C26.6874 136.32 25.4529 134.228 24.1148 132.492C22.7802 130.76 21.319 129.35 19.7236 128.553L19.2764 129.447C20.681 130.15 22.0323 131.428 23.3227 133.102C24.6097 134.772 25.8126 136.805 26.9304 138.979C29.1697 143.333 31.0299 148.172 32.5404 151.697L33.4596 151.303ZM19.7236 128.553C18.7641 128.073 18.2149 126.943 18.075 125.182C17.9366 123.44 18.215 121.228 18.7505 118.834C19.8196 114.054 21.8803 108.688 23.4556 105.206L22.5445 104.794C20.953 108.312 18.8638 113.746 17.7746 118.616C17.2308 121.047 16.928 123.372 17.0781 125.261C17.2268 127.132 17.8359 128.727 19.2764 129.447L19.7236 128.553ZM22.7927 35.9054C24.2807 34.8307 26.5543 33.3491 28.5427 32.3876C29.5435 31.9037 30.4324 31.5714 31.0966 31.471C31.4295 31.4206 31.661 31.4359 31.8083 31.4841C31.9332 31.5249 31.9959 31.5861 32.0358 31.6857L32.9642 31.3143C32.8041 30.914 32.498 30.6574 32.119 30.5335C31.7624 30.417 31.3549 30.4205 30.9471 30.4822C30.1301 30.6057 29.1315 30.9922 28.1073 31.4874C26.0457 32.4843 23.7193 34.0026 22.2073 35.0947L22.7927 35.9054ZM32.0358 31.6857C32.5317 32.9256 33.1684 34.5818 33.9979 36.1131C34.8224 37.6353 35.8751 39.1082 37.2428 39.9287L37.7572 39.0713C36.6249 38.3918 35.6776 37.1147 34.8771 35.6369C34.0816 34.1682 33.4683 32.5744 32.9642 31.3143L32.0358 31.6857ZM37.2428 39.9287C37.6181 40.1539 38.1508 40.3401 38.7657 40.4988C39.3897 40.6599 40.1346 40.8016 40.9575 40.9242C42.6039 41.1696 44.5903 41.3427 46.6016 41.437C48.6135 41.5313 50.6595 41.5471 52.4263 41.4762C54.1793 41.4057 55.7002 41.2485 56.6374 40.9808L56.3626 40.0192C55.5498 40.2515 54.1332 40.4068 52.3862 40.477C50.653 40.5466 48.6365 40.5312 46.6484 40.438C44.6597 40.3448 42.7086 40.1741 41.105 39.9351C40.3029 39.8156 39.5947 39.68 39.0156 39.5305C38.4274 39.3787 38.0069 39.2211 37.7572 39.0713L37.2428 39.9287ZM56.6374 40.9808C58.3799 40.4829 60.744 39.8608 63.0432 39.3637C65.3546 38.8639 67.5585 38.5 69 38.5V37.5C67.4415 37.5 65.1454 37.8861 62.8318 38.3863C60.506 38.8892 58.1201 39.5171 56.3626 40.0192L56.6374 40.9808ZM0.609566 86.8123C1.62822 88.0857 3.30718 89.7751 5.02639 90.6347C5.88681 91.0649 6.81898 91.3183 7.70844 91.1385C8.6265 90.953 9.39487 90.3283 9.94721 89.2236L9.05279 88.7764C8.60513 89.6717 8.061 90.047 7.51031 90.1583C6.93102 90.2754 6.23819 90.1226 5.47361 89.7403C3.94282 88.9749 2.37178 87.4143 1.39043 86.1877L0.609566 86.8123ZM9.94721 89.2236C10.5533 88.0114 11.1419 87.4187 11.6391 87.1998C12.0888 87.0017 12.5545 87.0721 13.075 87.4625C13.6141 87.8668 14.1657 88.5888 14.6812 89.5819C15.1925 90.5669 15.6496 91.7822 16.0176 93.1316L16.9824 92.8684C16.6004 91.4678 16.12 90.1831 15.5688 89.1212C15.0218 88.0674 14.3859 87.1957 13.675 86.6625C12.9455 86.1154 12.0987 85.9046 11.2359 86.2846C10.4206 86.6438 9.69668 87.4886 9.05279 88.7764L9.94721 89.2236ZM16.0176 93.1316C16.4306 94.6457 17.329 95.6368 18.3302 96.398C18.8263 96.7753 19.3526 97.0997 19.8549 97.4013C20.3648 97.7074 20.8422 97.9856 21.2786 98.2866C22.1462 98.8849 22.7587 99.5125 22.9743 100.427C23.1941 101.36 23.0282 102.703 22.0476 104.787L22.9524 105.213C23.9718 103.047 24.2434 101.453 23.9476 100.198C23.6476 98.925 22.7913 98.1151 21.8464 97.4634C21.3766 97.1394 20.8618 96.8394 20.3697 96.544C19.8701 96.244 19.3846 95.9435 18.9354 95.602C18.046 94.9257 17.3194 94.1043 16.9824 92.8684L16.0176 93.1316ZM167.3 127.1C165.585 125.813 162.683 124.27 159.521 123.818C156.338 123.362 152.86 124.014 150.122 127.173L150.878 127.828C153.34 124.986 156.445 124.388 159.379 124.808C162.334 125.23 165.082 126.687 166.7 127.9L167.3 127.1ZM150.122 127.173C146.783 131.026 145.885 134.761 145.441 138.313C144.994 141.892 145.003 145.134 143.546 148.29L144.454 148.71C145.997 145.366 146.006 141.858 146.434 138.437C146.865 134.989 147.718 131.474 150.878 127.828L150.122 127.173ZM143.546 148.29C143.116 149.222 143.112 150.094 143.475 150.888C143.827 151.655 144.498 152.297 145.313 152.851C146.937 153.955 149.347 154.851 151.702 155.719C154.097 156.601 156.445 157.458 158.077 158.486C158.891 158.998 159.481 159.526 159.814 160.078C160.134 160.609 160.229 161.181 160.022 161.853L160.978 162.147C161.271 161.194 161.132 160.328 160.671 159.562C160.222 158.818 159.484 158.189 158.61 157.639C156.868 156.542 154.403 155.649 152.048 154.781C149.653 153.899 147.376 153.045 145.875 152.024C145.128 151.516 144.627 151.001 144.384 150.472C144.154 149.969 144.134 149.403 144.454 148.71L143.546 148.29ZM166.776 127.947C168.957 129.037 172.5 130.646 176.055 131.933C177.832 132.576 179.621 133.142 181.249 133.523C182.867 133.901 184.365 134.105 185.545 133.998L185.455 133.002C184.435 133.095 183.062 132.92 181.476 132.549C179.9 132.181 178.151 131.628 176.395 130.992C172.884 129.721 169.377 128.129 167.224 127.053L166.776 127.947Z" fill="black"/>
</svg>
