<svg width="197" height="187" viewBox="0 0 197 187" fill="none" xmlns="http://www.w3.org/2000/svg">
<path d="M34.9983 155.584L35.4979 155.564L34.9983 155.584ZM40.6279 167.087L40.1607 166.909L40.0048 167.317L40.389 167.526L40.6279 167.087ZM69.8772 157.403L70.0849 157.857L70.2277 157.792L70.3076 157.657L69.8772 157.403ZM76.2812 150.438L76.0134 150.016L76.0131 150.016L76.2812 150.438ZM64.8157 114.372L64.4389 114.701L64.5226 114.797L64.6422 114.841L64.8157 114.372ZM38.0347 107.948L37.948 108.44L37.9663 108.444L37.9847 108.445L38.0347 107.948ZM28.577 122.388L28.1556 122.119L28.0332 122.31L28.0973 122.529L28.577 122.388ZM35.1244 141.251L34.7376 140.934L34.631 141.064L34.6247 141.232L35.1244 141.251ZM51.5 173L51.2611 173.439L51.5003 173.569L51.7394 173.439L51.5 173ZM97.6512 41.7699C97.9144 41.6862 98.0598 41.405 97.9761 41.1419C97.8924 40.8787 97.6112 40.7333 97.348 40.817L97.6512 41.7699ZM39.4109 61.3738L39.5849 61.8425L39.7 61.7998L39.7822 61.7087L39.4109 61.3738ZM43.7698 80.803L43.3865 81.1241L43.4571 81.2084L43.5567 81.2553L43.7698 80.803ZM77.2013 97.0422C77.4764 97.0653 77.7182 96.8608 77.7412 96.5857C77.7642 96.3105 77.5598 96.0687 77.2846 96.0457L77.2013 97.0422ZM173.751 151.539C173.569 151.746 173.59 152.062 173.797 152.244C174.005 152.426 174.321 152.406 174.503 152.198L173.751 151.539ZM92.7468 7.21443L93.214 7.03628L93.2136 7.03531L92.7468 7.21443ZM76.456 7.21443L76.1964 7.64172L76.407 7.76973L76.6368 7.68061L76.456 7.21443ZM72.3401 4.12796C72.1042 3.98454 71.7966 4.05958 71.6532 4.29556C71.5098 4.53154 71.5848 4.8391 71.8208 4.98252L72.3401 4.12796ZM187.226 134.264C187.373 134.03 187.302 133.722 187.068 133.575C186.834 133.428 186.526 133.499 186.379 133.733L187.226 134.264ZM174.169 152.446L174.552 152.767L174.56 152.757L174.169 152.446ZM121.345 183.956C121.614 183.892 121.78 183.622 121.716 183.354C121.652 183.085 121.382 182.919 121.114 182.983L121.345 183.956ZM109.027 185.614L108.97 185.117L108.964 185.118L109.027 185.614ZM75.1091 182.284C74.8541 182.39 74.7332 182.683 74.839 182.938C74.9449 183.193 75.2375 183.314 75.4925 183.208L75.1091 182.284ZM23.6116 34.2234L23.2368 33.8925L23.2368 33.8925L23.6116 34.2234ZM99.6116 185.968L99.5824 186.467L99.5984 186.468L99.6145 186.468L99.6116 185.968ZM1.41225 101.697L1.90992 101.649L1.41225 101.697ZM147.442 28.0385L147.631 28.5017L147.631 28.5017L147.442 28.0385ZM173.5 34.0296C173.776 34.0296 174 33.8058 174 33.5296C174 33.2535 173.776 33.0296 173.5 33.0296L173.5 34.0296ZM186.996 69.4408L186.51 69.322L186.51 69.322L186.996 69.4408ZM162.408 85.6437L162.705 86.0455L162.705 86.0455L162.408 85.6437ZM154.936 95.3337L154.65 94.9239L154.365 95.1231L154.452 95.4594L154.936 95.3337ZM157.451 105.012L157.695 104.576L157.695 104.576L157.451 105.012ZM155.155 140.221L154.682 140.058L154.656 140.135L154.655 140.216L155.155 140.221ZM147.956 153.973L147.72 154.413L147.975 154.55L148.221 154.397L147.956 153.973ZM133.419 155.683L133.464 155.185L133.262 155.167L133.105 155.294L133.419 155.683ZM108.286 152.397L108.681 152.091L108.286 152.397ZM89.5618 134.014L89.062 134L89.0551 134.235L89.2317 134.39L89.5618 134.014ZM86.9148 103.793L86.481 104.042L86.5002 104.075L86.5243 104.106L86.9148 103.793ZM77.6286 36.3779L77.226 36.6744L77.226 36.6744L77.6286 36.3779ZM34.4987 155.604C34.6675 159.781 36.5119 161.883 38.1024 163.365C38.5203 163.754 38.8397 164.029 39.1851 164.355C39.508 164.66 39.7678 164.932 39.9581 165.201C40.1455 165.466 40.256 165.715 40.2944 165.973C40.3326 166.229 40.3053 166.53 40.1607 166.909L41.095 167.265C41.2899 166.754 41.3512 166.279 41.2835 165.825C41.2161 165.373 41.0261 164.98 40.7746 164.624C40.526 164.272 40.2084 163.946 39.8716 163.628C39.5573 163.331 39.1346 162.96 38.7841 162.633C37.3013 161.251 35.6522 159.381 35.4979 155.564L34.4987 155.604ZM70.3076 157.657C71.8306 155.081 73.7612 152.631 76.5492 150.86L76.0131 150.016C73.0441 151.901 71.0151 154.495 69.4468 157.148L70.3076 157.657ZM76.5489 150.861C78.9199 149.357 80.3723 147.801 81.1981 146.158C82.0247 144.514 82.1985 142.832 82.0972 141.124C81.997 139.435 81.6213 137.665 81.3267 135.888C81.0288 134.09 80.804 132.24 80.9678 130.295L79.9713 130.211C79.7969 132.282 80.0383 134.23 80.3402 136.051C80.6454 137.893 81.0029 139.564 81.0989 141.183C81.1938 142.782 81.0267 144.273 80.3046 145.709C79.5816 147.147 78.2775 148.58 76.0134 150.016L76.5489 150.861ZM80.9678 130.295C81.3152 126.166 80.4224 123.163 77.8165 120.633C75.2583 118.149 71.082 116.157 64.9892 113.903L64.6422 114.841C70.7414 117.098 74.73 119.03 77.1199 121.35C79.4619 123.624 80.3 126.305 79.9713 130.211L80.9678 130.295ZM38.1214 107.456C35.6696 107.024 33.9288 107.409 32.6959 108.422C31.4848 109.418 30.8602 110.944 30.4579 112.575C30.0581 114.196 29.8501 116.062 29.562 117.732C29.2668 119.442 28.8847 120.977 28.1556 122.119L28.9984 122.657C29.8442 121.332 30.2505 119.622 30.5474 117.902C30.8513 116.141 31.0392 114.394 31.4288 112.814C31.8161 111.244 32.3748 109.981 33.3308 109.195C34.2649 108.427 35.675 108.04 37.948 108.44L38.1214 107.456ZM28.0973 122.529C29.8918 128.64 32.5255 132.252 34.1877 134.864C35.0284 136.185 35.5742 137.184 35.7145 138.11C35.8468 138.982 35.6242 139.852 34.7376 140.934L35.5112 141.568C36.532 140.321 36.8875 139.176 36.7032 137.96C36.527 136.797 35.8616 135.632 35.0314 134.327C33.3516 131.688 30.8041 128.197 29.0567 122.247L28.0973 122.529ZM35.1244 141.251C34.6247 141.232 34.6247 141.232 34.6247 141.232C34.6247 141.232 34.6247 141.233 34.6247 141.233C34.6247 141.233 34.6247 141.233 34.6246 141.234C34.6246 141.235 34.6245 141.237 34.6245 141.239C34.6243 141.243 34.6241 141.25 34.6237 141.259C34.6231 141.276 34.6221 141.302 34.6209 141.336C34.6185 141.404 34.6149 141.504 34.6105 141.633C34.6016 141.891 34.5892 142.266 34.5749 142.732C34.5464 143.665 34.5105 144.963 34.4814 146.426C34.4232 149.35 34.3913 152.947 34.4987 155.604L35.4979 155.564C35.3918 152.939 35.423 149.368 35.4812 146.446C35.5102 144.987 35.546 143.693 35.5744 142.763C35.5886 142.298 35.601 141.925 35.6099 141.667C35.6143 141.539 35.6179 141.439 35.6203 141.372C35.6215 141.338 35.6224 141.313 35.6231 141.295C35.6234 141.287 35.6236 141.28 35.6238 141.276C35.6239 141.274 35.6239 141.272 35.624 141.271C35.624 141.271 35.624 141.27 35.624 141.27C35.624 141.27 35.624 141.27 35.624 141.27C35.624 141.27 35.624 141.27 35.1244 141.251ZM37.9847 108.445C41.8415 108.833 47.8049 109.617 53.1547 110.713C55.8307 111.26 58.3407 111.883 60.3525 112.569C61.3585 112.911 62.2302 113.267 62.9315 113.631C63.6393 113.999 64.1414 114.36 64.4389 114.701L65.1925 114.043C64.7757 113.565 64.1469 113.135 63.3925 112.744C62.6315 112.348 61.7093 111.974 60.6751 111.622C58.6065 110.917 56.0504 110.285 53.3553 109.733C47.963 108.629 41.9644 107.84 38.0846 107.45L37.9847 108.445ZM69.6695 156.948C68.3313 157.559 66.2095 158.698 64.1654 160.143C62.1331 161.579 60.1191 163.356 59.0629 165.257L59.9371 165.743C60.8809 164.044 62.7426 162.372 64.7425 160.959C66.7305 159.555 68.7973 158.445 70.0849 157.857L69.6695 156.948ZM59.0629 165.257C58.103 166.985 56.6097 168.565 55.1126 169.845C53.6179 171.123 52.1465 172.078 51.2606 172.561L51.7394 173.439C52.6868 172.922 54.2154 171.927 55.7624 170.605C57.307 169.285 58.897 167.615 59.9371 165.743L59.0629 165.257ZM51.7389 172.561L40.8668 166.648L40.389 167.526L51.2611 173.439L51.7389 172.561ZM97.348 40.817C91.894 42.5524 88.2099 42.7387 85.6513 42.2183C83.1121 41.7018 81.6356 40.48 80.6047 39.2856C80.0784 38.6758 79.678 38.0861 79.2855 37.5563C78.9165 37.0582 78.5196 36.5598 78.0348 36.3033C77.7749 36.1657 77.4863 36.0943 77.1689 36.1215C76.8584 36.1481 76.5539 36.2661 76.2506 36.4529C75.6568 36.8185 74.9849 37.5003 74.1622 38.5356L74.9451 39.1577C75.7555 38.1379 76.3378 37.5735 76.7749 37.3044C76.9869 37.1738 77.1418 37.1275 77.2543 37.1178C77.3599 37.1088 77.4577 37.1293 77.5671 37.1871C77.821 37.3215 78.0942 37.6281 78.4819 38.1515C78.8462 38.6432 79.289 39.2916 79.8477 39.939C80.9868 41.2588 82.647 42.6277 85.452 43.1982C88.2377 43.7648 92.1053 43.5345 97.6512 41.7699L97.348 40.817ZM74.1622 38.5356C72.552 40.562 71.3896 41.4779 70.3881 41.9302C69.3786 42.3861 68.4978 42.3959 67.2871 42.5114C66.0829 42.6263 64.6753 42.8461 62.7881 43.7728C60.9133 44.6933 58.5846 46.3015 55.5076 49.1621L56.1885 49.8945C59.2227 47.0737 61.4711 45.5335 63.2288 44.6704C64.9741 43.8134 66.2542 43.6145 67.3821 43.5069C68.5035 43.3999 69.5992 43.3837 70.7997 42.8415C72.0081 42.2958 73.2892 41.2416 74.9451 39.1577L74.1622 38.5356ZM55.5076 49.1621C49.4206 54.8213 46.7028 56.2527 44.8668 57.0186C43.9584 57.3975 43.1475 57.6542 42.2683 58.1808C41.3724 58.7174 40.4001 59.5304 39.0396 61.0389L39.7822 61.7087C41.1059 60.241 42.0025 59.5056 42.7821 59.0387C43.5786 58.5616 44.2497 58.3595 45.2518 57.9415C47.2368 57.1135 50.0535 55.5983 56.1885 49.8945L55.5076 49.1621ZM43.5567 81.2553C47.4181 83.0748 48.9801 84.7846 50.4766 86.9048C51.9972 89.0591 53.4865 91.7062 57.133 95.25L57.83 94.5329C54.2694 91.0726 52.8524 88.5366 51.2936 86.3282C49.7108 84.0857 48.0206 82.2533 43.9829 80.3507L43.5567 81.2553ZM57.133 95.25C58.954 97.0196 60.3691 97.9946 61.6838 98.4311C63.0197 98.8747 64.1927 98.7424 65.4661 98.436C67.9721 97.8329 71.0141 96.5248 77.2013 97.0422L77.2846 96.0457C70.8963 95.5115 67.6612 96.8792 65.2321 97.4637C64.038 97.7511 63.0789 97.8406 61.9989 97.482C60.8975 97.1164 59.6126 96.2652 57.83 94.5329L57.133 95.25ZM44.1531 80.482C41.9287 77.8263 39.061 73.6939 37.651 69.9187C36.9442 68.0262 36.6275 66.2853 36.8857 64.8864C37.1355 63.5329 37.929 62.4572 39.5849 61.8425L39.2369 60.905C37.2571 61.6399 36.2173 62.9986 35.9023 64.7049C35.5957 66.3659 35.9827 68.3101 36.7142 70.2686C38.1808 74.1952 41.1282 78.428 43.3865 81.1241L44.1531 80.482ZM98.7376 1.5C116.38 1.5 132.919 5.9281 147.178 13.6674L147.655 12.7885C133.251 4.97066 116.548 0.5 98.7376 0.5V1.5ZM147.178 13.6674C176.36 29.5065 195.982 59.2063 195.982 93.2069H196.982C196.982 58.8049 177.127 28.7853 147.655 12.7885L147.178 13.6674ZM195.982 93.2069C195.982 110.46 190.935 126.596 182.14 140.376L182.983 140.914C191.876 126.98 196.982 110.659 196.982 93.2069H195.982ZM182.14 140.376C181.562 141.282 180.967 142.179 180.356 143.065L181.179 143.632C181.797 142.737 182.398 141.83 182.983 140.914L182.14 140.376ZM180.356 143.065C178.325 146.01 176.119 148.839 173.751 151.539L174.503 152.198C176.896 149.47 179.126 146.61 181.179 143.632L180.356 143.065ZM146.935 13.3654C147.328 14.739 147.501 15.6292 147.522 16.1656C147.532 16.4396 147.499 16.5606 147.483 16.5969C147.478 16.6077 147.484 16.5886 147.514 16.5665C147.546 16.5431 147.577 16.5364 147.59 16.5352C147.595 16.5348 147.531 16.5365 147.365 16.4541C147.211 16.3777 147.02 16.2548 146.79 16.0853C146.332 15.7457 145.785 15.2679 145.17 14.7306C143.97 13.6825 142.512 12.4034 141.173 11.7871C140.501 11.4776 139.78 11.2968 139.099 11.4688C138.388 11.6484 137.843 12.1791 137.472 13.0277L138.388 13.4281C138.674 12.7734 139.016 12.5211 139.344 12.4383C139.701 12.3481 140.169 12.4256 140.755 12.6955C141.934 13.2381 143.274 14.402 144.512 15.4836C145.116 16.0113 145.697 16.52 146.196 16.8891C146.445 17.0739 146.69 17.2358 146.92 17.3498C147.138 17.4578 147.404 17.5553 147.677 17.5314C147.824 17.5186 147.973 17.4702 148.107 17.3723C148.238 17.2756 148.329 17.149 148.391 17.0161C148.507 16.7651 148.534 16.4546 148.521 16.1276C148.496 15.4621 148.292 14.473 147.897 13.0904L146.935 13.3654ZM137.472 13.0277C137.19 13.6737 136.793 14.0442 136.316 14.248C135.822 14.459 135.195 14.5112 134.432 14.4226C132.89 14.2434 131.004 13.5209 128.975 12.7598C126.986 12.0134 124.87 11.2351 122.98 11.0393C121.066 10.8411 119.271 11.2324 118.076 12.9414L118.896 13.5144C119.803 12.2167 121.161 11.8563 122.877 12.034C124.616 12.214 126.606 12.9391 128.624 13.6961C130.602 14.4384 132.624 15.2192 134.317 15.4159C135.171 15.5151 135.994 15.4734 136.709 15.1676C137.441 14.8546 138.014 14.2855 138.388 13.4281L137.472 13.0277ZM118.076 12.9414C116.109 15.7562 112.371 16.8671 108.524 17.2404C104.678 17.6136 100.968 17.238 99.0529 17.238V18.238C100.817 18.238 104.721 18.6141 108.621 18.2357C112.52 17.8573 116.66 16.7131 118.896 13.5144L118.076 12.9414ZM99.0529 17.238C98.2634 17.238 97.6612 16.9753 97.1513 16.5023C96.6255 16.0146 96.1826 15.2885 95.7664 14.3421C95.3513 13.3982 94.9809 12.2791 94.5774 11.0305C94.1764 9.78969 93.7451 8.42909 93.214 7.03628L92.2796 7.39259C92.7995 8.75597 93.2222 10.0889 93.6259 11.338C94.027 12.5794 94.4121 13.7467 94.851 14.7447C95.2887 15.7401 95.7983 16.6113 96.4713 17.2355C97.1602 17.8744 98.0032 18.238 99.0529 18.238V17.238ZM93.2136 7.03531C92.7163 5.7392 91.6222 4.99224 90.2887 4.61497C88.9654 4.24055 87.3542 4.21162 85.6915 4.37534C82.3605 4.70332 78.6643 5.82178 76.2753 6.74826L76.6368 7.68061C78.9773 6.77297 82.5805 5.68649 85.7895 5.37052C87.3967 5.21227 88.8657 5.25161 90.0165 5.5772C91.1572 5.89995 91.9313 6.48472 92.28 7.39356L93.2136 7.03531ZM76.7157 6.78715L72.3401 4.12796L71.8208 4.98252L76.1964 7.64172L76.7157 6.78715ZM186.379 133.733C185.154 135.684 183.718 137.963 182.143 140.371L182.98 140.918C184.561 138.502 186.001 136.216 187.226 134.264L186.379 133.733ZM182.143 140.371C181.564 141.257 180.966 142.159 180.353 143.069L181.182 143.628C181.798 142.714 182.399 141.807 182.98 140.918L182.143 140.371ZM180.353 143.069C178.284 146.139 176.046 149.288 173.778 152.134L174.56 152.757C176.851 149.883 179.105 146.71 181.182 143.628L180.353 143.069ZM121.114 182.983C120.284 183.18 119.446 183.369 118.602 183.547L118.809 184.526C119.661 184.345 120.507 184.155 121.345 183.956L121.114 182.983ZM118.602 183.547C115.476 184.209 112.255 184.741 108.97 185.117L109.084 186.111C112.402 185.73 115.653 185.194 118.809 184.526L118.602 183.547ZM118.851 183.558C118.373 183.412 117.448 183.263 116.23 183.114C114.995 182.963 113.418 182.808 111.605 182.655C107.978 182.35 103.396 182.057 98.7093 181.842C94.0227 181.627 89.2259 181.49 85.1693 181.497C81.131 181.503 77.7759 181.652 76.0047 182.025L76.2105 183.003C77.8645 182.656 81.117 182.503 85.171 182.497C89.2066 182.49 93.9866 182.627 98.6635 182.841C103.34 183.056 107.909 183.348 111.521 183.652C113.327 183.804 114.891 183.958 116.108 184.107C117.341 184.258 118.178 184.398 118.559 184.515L118.851 183.558ZM76.0047 182.025C75.6596 182.097 75.3551 182.182 75.1091 182.284L75.4925 183.208C75.6581 183.139 75.8955 183.07 76.2105 183.003L76.0047 182.025ZM173.786 152.124C166.543 160.755 145.342 179.144 118.624 183.543L118.786 184.53C145.818 180.08 167.215 161.51 174.552 152.767L173.786 152.124ZM118.705 183.537C118.705 183.537 118.705 183.537 118.705 183.537C118.705 183.537 118.705 183.537 118.705 183.537C118.705 183.537 118.705 183.537 118.705 183.537C118.705 183.537 118.705 183.537 118.705 183.537C118.705 183.537 118.705 183.537 118.705 183.537C118.705 183.537 118.705 183.537 118.705 183.537C118.705 183.537 118.705 183.537 118.705 183.537C118.705 183.537 118.705 183.537 118.705 183.537C118.705 183.537 118.705 183.537 118.705 183.537C118.705 183.537 118.705 183.537 118.705 183.537C118.705 183.537 118.705 183.537 118.705 183.537C118.705 183.537 118.705 183.537 118.705 183.537C118.705 183.537 118.705 183.537 118.705 183.537C118.705 183.537 118.705 183.537 118.705 183.537C118.705 183.537 118.705 183.537 118.705 183.537C118.705 183.537 118.705 183.537 118.705 183.537C118.705 183.537 118.705 183.537 118.705 183.537C118.705 183.537 118.705 183.537 118.705 183.537C118.705 183.537 118.705 183.537 118.705 183.537C118.705 183.537 118.705 183.537 118.705 183.537C118.705 183.537 118.705 183.537 118.705 183.537C118.705 183.537 118.705 183.537 118.705 183.537C118.705 183.537 118.705 183.537 118.705 183.537C118.705 183.537 118.705 183.537 118.705 183.537C118.705 183.537 118.705 183.537 118.705 183.537C118.705 183.537 118.705 183.537 118.705 183.537C118.705 183.537 118.705 183.537 118.705 183.537C118.705 183.537 118.705 183.537 118.705 183.537C118.705 183.537 118.705 183.537 118.705 183.537C118.705 183.537 118.705 183.537 118.705 183.537C118.705 183.537 118.705 183.537 118.705 183.537C118.705 183.537 118.705 183.537 118.705 183.537C118.705 183.537 118.705 183.537 118.705 183.537C118.705 183.537 118.705 183.537 118.705 183.537C118.705 183.537 118.705 183.537 118.705 183.537C118.705 183.537 118.705 183.537 118.705 183.537C118.705 183.537 118.705 183.537 118.705 183.537C118.705 183.537 118.705 183.537 118.705 183.537C118.705 183.537 118.705 183.537 118.705 183.537C118.705 183.537 118.705 183.537 118.705 183.537C118.705 183.537 118.705 183.537 118.705 183.537C118.705 183.537 118.705 183.537 118.705 183.537C118.705 183.537 118.705 183.537 118.705 183.537C118.705 183.537 118.705 183.537 118.705 183.537C118.705 183.537 118.705 183.537 118.705 183.537C118.705 183.537 118.705 183.537 118.705 183.537C118.705 183.537 118.705 183.537 118.705 183.537C118.705 183.537 118.705 183.537 118.705 183.537C118.705 183.537 118.705 183.537 118.705 183.537C118.705 183.537 118.705 183.537 118.705 183.537C118.705 183.537 118.705 183.537 118.705 183.537C118.705 183.537 118.705 183.537 118.705 183.537C118.705 183.537 118.705 183.537 118.705 183.537C118.705 183.537 118.705 183.537 118.705 183.537C118.705 183.537 118.705 183.537 118.705 183.537C118.705 183.537 118.705 183.537 118.705 183.537C118.705 183.537 118.705 183.537 118.705 183.537C118.705 183.537 118.705 183.537 118.705 183.537C118.705 183.537 118.705 183.537 118.705 183.537C118.705 183.537 118.705 183.537 118.705 183.537C118.705 183.537 118.705 183.537 118.705 183.537C118.705 183.537 118.705 183.537 118.705 183.537C118.705 183.537 118.705 183.537 118.705 183.537C118.705 183.537 118.705 183.537 118.705 183.537C118.705 183.537 118.705 183.537 118.705 183.537C118.705 183.537 118.705 183.537 118.705 183.537C118.705 183.537 118.705 183.537 118.705 183.537C118.705 183.537 118.705 183.537 118.705 183.537C118.705 183.537 118.705 183.537 118.705 183.537C118.705 183.537 118.705 183.537 118.705 183.537C118.705 183.537 118.705 183.537 118.705 183.537C118.705 183.537 118.705 183.537 118.705 183.537C118.705 183.537 118.705 183.537 118.705 183.537C118.705 183.537 118.705 183.537 118.705 183.537C118.705 183.537 118.705 183.537 118.705 183.537C118.705 183.537 118.705 183.537 118.705 183.537C118.705 183.537 118.705 183.537 118.705 183.537C118.705 183.537 118.705 183.537 118.705 183.537C118.705 183.537 118.705 183.537 118.705 183.537C118.705 183.537 118.705 183.537 118.705 183.537C118.705 183.537 118.705 183.537 118.705 183.537C118.705 183.537 118.705 183.537 118.705 183.537C118.705 183.537 118.705 183.537 118.705 183.537C118.705 183.537 118.705 183.537 118.705 183.537C118.705 183.537 118.705 183.537 118.705 183.537C118.705 183.537 118.705 183.537 118.705 183.537C118.705 183.537 118.705 183.537 118.705 183.537C118.705 183.537 118.705 183.537 118.705 183.537C118.705 183.537 118.705 183.537 118.705 183.537C118.705 183.537 118.705 183.537 118.705 183.537C118.705 183.537 118.705 183.537 118.705 183.537C118.705 183.537 118.705 183.537 118.705 183.537C118.705 183.537 118.705 183.537 118.705 183.537C118.705 183.537 118.705 183.537 118.705 183.537C118.705 183.537 118.705 183.537 118.705 183.537C118.705 183.537 118.705 183.537 118.705 183.537C118.705 183.537 118.705 183.537 118.705 183.537C118.705 183.537 118.705 183.537 118.705 183.537C118.705 183.537 118.705 183.537 118.705 183.537C118.705 183.537 118.705 183.537 118.705 183.537C118.705 183.537 118.705 183.537 118.705 183.537C118.705 183.537 118.705 183.537 118.705 183.537C118.705 183.537 118.705 183.537 118.705 183.537C118.705 183.537 118.705 183.537 118.705 183.537C118.705 183.537 118.705 183.537 118.705 183.537C118.705 183.537 118.705 183.537 118.705 183.537C118.705 183.537 118.705 183.537 118.705 183.537C118.705 183.537 118.705 183.537 118.705 183.537C118.705 184.037 118.705 184.537 118.705 184.537C118.705 184.537 118.705 184.537 118.705 184.537C118.705 184.537 118.705 184.537 118.705 184.537C118.705 184.537 118.705 184.537 118.705 184.537C118.705 184.537 118.705 184.537 118.705 184.537C118.705 184.537 118.705 184.537 118.705 184.537C118.705 184.537 118.705 184.537 118.705 184.537C118.705 184.537 118.705 184.537 118.705 184.537C118.705 184.537 118.705 184.537 118.705 184.537C118.705 184.537 118.705 184.537 118.705 184.537C118.705 184.537 118.705 184.537 118.705 184.537C118.705 184.537 118.705 184.537 118.705 184.537C118.705 184.537 118.705 184.537 118.705 184.537C118.705 184.537 118.705 184.537 118.705 184.537C118.705 184.537 118.705 184.537 118.705 184.537C118.705 184.537 118.705 184.537 118.705 184.537C118.705 184.537 118.705 184.537 118.705 184.537C118.705 184.537 118.705 184.537 118.705 184.537C118.705 184.537 118.705 184.537 118.705 184.537C118.705 184.537 118.705 184.537 118.705 184.537C118.705 184.537 118.705 184.537 118.705 184.537C118.705 184.537 118.705 184.537 118.705 184.537C118.705 184.537 118.705 184.537 118.705 184.537C118.705 184.537 118.705 184.537 118.705 184.537C118.705 184.537 118.705 184.537 118.705 184.537C118.705 184.537 118.705 184.537 118.705 184.537C118.705 184.537 118.705 184.537 118.705 184.537C118.705 184.537 118.705 184.537 118.705 184.537C118.705 184.537 118.705 184.537 118.705 184.537C118.705 184.537 118.705 184.537 118.705 184.537C118.705 184.537 118.705 184.537 118.705 184.537C118.705 184.537 118.705 184.537 118.705 184.537C118.705 184.537 118.705 184.537 118.705 184.537C118.705 184.537 118.705 184.537 118.705 184.537C118.705 184.537 118.705 184.537 118.705 184.537C118.705 184.537 118.705 184.537 118.705 184.537C118.705 184.537 118.705 184.537 118.705 184.537C118.705 184.537 118.705 184.537 118.705 184.537C118.705 184.537 118.705 184.537 118.705 184.537C118.705 184.537 118.705 184.537 118.705 184.537C118.705 184.537 118.705 184.537 118.705 184.537C118.705 184.537 118.705 184.537 118.705 184.537C118.705 184.537 118.705 184.537 118.705 184.537C118.705 184.537 118.705 184.537 118.705 184.537C118.705 184.537 118.705 184.537 118.705 184.537C118.705 184.537 118.705 184.537 118.705 184.537C118.705 184.537 118.705 184.537 118.705 184.537C118.705 184.537 118.705 184.537 118.705 184.537C118.705 184.537 118.705 184.537 118.705 184.537C118.705 184.537 118.705 184.537 118.705 184.537C118.705 184.537 118.705 184.537 118.705 184.537C118.705 184.537 118.705 184.537 118.705 184.537C118.705 184.537 118.705 184.537 118.705 184.537C118.705 184.537 118.705 184.537 118.705 184.537C118.705 184.537 118.705 184.537 118.705 184.537C118.705 184.537 118.705 184.537 118.705 184.537C118.705 184.537 118.705 184.537 118.705 184.537C118.705 184.537 118.705 184.537 118.705 184.537C118.705 184.537 118.705 184.537 118.705 184.537C118.705 184.537 118.705 184.537 118.705 184.537C118.705 184.537 118.705 184.537 118.705 184.537C118.705 184.537 118.705 184.537 118.705 184.537C118.705 184.537 118.705 184.537 118.705 184.537C118.705 184.537 118.705 184.537 118.705 184.537C118.705 184.537 118.705 184.537 118.705 184.537C118.705 184.537 118.705 184.537 118.705 184.537C118.705 184.537 118.705 184.537 118.705 184.537C118.705 184.537 118.705 184.537 118.705 184.537C118.705 184.537 118.705 184.537 118.705 184.537C118.705 184.537 118.705 184.537 118.705 184.537C118.705 184.537 118.705 184.537 118.705 184.537C118.705 184.537 118.705 184.537 118.705 184.537C118.705 184.537 118.705 184.537 118.705 184.537C118.705 184.537 118.705 184.537 118.705 184.537C118.705 184.537 118.705 184.537 118.705 184.537C118.705 184.537 118.705 184.537 118.705 184.537C118.705 184.537 118.705 184.537 118.705 184.537C118.705 184.537 118.705 184.537 118.705 184.537C118.705 184.537 118.705 184.537 118.705 184.537C118.705 184.537 118.705 184.537 118.705 184.537C118.705 184.537 118.705 184.537 118.705 184.537C118.705 184.537 118.705 184.537 118.705 184.537C118.705 184.537 118.705 184.537 118.705 184.537C118.705 184.537 118.705 184.537 118.705 184.537C118.705 184.537 118.705 184.537 118.705 184.537C118.705 184.537 118.705 184.537 118.705 184.537C118.705 184.537 118.705 184.537 118.705 184.537C118.705 184.537 118.705 184.537 118.705 184.537C118.705 184.537 118.705 184.537 118.705 184.537C118.705 184.537 118.705 184.537 118.705 184.537C118.705 184.537 118.705 184.537 118.705 184.537C118.705 184.537 118.705 184.537 118.705 184.537C118.705 184.537 118.705 184.537 118.705 184.537C118.705 184.537 118.705 184.537 118.705 184.537C118.705 184.537 118.705 184.537 118.705 184.537C118.705 184.537 118.705 184.537 118.705 184.537C118.705 184.537 118.705 184.537 118.705 184.537C118.705 184.537 118.705 184.537 118.705 184.537C118.705 184.537 118.705 184.537 118.705 184.537C118.705 184.537 118.705 184.537 118.705 184.537C118.705 184.537 118.705 184.537 118.705 184.537C118.705 184.537 118.705 184.537 118.705 184.537C118.705 184.537 118.705 184.537 118.705 184.537C118.705 184.537 118.705 184.537 118.705 184.537C118.705 184.537 118.705 184.537 118.705 184.537C118.705 184.537 118.705 184.537 118.705 184.537C118.705 184.537 118.705 184.537 118.705 184.537C118.705 184.537 118.705 184.537 118.705 184.537C118.705 184.537 118.705 184.537 118.705 184.537C118.705 184.537 118.705 184.537 118.705 184.537C118.705 184.537 118.705 184.537 118.705 184.537C118.705 184.537 118.705 184.537 118.705 184.537C118.705 184.537 118.705 184.537 118.705 184.537C118.705 184.537 118.705 184.537 118.705 184.537C118.705 184.537 118.705 184.537 118.705 184.537C118.705 184.537 118.705 184.537 118.705 184.537C118.705 184.537 118.705 184.537 118.705 184.537C118.705 184.537 118.705 184.537 118.705 184.537C118.705 184.537 118.705 184.537 118.705 184.537C118.705 184.537 118.705 184.537 118.705 184.537C118.705 184.537 118.705 184.537 118.705 184.537C118.705 184.537 118.705 184.537 118.705 184.537C118.705 184.537 118.705 184.537 118.705 184.537C118.705 184.537 118.705 184.537 118.705 184.537C118.705 184.537 118.705 184.537 118.705 184.537C118.705 184.537 118.705 184.537 118.705 184.537C118.705 184.537 118.705 184.537 118.705 184.537C118.705 184.537 118.705 184.537 118.705 184.537C118.705 184.537 118.705 184.537 118.705 184.537C118.705 184.537 118.705 184.537 118.705 184.537C118.705 184.537 118.705 184.537 118.705 184.537C118.705 184.537 118.705 184.537 118.705 184.537C118.705 184.537 118.705 184.537 118.705 184.537C118.705 184.537 118.705 184.537 118.705 184.537C118.705 184.537 118.705 184.537 118.705 184.537C118.705 184.537 118.705 184.537 118.705 184.537C118.705 184.537 118.705 184.537 118.705 184.537C118.705 184.537 118.705 184.537 118.705 184.537C118.705 184.537 118.705 184.537 118.705 184.537C118.705 184.537 118.705 184.537 118.705 184.537C118.705 184.537 118.705 184.537 118.705 184.537C118.705 184.537 118.705 184.537 118.705 184.537C118.705 184.537 118.705 184.537 118.705 184.537C118.705 184.537 118.705 184.537 118.705 184.537C118.705 184.537 118.705 184.537 118.705 184.537C118.705 184.537 118.705 184.537 118.705 184.537C118.705 184.537 118.705 184.537 118.705 184.537C118.705 184.537 118.705 184.537 118.705 184.537C118.705 184.537 118.705 184.537 118.705 184.537C118.705 184.537 118.705 184.537 118.705 184.537C118.705 184.537 118.705 184.537 118.705 184.537C118.705 184.537 118.705 184.537 118.705 184.537C118.705 184.537 118.705 184.537 118.705 184.537C118.705 184.537 118.705 184.537 118.705 184.537C118.705 184.537 118.705 184.537 118.705 184.537C118.705 184.537 118.705 184.537 118.705 184.537C118.705 184.537 118.705 184.537 118.705 184.537C118.705 184.537 118.705 184.537 118.705 184.537C118.705 184.537 118.705 184.537 118.705 184.537C118.705 184.537 118.705 184.537 118.705 184.537C118.705 184.537 118.705 184.537 118.705 184.537C118.705 184.537 118.705 184.537 118.705 184.537C118.705 184.537 118.705 184.537 118.705 184.537C118.705 184.537 118.705 184.537 118.705 184.537C118.705 184.537 118.705 184.537 118.705 184.537C118.705 184.537 118.705 184.537 118.705 184.537C118.705 184.537 118.705 184.537 118.705 184.537C118.705 184.537 118.705 184.537 118.705 184.537C118.705 184.537 118.705 184.537 118.705 184.537C118.705 184.537 118.705 184.537 118.705 184.537C118.705 184.537 118.705 184.537 118.705 184.537C118.705 184.537 118.705 184.537 118.705 184.537C118.705 184.537 118.705 184.537 118.705 184.537C118.705 184.537 118.705 184.537 118.705 184.537C118.705 184.537 118.705 184.537 118.705 184.537C118.705 184.537 118.705 184.537 118.705 184.537C118.705 184.537 118.705 184.537 118.705 184.537C118.705 184.537 118.705 184.537 118.705 184.537C118.705 184.537 118.705 184.537 118.705 184.537C118.705 184.537 118.705 184.537 118.705 184.537C118.705 184.537 118.705 184.537 118.705 184.537C118.705 184.537 118.705 184.537 118.705 184.537C118.705 184.537 118.705 184.537 118.705 184.537C118.705 184.537 118.705 184.537 118.705 184.537C118.705 184.537 118.705 184.537 118.705 184.537C118.705 184.537 118.705 184.537 118.705 184.537C118.705 184.537 118.705 184.537 118.705 184.537C118.705 184.537 118.705 184.537 118.705 184.537C118.705 184.537 118.705 184.537 118.705 184.537C118.705 184.537 118.705 184.537 118.705 184.537C118.705 184.537 118.705 184.537 118.705 184.537C118.705 184.537 118.705 184.537 118.705 184.537C118.705 184.537 118.705 184.537 118.705 184.537C118.705 184.537 118.705 184.537 118.705 184.537C118.705 184.537 118.705 184.537 118.705 184.537C118.705 184.537 118.705 184.537 118.705 184.537C118.705 184.537 118.705 184.537 118.705 184.537C118.705 184.537 118.705 184.537 118.705 184.537C118.705 184.537 118.705 184.537 118.705 184.537C118.705 184.537 118.705 184.537 118.705 184.537C118.705 184.537 118.705 184.537 118.705 184.537C118.705 184.537 118.705 184.537 118.705 184.537C118.705 184.537 118.705 184.537 118.705 184.537C118.705 184.537 118.705 184.537 118.705 184.537C118.705 184.537 118.705 184.537 118.705 184.537C118.705 184.537 118.705 184.537 118.705 184.537C118.705 184.537 118.705 184.537 118.705 184.537C118.705 184.537 118.705 184.537 118.705 184.537C118.705 184.537 118.705 184.537 118.705 184.537C118.705 184.537 118.705 184.537 118.705 184.537C118.705 184.537 118.705 184.537 118.705 184.537C118.705 184.537 118.705 184.537 118.705 184.537C118.705 184.537 118.705 184.537 118.705 184.537C118.705 184.537 118.705 184.537 118.705 184.537C118.705 184.537 118.705 184.537 118.705 184.537C118.705 184.537 118.705 184.537 118.705 184.537C118.705 184.537 118.705 184.537 118.705 184.537C118.705 184.537 118.705 184.537 118.705 184.537C118.705 184.537 118.705 184.537 118.705 184.537C118.705 184.537 118.705 184.537 118.705 184.537C118.705 184.537 118.705 184.537 118.705 184.537C118.705 184.537 118.705 184.537 118.705 184.537C118.705 184.537 118.705 184.537 118.705 184.537C118.705 184.537 118.705 184.537 118.705 184.537C118.705 184.537 118.705 184.537 118.705 184.537C118.705 184.537 118.705 184.537 118.705 184.537C118.705 184.537 118.705 184.537 118.705 184.537C118.705 184.537 118.705 184.537 118.705 184.537C118.705 184.537 118.705 184.537 118.705 184.537C118.705 184.537 118.705 184.537 118.705 184.537C118.705 184.537 118.705 184.537 118.705 184.537C118.705 184.537 118.705 184.537 118.705 184.537C118.705 184.537 118.705 184.537 118.705 184.537C118.705 184.537 118.705 184.537 118.705 184.537C118.705 184.537 118.705 184.537 118.705 184.537C118.705 184.537 118.705 184.537 118.705 184.537C118.705 184.537 118.705 184.537 118.705 184.537C118.705 184.537 118.705 184.537 118.705 184.537C118.705 184.537 118.705 184.537 118.705 184.537C118.705 184.537 118.705 184.537 118.705 184.537C118.705 184.537 118.705 184.537 118.705 184.537C118.705 184.537 118.705 184.537 118.705 184.537C118.705 184.537 118.705 184.537 118.705 184.537C118.705 184.537 118.705 184.537 118.705 184.537C118.705 184.537 118.705 184.537 118.705 184.537C118.705 184.537 118.705 184.537 118.705 184.537C118.705 184.537 118.705 184.537 118.705 184.537C118.705 184.537 118.705 184.537 118.705 184.537C118.705 184.537 118.705 184.537 118.705 184.537C118.705 184.537 118.705 184.537 118.705 184.537C118.705 184.537 118.705 184.537 118.705 184.537C118.705 184.537 118.705 184.537 118.705 184.537C118.705 184.537 118.705 184.537 118.705 184.537C118.705 184.537 118.705 184.537 118.705 184.537C118.705 184.537 118.705 184.537 118.705 184.537C118.705 184.537 118.705 184.537 118.705 184.537C118.705 184.537 118.705 184.537 118.705 184.537C118.705 184.537 118.705 184.537 118.705 184.537C118.705 184.537 118.705 184.537 118.705 184.537C118.705 184.537 118.705 184.537 118.705 184.537C118.705 184.537 118.705 184.537 118.705 184.537C118.705 184.537 118.705 184.537 118.705 184.537C118.705 184.537 118.705 184.537 118.705 184.537C118.705 184.537 118.705 184.537 118.705 184.537C118.705 184.537 118.705 184.537 118.705 184.537C118.705 184.537 118.705 184.537 118.705 184.537C118.705 184.537 118.705 184.537 118.705 184.537C118.705 184.537 118.705 184.537 118.705 184.537C118.705 184.537 118.705 184.537 118.705 184.537C118.705 184.537 118.705 184.537 118.705 184.537C118.705 184.537 118.705 184.537 118.705 184.537C118.705 184.537 118.705 184.537 118.705 184.537C118.705 184.537 118.705 184.537 118.705 184.537C118.705 184.537 118.705 184.537 118.705 184.537C118.705 184.537 118.705 184.537 118.705 184.537C118.705 184.537 118.705 184.537 118.705 184.537C118.705 184.537 118.705 184.537 118.705 184.537C118.705 184.537 118.705 184.537 118.705 184.537C118.705 184.537 118.705 184.537 118.705 184.537C118.705 184.537 118.705 184.537 118.705 184.537C118.705 184.537 118.705 184.537 118.705 184.537C118.705 184.537 118.705 184.537 118.705 184.537C118.705 184.537 118.705 184.537 118.705 184.537C118.705 184.537 118.705 184.537 118.705 184.537C118.705 184.537 118.705 184.537 118.705 184.537C118.705 184.537 118.705 184.537 118.705 184.537C118.705 184.537 118.705 184.537 118.705 184.537C118.705 184.537 118.705 184.537 118.705 184.537C118.705 184.537 118.705 184.537 118.705 184.537C118.705 184.537 118.705 184.537 118.705 184.537C118.705 184.537 118.705 184.537 118.705 184.537C118.705 184.537 118.705 184.537 118.705 184.537C118.705 184.537 118.705 184.537 118.705 184.537C118.705 184.537 118.705 184.537 118.705 184.537C118.705 184.537 118.705 184.537 118.705 184.537C118.705 184.537 118.705 184.037 118.705 183.537C118.705 183.537 118.705 183.537 118.705 183.537C118.705 183.537 118.705 183.537 118.705 183.537C118.705 183.537 118.705 183.537 118.705 183.537C118.705 183.537 118.705 183.537 118.705 183.537C118.705 183.537 118.705 183.537 118.705 183.537C118.705 183.537 118.705 183.537 118.705 183.537C118.705 183.537 118.705 183.537 118.705 183.537C118.705 183.537 118.705 183.537 118.705 183.537C118.705 183.537 118.705 183.537 118.705 183.537C118.705 183.537 118.705 183.537 118.705 183.537C118.705 183.537 118.705 183.537 118.705 183.537C118.705 183.537 118.705 183.537 118.705 183.537C118.705 183.537 118.705 183.537 118.705 183.537C118.705 183.537 118.705 183.537 118.705 183.537C118.705 183.537 118.705 183.537 118.705 183.537C118.705 183.537 118.705 183.537 118.705 183.537C118.705 183.537 118.705 183.537 118.705 183.537C118.705 183.537 118.705 183.537 118.705 183.537C118.705 183.537 118.705 183.537 118.705 183.537C118.705 183.537 118.705 183.537 118.705 183.537C118.705 183.537 118.705 183.537 118.705 183.537C118.705 183.537 118.705 183.537 118.705 183.537C118.705 183.537 118.705 183.537 118.705 183.537C118.705 183.537 118.705 183.537 118.705 183.537C118.705 183.537 118.705 183.537 118.705 183.537C118.705 183.537 118.705 183.537 118.705 183.537C118.705 183.537 118.705 183.537 118.705 183.537C118.705 183.537 118.705 183.537 118.705 183.537C118.705 183.537 118.705 183.537 118.705 183.537C118.705 183.537 118.705 183.537 118.705 183.537C118.705 183.537 118.705 183.537 118.705 183.537C118.705 183.537 118.705 183.537 118.705 183.537C118.705 183.537 118.705 183.537 118.705 183.537C118.705 183.537 118.705 183.537 118.705 183.537C118.705 183.537 118.705 183.537 118.705 183.537C118.705 183.537 118.705 183.537 118.705 183.537C118.705 183.537 118.705 183.537 118.705 183.537C118.705 183.537 118.705 183.537 118.705 183.537C118.705 183.537 118.705 183.537 118.705 183.537C118.705 183.537 118.705 183.537 118.705 183.537C118.705 183.537 118.705 183.537 118.705 183.537C118.705 183.537 118.705 183.537 118.705 183.537C118.705 183.537 118.705 183.537 118.705 183.537C118.705 183.537 118.705 183.537 118.705 183.537C118.705 183.537 118.705 183.537 118.705 183.537C118.705 183.537 118.705 183.537 118.705 183.537C118.705 183.537 118.705 183.537 118.705 183.537C118.705 183.537 118.705 183.537 118.705 183.537C118.705 183.537 118.705 183.537 118.705 183.537C118.705 183.537 118.705 183.537 118.705 183.537C118.705 183.537 118.705 183.537 118.705 183.537C118.705 183.537 118.705 183.537 118.705 183.537C118.705 183.537 118.705 183.537 118.705 183.537C118.705 183.537 118.705 183.537 118.705 183.537C118.705 183.537 118.705 183.537 118.705 183.537C118.705 183.537 118.705 183.537 118.705 183.537C118.705 183.537 118.705 183.537 118.705 183.537C118.705 183.537 118.705 183.537 118.705 183.537C118.705 183.537 118.705 183.537 118.705 183.537C118.705 183.537 118.705 183.537 118.705 183.537C118.705 183.537 118.705 183.537 118.705 183.537C118.705 183.537 118.705 183.537 118.705 183.537C118.705 183.537 118.705 183.537 118.705 183.537C118.705 183.537 118.705 183.537 118.705 183.537C118.705 183.537 118.705 183.537 118.705 183.537C118.705 183.537 118.705 183.537 118.705 183.537C118.705 183.537 118.705 183.537 118.705 183.537C118.705 183.537 118.705 183.537 118.705 183.537C118.705 183.537 118.705 183.537 118.705 183.537C118.705 183.537 118.705 183.537 118.705 183.537C118.705 183.537 118.705 183.537 118.705 183.537C118.705 183.537 118.705 183.537 118.705 183.537C118.705 183.537 118.705 183.537 118.705 183.537C118.705 183.537 118.705 183.537 118.705 183.537C118.705 183.537 118.705 183.537 118.705 183.537C118.705 183.537 118.705 183.537 118.705 183.537C118.705 183.537 118.705 183.537 118.705 183.537C118.705 183.537 118.705 183.537 118.705 183.537C118.705 183.537 118.705 183.537 118.705 183.537C118.705 183.537 118.705 183.537 118.705 183.537C118.705 183.537 118.705 183.537 118.705 183.537C118.705 183.537 118.705 183.537 118.705 183.537C118.705 183.537 118.705 183.537 118.705 183.537C118.705 183.537 118.705 183.537 118.705 183.537C118.705 183.537 118.705 183.537 118.705 183.537C118.705 183.537 118.705 183.537 118.705 183.537C118.705 183.537 118.705 183.537 118.705 183.537C118.705 183.537 118.705 183.537 118.705 183.537C118.705 183.537 118.705 183.537 118.705 183.537C118.705 183.537 118.705 183.537 118.705 183.537C118.705 183.537 118.705 183.537 118.705 183.537C118.705 183.537 118.705 183.537 118.705 183.537C118.705 183.537 118.705 183.537 118.705 183.537C118.705 183.537 118.705 183.537 118.705 183.537C118.705 183.537 118.705 183.537 118.705 183.537C118.705 183.537 118.705 183.537 118.705 183.537C118.705 183.537 118.705 183.537 118.705 183.537C118.705 183.537 118.705 183.537 118.705 183.537C118.705 183.537 118.705 183.537 118.705 183.537C118.705 183.537 118.705 183.537 118.705 183.537C118.705 183.537 118.705 183.537 118.705 183.537C118.705 183.537 118.705 183.537 118.705 183.537C118.705 183.537 118.705 183.537 118.705 183.537C118.705 183.537 118.705 183.537 118.705 183.537C118.705 183.537 118.705 183.537 118.705 183.537C118.705 183.537 118.705 183.537 118.705 183.537C118.705 183.537 118.705 183.537 118.705 183.537C118.705 183.537 118.705 183.537 118.705 183.537V184.537C118.705 184.537 118.705 184.537 118.705 184.537C118.705 184.537 118.705 184.537 118.705 184.537C118.705 184.537 118.705 184.537 118.705 184.537C118.705 184.537 118.705 184.537 118.705 184.537C118.705 184.537 118.705 184.537 118.705 184.537C118.705 184.537 118.705 184.537 118.705 184.537C118.705 184.537 118.705 184.537 118.705 184.537C118.705 184.537 118.705 184.537 118.705 184.537C118.705 184.537 118.705 184.537 118.705 184.537C118.705 184.537 118.705 184.537 118.705 184.537C118.705 184.537 118.705 184.537 118.705 184.537C118.705 184.537 118.705 184.537 118.705 184.537C118.705 184.537 118.705 184.537 118.705 184.537C118.705 184.537 118.705 184.537 118.705 184.537C118.705 184.537 118.705 184.537 118.705 184.537C118.705 184.537 118.705 184.537 118.705 184.537C118.705 184.537 118.705 184.537 118.705 184.537C118.705 184.537 118.705 184.537 118.705 184.537C118.705 184.537 118.705 184.537 118.705 184.537C118.705 184.537 118.705 184.537 118.705 184.537C118.705 184.537 118.705 184.537 118.705 184.537C118.705 184.537 118.705 184.537 118.705 184.537C118.705 184.537 118.705 184.537 118.705 184.537C118.705 184.537 118.705 184.537 118.705 184.537C118.705 184.537 118.705 184.537 118.705 184.537C118.705 184.537 118.705 184.537 118.705 184.537C118.705 184.537 118.705 184.537 118.705 184.537C118.705 184.537 118.705 184.537 118.705 184.537C118.705 184.537 118.705 184.537 118.705 184.537C118.705 184.537 118.705 184.537 118.705 184.537C118.705 184.537 118.705 184.537 118.705 184.537C118.705 184.537 118.705 184.537 118.705 184.537C118.705 184.537 118.705 184.537 118.705 184.537C118.705 184.537 118.705 184.537 118.705 184.537C118.705 184.537 118.705 184.537 118.705 184.537C118.705 184.537 118.705 184.537 118.705 184.537C118.705 184.537 118.705 184.537 118.705 184.537C118.705 184.537 118.705 184.537 118.705 184.537C118.705 184.537 118.705 184.537 118.705 184.537C118.705 184.537 118.705 184.537 118.705 184.537C118.705 184.537 118.705 184.537 118.705 184.537C118.705 184.537 118.705 184.537 118.705 184.537C118.705 184.537 118.705 184.537 118.705 184.537C118.705 184.537 118.705 184.537 118.705 184.537C118.705 184.537 118.705 184.537 118.705 184.537C118.705 184.537 118.705 184.537 118.705 184.537C118.705 184.537 118.705 184.537 118.705 184.537C118.705 184.537 118.705 184.537 118.705 184.537C118.705 184.537 118.705 184.537 118.705 184.537C118.705 184.537 118.705 184.537 118.705 184.537C118.705 184.537 118.705 184.537 118.705 184.537C118.705 184.537 118.705 184.537 118.705 184.537C118.705 184.537 118.705 184.537 118.705 184.537C118.705 184.537 118.705 184.537 118.705 184.537C118.705 184.537 118.705 184.537 118.705 184.537C118.705 184.537 118.705 184.537 118.705 184.537C118.705 184.537 118.705 184.537 118.705 184.537C118.705 184.537 118.705 184.537 118.705 184.537C118.705 184.537 118.705 184.537 118.705 184.537C118.705 184.537 118.705 184.537 118.705 184.537C118.705 184.537 118.705 184.537 118.705 184.537C118.705 184.537 118.705 184.537 118.705 184.537C118.705 184.537 118.705 184.537 118.705 184.537C118.705 184.537 118.705 184.537 118.705 184.537C118.705 184.537 118.705 184.537 118.705 184.537C118.705 184.537 118.705 184.537 118.705 184.537C118.705 184.537 118.705 184.537 118.705 184.537C118.705 184.537 118.705 184.537 118.705 184.537C118.705 184.537 118.705 184.537 118.705 184.537C118.705 184.537 118.705 184.537 118.705 184.537C118.705 184.537 118.705 184.537 118.705 184.537C118.705 184.537 118.705 184.537 118.705 184.537C118.705 184.537 118.705 184.537 118.705 184.537C118.705 184.537 118.705 184.537 118.705 184.537C118.705 184.537 118.705 184.537 118.705 184.537C118.705 184.537 118.705 184.537 118.705 184.537C118.705 184.537 118.705 184.537 118.705 184.537C118.705 184.537 118.705 184.537 118.705 184.537C118.705 184.537 118.705 184.537 118.705 184.537C118.705 184.537 118.705 184.537 118.705 184.537C118.705 184.537 118.705 184.537 118.705 184.537C118.705 184.537 118.705 184.537 118.705 184.537C118.705 184.537 118.705 184.537 118.705 184.537C118.705 184.537 118.705 184.537 118.705 184.537C118.705 184.537 118.705 184.537 118.705 184.537C118.705 184.537 118.705 184.537 118.705 184.537C118.705 184.537 118.705 184.537 118.705 184.537C118.705 184.537 118.705 184.537 118.705 184.537C118.705 184.537 118.705 184.537 118.705 184.537C118.705 184.537 118.705 184.537 118.705 184.537C118.705 184.537 118.705 184.537 118.705 184.537C118.705 184.537 118.705 184.537 118.705 184.537C118.705 184.537 118.705 184.537 118.705 184.537C118.705 184.537 118.705 184.537 118.705 184.537C118.705 184.537 118.705 184.537 118.705 184.537C118.705 184.537 118.705 184.537 118.705 184.537C118.705 184.537 118.705 184.537 118.705 184.537C118.705 184.537 118.705 184.537 118.705 184.537C118.705 184.537 118.705 184.537 118.705 184.537C118.705 184.537 118.705 184.537 118.705 184.537C118.705 184.537 118.705 184.537 118.705 184.537C118.705 184.537 118.705 184.537 118.705 184.537C118.705 184.537 118.705 184.537 118.705 184.537C118.705 184.537 118.705 184.537 118.705 184.537C118.705 184.537 118.705 184.537 118.705 184.537C118.705 184.537 118.705 184.537 118.705 184.537C118.705 184.537 118.705 184.537 118.705 184.537C118.705 184.537 118.705 184.537 118.705 184.537C118.705 184.037 118.705 183.537 118.705 183.537C118.705 183.537 118.705 183.537 118.705 183.537C118.705 183.537 118.705 183.537 118.705 183.537C118.705 183.537 118.705 183.537 118.705 183.537C118.705 183.537 118.705 183.537 118.705 183.537C118.705 183.537 118.705 183.537 118.705 183.537C118.705 183.537 118.705 183.537 118.705 183.537C118.705 183.537 118.705 183.537 118.705 183.537C118.705 183.537 118.705 183.537 118.705 183.537C118.705 183.537 118.705 183.537 118.705 183.537C118.705 183.537 118.705 183.537 118.705 183.537C118.705 183.537 118.705 183.537 118.705 183.537C118.705 183.537 118.705 183.537 118.705 183.537C118.705 183.537 118.705 183.537 118.705 183.537C118.705 183.537 118.705 183.537 118.705 183.537C118.705 183.537 118.705 183.537 118.705 183.537C118.705 183.537 118.705 183.537 118.705 183.537C118.705 183.537 118.705 183.537 118.705 183.537C118.705 183.537 118.705 183.537 118.705 183.537C118.705 183.537 118.705 183.537 118.705 183.537C118.705 183.537 118.705 183.537 118.705 183.537C118.705 183.537 118.705 183.537 118.705 183.537C118.705 183.537 118.705 183.537 118.705 183.537C118.705 183.537 118.705 183.537 118.705 183.537C118.705 183.537 118.705 183.537 118.705 183.537C118.705 183.537 118.705 183.537 118.705 183.537C118.705 183.537 118.705 183.537 118.705 183.537C118.705 183.537 118.705 183.537 118.705 183.537C118.705 183.537 118.705 183.537 118.705 183.537C118.705 183.537 118.705 183.537 118.705 183.537C118.705 183.537 118.705 183.537 118.705 183.537C118.705 183.537 118.705 183.537 118.705 183.537C118.705 183.537 118.705 183.537 118.705 183.537C118.705 183.537 118.705 183.537 118.705 183.537C118.705 183.537 118.705 183.537 118.705 183.537C118.705 183.537 118.705 183.537 118.705 183.537C118.705 183.537 118.705 183.537 118.705 183.537C118.705 183.537 118.705 183.537 118.705 183.537C118.705 183.537 118.705 183.537 118.705 183.537C118.705 183.537 118.705 183.537 118.705 183.537C118.705 183.537 118.705 183.537 118.705 183.537C118.705 183.537 118.705 183.537 118.705 183.537C118.705 183.537 118.705 183.537 118.705 183.537C118.705 183.537 118.705 183.537 118.705 183.537C118.705 183.537 118.705 183.537 118.705 183.537C118.705 183.537 118.705 183.537 118.705 183.537C118.705 183.537 118.705 183.537 118.705 183.537C118.705 183.537 118.705 183.537 118.705 183.537C118.705 183.537 118.705 183.537 118.705 183.537C118.705 183.537 118.705 183.537 118.705 183.537C118.705 183.537 118.705 183.537 118.705 183.537C118.705 183.537 118.705 183.537 118.705 183.537C118.705 183.537 118.705 183.537 118.705 183.537C118.705 183.537 118.705 183.537 118.705 183.537C118.705 183.537 118.705 183.537 118.705 183.537C118.705 183.537 118.705 183.537 118.705 183.537C118.705 183.537 118.705 183.537 118.705 183.537C118.705 183.537 118.705 183.537 118.705 183.537C118.705 183.537 118.705 183.537 118.705 183.537C118.705 183.537 118.705 183.537 118.705 183.537C118.705 183.537 118.705 183.537 118.705 183.537C118.705 183.537 118.705 183.537 118.705 183.537C118.705 183.537 118.705 183.537 118.705 183.537C118.705 183.537 118.705 183.537 118.705 183.537C118.705 183.537 118.705 183.537 118.705 183.537C118.705 183.537 118.705 183.537 118.705 183.537C118.705 183.537 118.705 183.537 118.705 183.537C118.705 183.537 118.705 183.537 118.705 183.537C118.705 183.537 118.705 183.537 118.705 183.537C118.705 183.537 118.705 183.537 118.705 183.537C118.705 183.537 118.705 183.537 118.705 183.537C118.705 183.537 118.705 183.537 118.705 183.537C118.705 183.537 118.705 183.537 118.705 183.537C118.705 183.537 118.705 183.537 118.705 183.537C118.705 183.537 118.705 183.537 118.705 183.537C118.705 183.537 118.705 183.537 118.705 183.537C118.705 183.537 118.705 183.537 118.705 183.537C118.705 183.537 118.705 183.537 118.705 183.537C118.705 183.537 118.705 183.537 118.705 183.537C118.705 183.537 118.705 183.537 118.705 183.537C118.705 183.537 118.705 183.537 118.705 183.537C118.705 183.537 118.705 183.537 118.705 183.537C118.705 183.537 118.705 183.537 118.705 183.537C118.705 183.537 118.705 183.537 118.705 183.537C118.705 183.537 118.705 183.537 118.705 183.537C118.705 183.537 118.705 183.537 118.705 183.537C118.705 183.537 118.705 183.537 118.705 183.537C118.705 183.537 118.705 183.537 118.705 183.537C118.705 183.537 118.705 183.537 118.705 183.537C118.705 183.537 118.705 183.537 118.705 183.537C118.705 183.537 118.705 183.537 118.705 183.537C118.705 183.537 118.705 183.537 118.705 183.537C118.705 183.537 118.705 183.537 118.705 183.537C118.705 183.537 118.705 183.537 118.705 183.537C118.705 183.537 118.705 183.537 118.705 183.537C118.705 183.537 118.705 183.537 118.705 183.537C118.705 183.537 118.705 183.537 118.705 183.537C118.705 183.537 118.705 183.537 118.705 183.537C118.705 183.537 118.705 183.537 118.705 183.537C118.705 183.537 118.705 183.537 118.705 183.537C118.705 183.537 118.705 183.537 118.705 183.537C118.705 183.537 118.705 183.537 118.705 183.537C118.705 183.537 118.705 183.537 118.705 183.537C118.705 183.537 118.705 183.537 118.705 183.537C118.705 183.537 118.705 183.537 118.705 183.537C118.705 183.537 118.705 183.537 118.705 183.537C118.705 183.537 118.705 183.537 118.705 183.537C118.705 183.537 118.705 183.537 118.705 183.537C118.705 183.537 118.705 183.537 118.705 183.537C118.705 183.537 118.705 183.537 118.705 183.537C118.705 183.537 118.705 183.537 118.705 183.537C118.705 183.537 118.705 183.537 118.705 183.537C118.705 183.537 118.705 183.537 118.705 183.537C118.705 183.537 118.705 183.537 118.705 183.537C118.705 183.537 118.705 183.537 118.705 183.537C118.705 183.537 118.705 183.537 118.705 183.537C118.705 183.537 118.705 183.537 118.705 183.537C118.705 183.537 118.705 183.537 118.705 183.537C118.705 183.537 118.705 183.537 118.705 183.537C118.705 183.537 118.705 183.537 118.705 183.537C118.705 183.537 118.705 183.537 118.705 183.537C118.705 183.537 118.705 183.537 118.705 183.537C118.705 183.537 118.705 183.537 118.705 183.537C118.705 183.537 118.705 183.537 118.705 183.537C118.705 183.537 118.705 183.537 118.705 183.537C118.705 183.537 118.705 183.537 118.705 183.537C118.705 183.537 118.705 183.537 118.705 183.537C118.705 183.537 118.705 183.537 118.705 183.537C118.705 183.537 118.705 183.537 118.705 183.537C118.705 183.537 118.705 183.537 118.705 183.537C118.705 183.537 118.705 183.537 118.705 183.537C118.705 183.537 118.705 183.537 118.705 183.537C118.705 183.537 118.705 183.537 118.705 183.537C118.705 183.537 118.705 183.537 118.705 183.537C118.705 183.537 118.705 183.537 118.705 183.537C118.705 183.537 118.705 183.537 118.705 183.537C118.705 183.537 118.705 183.537 118.705 183.537C118.705 183.537 118.705 183.537 118.705 183.537C118.705 183.537 118.705 183.537 118.705 183.537C118.705 183.537 118.705 183.537 118.705 183.537C118.705 183.537 118.705 183.537 118.705 183.537C118.705 183.537 118.705 183.537 118.705 183.537C118.705 183.537 118.705 183.537 118.705 183.537C118.705 183.537 118.705 183.537 118.705 183.537C118.705 183.537 118.705 183.537 118.705 183.537C118.705 183.537 118.705 183.537 118.705 183.537C118.705 183.537 118.705 183.537 118.705 183.537C118.705 183.537 118.705 183.537 118.705 183.537C118.705 183.537 118.705 183.537 118.705 183.537C118.705 183.537 118.705 183.537 118.705 183.537C118.705 183.537 118.705 183.537 118.705 183.537C118.705 183.537 118.705 183.537 118.705 183.537C118.705 183.537 118.705 183.537 118.705 183.537C118.705 183.537 118.705 183.537 118.705 183.537C118.705 183.537 118.705 183.537 118.705 183.537C118.705 183.537 118.705 183.537 118.705 183.537C118.705 183.537 118.705 183.537 118.705 183.537C118.705 183.537 118.705 183.537 118.705 183.537C118.705 183.537 118.705 183.537 118.705 183.537C118.705 183.537 118.705 183.537 118.705 183.537C118.705 183.537 118.705 183.537 118.705 183.537C118.705 183.537 118.705 183.537 118.705 183.537C118.705 183.537 118.705 183.537 118.705 183.537C118.705 183.537 118.705 183.537 118.705 183.537C118.705 183.537 118.705 183.537 118.705 183.537C118.705 183.537 118.705 183.537 118.705 183.537C118.705 183.537 118.705 183.537 118.705 183.537C118.705 183.537 118.705 183.537 118.705 183.537C118.705 183.537 118.705 183.537 118.705 183.537C118.705 183.537 118.705 183.537 118.705 183.537C118.705 183.537 118.705 183.537 118.705 183.537C118.705 183.537 118.705 183.537 118.705 183.537C118.705 183.537 118.705 183.537 118.705 183.537C118.705 183.537 118.705 183.537 118.705 183.537C118.705 183.537 118.705 183.537 118.705 183.537C118.705 183.537 118.705 183.537 118.705 183.537C118.705 183.537 118.705 183.537 118.705 183.537C118.705 183.537 118.705 183.537 118.705 183.537C118.705 183.537 118.705 183.537 118.705 183.537C118.705 183.537 118.705 183.537 118.705 183.537C118.705 183.537 118.705 183.537 118.705 183.537C118.705 183.537 118.705 183.537 118.705 183.537C118.705 183.537 118.705 183.537 118.705 183.537C118.705 183.537 118.705 183.537 118.705 183.537C118.705 183.537 118.705 183.537 118.705 183.537C118.705 183.537 118.705 183.537 118.705 183.537C118.705 183.537 118.705 183.537 118.705 183.537C118.705 183.537 118.705 183.537 118.705 183.537C118.705 183.537 118.705 183.537 118.705 183.537C118.705 183.537 118.705 183.537 118.705 183.537C118.705 183.537 118.705 183.537 118.705 183.537C118.705 183.537 118.705 183.537 118.705 183.537C118.705 183.537 118.705 183.537 118.705 183.537C118.705 183.537 118.705 183.537 118.705 183.537C118.705 183.537 118.705 183.537 118.705 183.537C118.705 183.537 118.705 183.537 118.705 183.537C118.705 183.537 118.705 183.537 118.705 183.537C118.705 183.537 118.705 183.537 118.705 183.537C118.705 183.537 118.705 183.537 118.705 183.537C118.705 183.537 118.705 183.537 118.705 183.537C118.705 183.537 118.705 183.537 118.705 183.537C118.705 183.537 118.705 183.537 118.705 183.537C118.705 183.537 118.705 183.537 118.705 183.537C118.705 183.537 118.705 183.537 118.705 183.537C118.705 183.537 118.705 183.537 118.705 183.537C118.705 183.537 118.705 183.537 118.705 183.537C118.705 183.537 118.705 183.537 118.705 183.537C118.705 183.537 118.705 183.537 118.705 183.537C118.705 183.537 118.705 183.537 118.705 183.537C118.705 183.537 118.705 183.537 118.705 183.537C118.705 183.537 118.705 183.537 118.705 183.537C118.705 183.537 118.705 183.537 118.705 183.537C118.705 183.537 118.705 183.537 118.705 183.537C118.705 183.537 118.705 183.537 118.705 183.537C118.705 183.537 118.705 183.537 118.705 183.537C118.705 183.537 118.705 183.537 118.705 183.537C118.705 183.537 118.705 183.537 118.705 183.537C118.705 183.537 118.705 183.537 118.705 183.537C118.705 183.537 118.705 183.537 118.705 183.537C118.705 183.537 118.705 183.537 118.705 183.537C118.705 183.537 118.705 183.537 118.705 183.537C118.705 183.537 118.705 183.537 118.705 183.537C118.705 183.537 118.705 183.537 118.705 183.537C118.705 183.537 118.705 183.537 118.705 183.537C118.705 183.537 118.705 183.537 118.705 183.537C118.705 183.537 118.705 183.537 118.705 183.537C118.705 183.537 118.705 183.537 118.705 183.537C118.705 183.537 118.705 183.537 118.705 183.537C118.705 183.537 118.705 183.537 118.705 183.537C118.705 183.537 118.705 183.537 118.705 183.537C118.705 183.537 118.705 183.537 118.705 183.537C118.705 183.537 118.705 183.537 118.705 183.537C118.705 183.537 118.705 183.537 118.705 183.537C118.705 183.537 118.705 183.537 118.705 183.537C118.705 183.537 118.705 183.537 118.705 183.537C118.705 183.537 118.705 183.537 118.705 183.537C118.705 183.537 118.705 183.537 118.705 183.537C118.705 183.537 118.705 183.537 118.705 183.537C118.705 183.537 118.705 183.537 118.705 183.537C118.705 183.537 118.705 183.537 118.705 183.537C118.705 183.537 118.705 183.537 118.705 183.537C118.705 183.537 118.705 183.537 118.705 183.537C118.705 183.537 118.705 183.537 118.705 183.537C118.705 183.537 118.705 183.537 118.705 183.537C118.705 183.537 118.705 183.537 118.705 183.537C118.705 183.537 118.705 183.537 118.705 183.537C118.705 183.537 118.705 183.537 118.705 183.537C118.705 183.537 118.705 183.537 118.705 183.537C118.705 183.537 118.705 183.537 118.705 183.537C118.705 183.537 118.705 183.537 118.705 183.537C118.705 183.537 118.705 183.537 118.705 183.537C118.705 183.537 118.705 183.537 118.705 183.537C118.705 183.537 118.705 183.537 118.705 183.537C118.705 183.537 118.705 183.537 118.705 183.537C118.705 183.537 118.705 183.537 118.705 183.537C118.705 183.537 118.705 183.537 118.705 183.537C118.705 183.537 118.705 183.537 118.705 183.537C118.705 183.537 118.705 183.537 118.705 183.537C118.705 183.537 118.705 183.537 118.705 183.537C118.705 183.537 118.705 183.537 118.705 183.537C118.705 183.537 118.705 183.537 118.705 183.537C118.705 183.537 118.705 183.537 118.705 183.537C118.705 183.537 118.705 183.537 118.705 183.537C118.705 183.537 118.705 183.537 118.705 183.537C118.705 183.537 118.705 183.537 118.705 183.537C118.705 183.537 118.705 183.537 118.705 183.537C118.705 183.537 118.705 183.537 118.705 183.537C118.705 183.537 118.705 183.537 118.705 183.537C118.705 183.537 118.705 183.537 118.705 183.537C118.705 183.537 118.705 183.537 118.705 183.537C118.705 183.537 118.705 183.537 118.705 183.537C118.705 183.537 118.705 183.537 118.705 183.537C118.705 183.537 118.705 183.537 118.705 183.537C118.705 183.537 118.705 183.537 118.705 183.537C118.705 183.537 118.705 183.537 118.705 183.537C118.705 183.537 118.705 183.537 118.705 183.537C118.705 183.537 118.705 183.537 118.705 183.537C118.705 183.537 118.705 183.537 118.705 183.537C118.705 183.537 118.705 183.537 118.705 183.537C118.705 183.537 118.705 183.537 118.705 183.537C118.705 183.537 118.705 183.537 118.705 183.537C118.705 183.537 118.705 183.537 118.705 183.537C118.705 183.537 118.705 183.537 118.705 183.537C118.705 183.537 118.705 183.537 118.705 183.537C118.705 183.537 118.705 183.537 118.705 183.537C118.705 183.537 118.705 183.537 118.705 183.537C118.705 183.537 118.705 183.537 118.705 183.537C118.705 183.537 118.705 183.537 118.705 183.537C118.705 183.537 118.705 183.537 118.705 183.537C118.705 183.537 118.705 183.537 118.705 183.537C118.705 183.537 118.705 183.537 118.705 183.537C118.705 183.537 118.705 183.537 118.705 183.537C118.705 183.537 118.705 183.537 118.705 183.537C118.705 183.537 118.705 183.537 118.705 183.537C118.705 183.537 118.705 183.537 118.705 183.537C118.705 183.537 118.705 184.037 118.705 184.537C118.705 184.537 118.705 184.537 118.705 184.537C118.705 184.537 118.705 184.537 118.705 184.537C118.705 184.537 118.705 184.537 118.705 184.537C118.705 184.537 118.705 184.537 118.705 184.537C118.705 184.537 118.705 184.537 118.705 184.537C118.705 184.537 118.705 184.537 118.705 184.537C118.705 184.537 118.705 184.537 118.705 184.537C118.705 184.537 118.705 184.537 118.705 184.537C118.705 184.537 118.705 184.537 118.705 184.537C118.705 184.537 118.705 184.537 118.705 184.537C118.705 184.537 118.705 184.537 118.705 184.537C118.705 184.537 118.705 184.537 118.705 184.537C118.705 184.537 118.705 184.537 118.705 184.537C118.705 184.537 118.705 184.537 118.705 184.537C118.705 184.537 118.705 184.537 118.705 184.537C118.705 184.537 118.705 184.537 118.705 184.537C118.705 184.537 118.705 184.537 118.705 184.537C118.705 184.537 118.705 184.537 118.705 184.537C118.705 184.537 118.705 184.537 118.705 184.537C118.705 184.537 118.705 184.537 118.705 184.537C118.705 184.537 118.705 184.537 118.705 184.537C118.705 184.537 118.705 184.537 118.705 184.537C118.705 184.537 118.705 184.537 118.705 184.537C118.705 184.537 118.705 184.537 118.705 184.537C118.705 184.537 118.705 184.537 118.705 184.537C118.705 184.537 118.705 184.537 118.705 184.537C118.705 184.537 118.705 184.537 118.705 184.537C118.705 184.537 118.705 184.537 118.705 184.537C118.705 184.537 118.705 184.537 118.705 184.537C118.705 184.537 118.705 184.537 118.705 184.537C118.705 184.537 118.705 184.537 118.705 184.537C118.705 184.537 118.705 184.537 118.705 184.537C118.705 184.537 118.705 184.537 118.705 184.537C118.705 184.537 118.705 184.537 118.705 184.537C118.705 184.537 118.705 184.537 118.705 184.537C118.705 184.537 118.705 184.537 118.705 184.537C118.705 184.537 118.705 184.537 118.705 184.537C118.705 184.537 118.705 184.537 118.705 184.537C118.705 184.537 118.705 184.537 118.705 184.537C118.705 184.537 118.705 184.537 118.705 184.537C118.705 184.537 118.705 184.537 118.705 184.537C118.705 184.537 118.705 184.537 118.705 184.537C118.705 184.537 118.705 184.537 118.705 184.537C118.705 184.537 118.705 184.537 118.705 184.537C118.705 184.537 118.705 184.537 118.705 184.537C118.705 184.537 118.705 184.537 118.705 184.537C118.705 184.537 118.705 184.537 118.705 184.537C118.705 184.537 118.705 184.537 118.705 184.537C118.705 184.537 118.705 184.537 118.705 184.537C118.705 184.537 118.705 184.537 118.705 184.537C118.705 184.537 118.705 184.537 118.705 184.537C118.705 184.537 118.705 184.537 118.705 184.537C118.705 184.537 118.705 184.537 118.705 184.537C118.705 184.537 118.705 184.537 118.705 184.537C118.705 184.537 118.705 184.537 118.705 184.537C118.705 184.537 118.705 184.537 118.705 184.537C118.705 184.537 118.705 184.537 118.705 184.537C118.705 184.537 118.705 184.537 118.705 184.537C118.705 184.537 118.705 184.537 118.705 184.537C118.705 184.537 118.705 184.537 118.705 184.537C118.705 184.537 118.705 184.537 118.705 184.537C118.705 184.537 118.705 184.537 118.705 184.537C118.705 184.537 118.705 184.537 118.705 184.537C118.705 184.537 118.705 184.537 118.705 184.537C118.705 184.537 118.705 184.537 118.705 184.537C118.705 184.537 118.705 184.537 118.705 184.537C118.705 184.537 118.705 184.537 118.705 184.537C118.705 184.537 118.705 184.537 118.705 184.537C118.705 184.537 118.705 184.537 118.705 184.537C118.705 184.537 118.705 184.537 118.705 184.537C118.705 184.537 118.705 184.537 118.705 184.537C118.705 184.537 118.705 184.537 118.705 184.537C118.705 184.537 118.705 184.537 118.705 184.537C118.705 184.537 118.705 184.537 118.705 184.537C118.705 184.537 118.705 184.537 118.705 184.537C118.705 184.537 118.705 184.537 118.705 184.537C118.705 184.537 118.705 184.537 118.705 184.537C118.705 184.537 118.705 184.537 118.705 184.537C118.705 184.537 118.705 184.537 118.705 184.537C118.705 184.537 118.705 184.537 118.705 184.537C118.705 184.537 118.705 184.537 118.705 184.537C118.705 184.537 118.705 184.537 118.705 184.537C118.705 184.537 118.705 184.537 118.705 184.537C118.705 184.537 118.705 184.537 118.705 184.537C118.705 184.537 118.705 184.537 118.705 184.537C118.705 184.537 118.705 184.537 118.705 184.537C118.705 184.537 118.705 184.537 118.705 184.537C118.705 184.537 118.705 184.537 118.705 184.537C118.705 184.537 118.705 184.537 118.705 184.537C118.705 184.537 118.705 184.537 118.705 184.537C118.705 184.537 118.705 184.537 118.705 184.537C118.705 184.537 118.705 184.537 118.705 184.537C118.705 184.537 118.705 184.537 118.705 184.537C118.705 184.537 118.705 184.537 118.705 184.537C118.705 184.537 118.705 184.537 118.705 184.537C118.705 184.537 118.705 184.537 118.705 184.537C118.705 184.537 118.705 184.537 118.705 184.537C118.705 184.537 118.705 184.537 118.705 184.537C118.705 184.537 118.705 184.537 118.705 184.537C118.705 184.537 118.705 184.537 118.705 184.537C118.705 184.537 118.705 184.537 118.705 184.537C118.705 184.537 118.705 184.537 118.705 184.537C118.705 184.537 118.705 184.537 118.705 184.537C118.705 184.537 118.705 184.537 118.705 184.537C118.705 184.537 118.705 184.537 118.705 184.537C118.705 184.537 118.705 184.537 118.705 184.537C118.705 184.537 118.705 184.537 118.705 184.537C118.705 184.537 118.705 184.537 118.705 184.537V183.537ZM1.50341 93.2069C1.50341 70.9049 9.94454 50.4569 23.9864 34.5544L23.2368 33.8925C9.04413 49.9658 0.503413 70.6457 0.503413 93.2069H1.50341ZM23.9864 34.5544C27.6091 30.4517 31.6044 26.6517 35.9237 23.2006L35.2995 22.4194C30.9355 25.9062 26.8981 29.7461 23.2368 33.8925L23.9864 34.5544ZM35.9237 23.2006C52.8639 9.66574 74.7851 1.5 98.7376 1.5V0.5C74.5557 0.5 52.4149 8.74448 35.2995 22.4194L35.9237 23.2006ZM99.6409 185.469C91.4501 184.989 83.6254 183.822 76.2254 182.028L75.9898 183C83.4501 184.808 91.3343 185.984 99.5824 186.467L99.6409 185.469ZM76.2254 182.028C34.1177 171.822 5.75025 141.333 1.90992 101.649L0.914573 101.746C4.8009 141.905 33.521 172.706 75.9898 183L76.2254 182.028ZM1.90992 101.649C1.6409 98.8692 1.50341 96.0532 1.50341 93.2069H0.503413C0.503413 96.0855 0.642454 98.9336 0.914573 101.746L1.90992 101.649ZM35.3406 22.3899C23.5593 29.99 0.174573 54.7561 0.503431 93.2112L1.50339 93.2026C1.17812 55.1662 24.3193 30.6898 35.8827 23.2302L35.3406 22.3899ZM99.6145 186.468C101.918 186.455 107.075 186.366 109.09 186.11L108.964 185.118C107.022 185.365 101.934 185.455 99.6088 185.468L99.6145 186.468ZM114.29 33.9973C118.277 32.489 124.039 32.1249 130.152 31.6374C136.213 31.154 142.589 30.5489 147.631 28.5017L147.254 27.5752C142.38 29.5546 136.162 30.155 130.073 30.6406C124.036 31.122 118.091 31.4902 113.936 33.062L114.29 33.9973ZM147.631 28.5017C148.614 28.1024 149.733 28.1289 150.96 28.4044C152.191 28.6806 153.471 29.1922 154.765 29.7095C156.039 30.2187 157.337 30.738 158.534 30.9773C159.735 31.2175 160.928 31.1957 161.937 30.5194L161.38 29.6888C160.69 30.151 159.815 30.2137 158.73 29.9967C157.641 29.7789 156.434 29.2995 155.137 28.781C153.86 28.2706 152.502 27.7256 151.179 27.4287C149.853 27.1311 148.503 27.068 147.254 27.5752L147.631 28.5017ZM161.937 30.5194C162.644 30.0453 163.409 29.9739 164.27 30.1666C165.149 30.3638 166.093 30.8302 167.108 31.3992C168.099 31.9545 169.172 32.6168 170.222 33.1244C171.278 33.6349 172.387 34.0296 173.5 34.0296L173.5 33.0296C172.613 33.0296 171.666 32.7116 170.657 32.224C169.643 31.7335 168.642 31.1125 167.597 30.5268C166.577 29.9547 165.522 29.4225 164.488 29.1908C163.435 28.9548 162.371 29.0244 161.38 29.6888L161.937 30.5194ZM179.064 41.7439C179.673 42.8348 179.902 43.4695 179.939 43.8964C179.971 44.2661 179.864 44.5114 179.6 44.8613C179.348 45.196 178.859 45.7198 178.414 46.4128C177.947 47.1405 177.475 48.1155 177.106 49.5442L178.074 49.7944C178.417 48.4648 178.848 47.5883 179.255 46.9531C179.686 46.2831 180.045 45.9325 180.399 45.4632C180.741 45.0092 180.997 44.5209 180.935 43.8092C180.878 43.1547 180.554 42.3602 179.936 41.2561L179.064 41.7439ZM177.106 49.5442C176.699 51.1178 177.278 52.8385 178.214 54.5354C179.158 56.2463 180.532 58.0485 181.877 59.8148C183.234 61.5975 184.561 63.3449 185.469 64.9927C186.383 66.6534 186.808 68.1047 186.51 69.322L187.482 69.5596C187.873 67.9612 187.288 66.2228 186.345 64.5104C185.395 62.785 184.017 60.9758 182.673 59.2091C181.315 57.426 179.991 55.6859 179.09 54.0524C178.181 52.4049 177.768 50.9789 178.074 49.7944L177.106 49.5442ZM186.51 69.322C185.575 73.1479 184.455 75.3526 183.139 76.7053C181.836 78.0457 180.288 78.6042 178.348 79.0189C174.443 79.8531 169.107 80.0595 162.11 85.2419L162.705 86.0455C169.486 81.0233 174.556 80.8513 178.557 79.9968C180.568 79.567 182.348 78.9536 183.856 77.4024C185.353 75.8634 186.528 73.4567 187.482 69.5596L186.51 69.322ZM162.11 85.2419C160.392 86.5143 159.437 88.3745 158.47 90.1323C157.487 91.9194 156.473 93.6492 154.65 94.9239L155.223 95.7434C157.255 94.3224 158.364 92.4012 159.347 90.6143C160.345 88.7981 161.199 87.1613 162.705 86.0455L162.11 85.2419ZM154.452 95.4594C155.955 101.244 155.467 102.921 155.249 103.427C155.22 103.494 155.193 103.547 155.166 103.601C155.147 103.638 155.1 103.728 155.074 103.82C155.04 103.945 155.028 104.131 155.146 104.311C155.233 104.447 155.36 104.52 155.419 104.553C155.54 104.621 155.766 104.716 156.016 104.834C156.293 104.964 156.679 105.154 157.207 105.449L157.695 104.576C157.144 104.268 156.738 104.067 156.441 103.928C156.117 103.776 155.989 103.726 155.907 103.68C155.866 103.657 155.929 103.682 155.984 103.767C156.069 103.897 156.054 104.029 156.038 104.086C156.031 104.111 156.024 104.12 156.058 104.052C156.085 104 156.125 103.922 156.167 103.823C156.524 102.995 156.935 101.037 155.42 95.2079L154.452 95.4594ZM157.207 105.449C158.427 106.131 158.976 107.011 159.177 108.02C159.386 109.065 159.228 110.282 158.941 111.627C158.663 112.93 158.251 114.397 158.039 115.764C157.825 117.15 157.79 118.561 158.309 119.839L159.235 119.462C158.818 118.434 158.823 117.238 159.027 115.917C159.234 114.578 159.619 113.239 159.919 111.835C160.209 110.474 160.409 109.085 160.158 107.824C159.899 106.526 159.169 105.4 157.695 104.576L157.207 105.449ZM158.309 119.839C158.724 120.862 158.752 122.609 158.501 124.753C158.253 126.867 157.748 129.271 157.181 131.545C156.614 133.816 155.99 135.945 155.506 137.508C155.264 138.289 155.058 138.927 154.912 139.37C154.839 139.592 154.782 139.764 154.742 139.881C154.723 139.939 154.707 139.984 154.697 140.014C154.692 140.029 154.688 140.04 154.686 140.047C154.685 140.051 154.684 140.054 154.683 140.056C154.683 140.057 154.682 140.057 154.682 140.058C154.682 140.058 154.682 140.058 154.682 140.058C154.682 140.058 154.682 140.058 155.155 140.221C155.628 140.384 155.628 140.383 155.628 140.383C155.628 140.383 155.628 140.383 155.628 140.383C155.628 140.382 155.628 140.381 155.629 140.38C155.63 140.378 155.631 140.375 155.632 140.371C155.635 140.363 155.639 140.352 155.644 140.336C155.654 140.305 155.67 140.26 155.69 140.2C155.73 140.081 155.788 139.906 155.862 139.682C156.009 139.235 156.217 138.591 156.461 137.803C156.948 136.23 157.579 134.081 158.151 131.787C158.723 129.494 159.239 127.044 159.494 124.869C159.745 122.724 159.756 120.745 159.235 119.462L158.309 119.839ZM154.655 140.216C154.641 141.708 154.277 144.196 153.218 146.74C152.16 149.282 150.425 151.846 147.692 153.548L148.221 154.397C151.18 152.554 153.029 149.796 154.141 147.125C155.252 144.456 155.64 141.84 155.655 140.225L154.655 140.216ZM148.193 153.532C146.77 152.768 145.555 152.526 144.41 152.61C143.282 152.692 142.26 153.09 141.241 153.528C139.198 154.404 137.024 155.502 133.464 155.185L133.375 156.181C137.218 156.523 139.612 155.315 141.635 154.447C142.649 154.011 143.536 153.677 144.483 153.607C145.413 153.539 146.441 153.726 147.72 154.413L148.193 153.532ZM133.105 155.294C132.409 155.858 130.956 156.495 129.003 156.984C127.069 157.468 124.702 157.793 122.224 157.771C117.25 157.726 111.934 156.291 108.681 152.091L107.89 152.703C111.412 157.25 117.098 158.725 122.215 158.771C124.782 158.793 127.233 158.458 129.246 157.954C131.24 157.455 132.865 156.775 133.734 156.071L133.105 155.294ZM108.681 152.091C106.321 149.044 101.61 144.422 97.5168 140.583C95.4647 138.659 93.5589 136.923 92.1662 135.668C91.4698 135.041 90.9015 134.534 90.5072 134.183C90.3101 134.008 90.1564 133.872 90.0519 133.78C89.9997 133.734 89.9598 133.698 89.9329 133.675C89.9194 133.663 89.9092 133.654 89.9024 133.648C89.899 133.645 89.8964 133.643 89.8946 133.641C89.8938 133.64 89.8931 133.64 89.8927 133.639C89.8924 133.639 89.8923 133.639 89.8921 133.639C89.892 133.639 89.892 133.639 89.5618 134.014C89.2317 134.39 89.2317 134.39 89.2318 134.39C89.2319 134.39 89.232 134.39 89.2322 134.39C89.2327 134.391 89.2333 134.391 89.2341 134.392C89.2358 134.393 89.2383 134.396 89.2416 134.399C89.2483 134.404 89.2584 134.413 89.2717 134.425C89.2983 134.448 89.3379 134.483 89.3897 134.529C89.4935 134.621 89.6465 134.756 89.8429 134.931C90.2357 135.28 90.8023 135.786 91.4969 136.411C92.8862 137.663 94.7868 139.394 96.8327 141.312C100.935 145.16 105.587 149.729 107.89 152.703L108.681 152.091ZM89.5618 134.014C90.0616 134.029 90.0616 134.029 90.0616 134.029C90.0616 134.028 90.0616 134.028 90.0616 134.028C90.0617 134.027 90.0617 134.026 90.0617 134.024C90.0618 134.021 90.062 134.016 90.0621 134.01C90.0625 133.997 90.063 133.978 90.0637 133.953C90.0651 133.904 90.067 133.83 90.0694 133.734C90.0742 133.542 90.0807 133.26 90.0878 132.9C90.1021 132.181 90.1186 131.148 90.1277 129.896C90.146 127.391 90.1348 124.006 90.0167 120.486C89.8987 116.969 89.6737 113.305 89.2625 110.248C89.0569 108.72 88.8034 107.332 88.4898 106.185C88.1801 105.051 87.7977 104.097 87.3053 103.481L86.5243 104.106C86.8843 104.556 87.224 105.346 87.5252 106.448C87.8226 107.537 88.0689 108.876 88.2714 110.381C88.6761 113.39 88.8997 117.015 89.0173 120.52C89.1347 124.022 89.1459 127.392 89.1277 129.888C89.1186 131.136 89.1022 132.164 89.088 132.881C89.0809 133.239 89.0744 133.519 89.0697 133.709C89.0673 133.804 89.0654 133.877 89.0641 133.926C89.0634 133.95 89.0629 133.969 89.0625 133.981C89.0624 133.987 89.0622 133.992 89.0622 133.995C89.0621 133.997 89.0621 133.998 89.0621 133.998C89.062 133.999 89.062 133.999 89.062 133.999C89.062 133.999 89.062 134 89.5618 134.014ZM68.9457 43.2637C70.3532 43.2916 71.5541 42.7363 72.5637 41.9608C73.5681 41.1893 74.4075 40.1816 75.1038 39.2591C75.8249 38.3037 76.3542 37.4985 76.8134 36.9949C77.048 36.7377 77.1849 36.6537 77.239 36.6376C77.2468 36.6352 77.2232 36.6421 77.192 36.6298C77.1684 36.6204 77.1833 36.6164 77.226 36.6744L78.0312 36.0815C77.9143 35.9226 77.7611 35.7796 77.5603 35.7C77.3519 35.6175 77.1418 35.623 76.9532 35.6793C76.6146 35.7803 76.3188 36.0532 76.0745 36.3211C75.5759 36.8679 74.9626 37.7863 74.3056 38.6567C73.6238 39.56 72.8496 40.4803 71.9545 41.1677C71.0646 41.8513 70.08 42.286 68.9655 42.2639L68.9457 43.2637ZM77.226 36.6744C78.0177 37.7497 79.0504 39.1927 80.2383 40.4662C81.419 41.7322 82.8083 42.893 84.3383 43.3434L84.6207 42.384C83.3539 42.0112 82.1159 41.0132 80.9696 39.7842C79.8303 38.5627 78.8359 37.1744 78.0312 36.0815L77.226 36.6744ZM84.3383 43.3434C84.7582 43.4669 85.3206 43.5131 85.9556 43.5121C86.6001 43.5111 87.3568 43.461 88.1841 43.3728C89.8393 43.1963 91.8053 42.8644 93.7757 42.4499C95.7467 42.0353 97.7309 41.5362 99.4232 41.0233C101.102 40.5143 102.535 39.9798 103.374 39.485L102.867 38.6234C102.138 39.0526 100.806 39.5591 99.1331 40.0663C97.4731 40.5695 95.5175 41.0616 93.5699 41.4713C91.6216 41.8811 89.6902 42.2065 88.078 42.3784C87.2717 42.4644 86.5521 42.5112 85.9541 42.5122C85.3466 42.5131 84.9 42.4663 84.6207 42.384L84.3383 43.3434ZM103.374 39.485C104.936 38.565 107.067 37.3684 109.168 36.3092C111.279 35.2443 113.321 34.3379 114.716 33.9754L114.465 33.0075C112.956 33.3994 110.831 34.3504 108.717 35.4163C106.593 36.4878 104.441 37.6955 102.867 38.6234L103.374 39.485ZM76.4998 95.7934C76.3129 96.2572 76.3129 96.2571 76.3128 96.2571C76.3128 96.2571 76.3128 96.2571 76.3129 96.2571C76.313 96.2572 76.3132 96.2573 76.3135 96.2574C76.3142 96.2577 76.3153 96.2581 76.3168 96.2588C76.32 96.26 76.3249 96.262 76.3316 96.2648C76.3449 96.2703 76.3652 96.2787 76.3922 96.29C76.4461 96.3126 76.5266 96.3468 76.6305 96.3923C76.8384 96.4833 77.14 96.6194 77.5115 96.7983C78.255 97.1564 79.2756 97.6846 80.3825 98.3646C82.6118 99.734 85.1273 101.68 86.481 104.042L87.3486 103.545C85.8675 100.96 83.1755 98.9066 80.9059 97.5125C79.7635 96.8108 78.7118 96.2665 77.9454 95.8974C77.562 95.7127 77.2493 95.5716 77.0315 95.4762C76.9226 95.4286 76.8374 95.3923 76.779 95.3678C76.7497 95.3555 76.7272 95.3462 76.7116 95.3398C76.7039 95.3366 76.6979 95.3342 76.6937 95.3325C76.6916 95.3316 76.69 95.331 76.6888 95.3305C76.6882 95.3302 76.6877 95.33 76.6873 95.3299C76.6872 95.3298 76.687 95.3298 76.6869 95.3297C76.6867 95.3297 76.6866 95.3296 76.4998 95.7934Z" fill="black"/>
</svg>
