<svg width="197" height="187" viewBox="0 0 197 187" fill="none" xmlns="http://www.w3.org/2000/svg">
<path d="M184 139C177.282 135.412 179.383 132.597 172.825 134.007C167.578 135.134 162.458 120.529 160.554 113.086M137.098 48.29C139.987 47.898 144.274 44.7691 146.38 41.8006C148.487 38.8321 158.215 31.643 160.557 29.7677M147.979 107.783C152.588 111.138 157.972 104.264 160.163 113.399M143.643 44.5074C141.738 45.7379 137.132 49.6347 128.23 51.1157C107.473 63.4209 106.884 47.8597 106.269 58.3416C105.654 68.8235 100.573 61.5134 97.111 77.8386C93.6488 94.1637 91.446 89.0259 90.4782 96.9828C89.5104 104.94 96.6167 111.868 105.219 110.369C113.822 108.871 114.615 112.423 124.539 114.007C134.463 115.591 130.763 110.366 141.655 103.993C145.045 103.373 146.956 111.041 155.324 108.377M123.5 183.089C124.325 179.372 116.789 182.261 115.306 174.399C114.326 169.204 113.345 160.2 113.345 160.2C116.442 155.037 109.382 153.908 104.123 142.491C106.521 137.152 101.787 126.558 111.378 126.828C119.145 126.471 135.506 126.461 138.809 129.287C151.528 131.976 156.107 134.674 156.607 142.72C157.107 150.767 163.717 156.135 155.401 163.301C152.819 165.528 151.649 169.086 150.5 171.898M147.416 13.2279C133.085 5.44938 116.464 1 98.7376 1C74.6704 1 52.6394 9.20511 35.6116 22.81M147.416 13.2279C176.744 29.1459 196.482 59.0056 196.482 93.2069C196.482 110.559 191.406 126.788 182.562 140.645M147.416 13.2279C150.569 24.2527 140.558 7.21443 137.93 13.2279C135.303 19.2414 122.69 7.21443 118.486 13.2279C114.282 19.2414 102.731 17.738 99.0529 17.738C95.3744 17.738 94.8489 12.7268 92.7468 7.21443C91.0547 2.80454 81.1856 5.38032 76.456 7.21443L72.0805 4.55524M182.562 140.645C181.98 141.556 181.382 142.458 180.768 143.348M182.562 140.645C184.139 138.233 185.578 135.95 186.802 133.998M182.562 140.645C181.981 141.532 181.382 142.436 180.768 143.348M180.768 143.348C178.726 146.31 176.508 149.155 174.127 151.868M180.768 143.348C178.695 146.425 176.449 149.586 174.169 152.446C166.879 161.132 145.58 179.612 118.705 184.037M121.229 183.469C120.395 183.668 119.554 183.857 118.705 184.037M118.705 184.037C115.565 184.701 112.328 185.235 109.027 185.614C106.649 185.922 101.759 185.978 99.6116 185.968C91.3922 185.486 83.5377 184.315 76.1076 182.514M118.705 184.037C115.268 182.987 82.958 181.074 76.1076 182.514M76.1076 182.514C75.7776 182.583 74.2058 181.898 74 181.983M76.1076 182.514C33.8193 172.264 5.27558 141.619 1.41225 101.697C1.14168 98.9014 1.00341 96.0694 1.00341 93.2069M1.00341 93.2069C1.00341 70.7753 9.49434 50.2113 23.6116 34.2234C27.2536 30.0989 31.27 26.2789 35.6116 22.81M1.00341 93.2069C0.676344 54.9612 23.9393 30.3399 35.6116 22.81M1 96.0055C2.74558 97.5106 6.84356 99.6177 9.24092 96.0055C12.2376 91.4902 12.0503 88.9818 14.2978 88.9818C16.5454 88.9818 15.047 85.9716 17.2945 77.4427C19.5421 68.9139 19.3548 51.3545 20.8531 43.829C22.3515 36.3036 20.8531 40 23 34.5" stroke="black" stroke-linecap="round"/>
</svg>
