<svg width="89" height="77" viewBox="0 0 89 77" fill="none" xmlns="http://www.w3.org/2000/svg">
<rect width="89" height="77" fill="#FDFDFD"/>
<path d="M16.848 15.3696H69.372V64.5288H16.848V15.3696Z" stroke="black" stroke-width="0.72" stroke-linecap="round"/>
<path d="M16.7136 22.9128H69.2376" stroke="black" stroke-width="0.72" stroke-linecap="round" stroke-linejoin="round"/>
<path d="M17.2512 22.3752L17.6544 63.8568" stroke="black" stroke-width="0.72" stroke-linecap="round" stroke-linejoin="round"/>
<path d="M17.52 63.3168H70.3152" stroke="black" stroke-width="0.72" stroke-linecap="round" stroke-linejoin="round"/>
<path d="M70.3152 63.3168L68.9688 23.856" stroke="black" stroke-width="0.72" stroke-linecap="round" stroke-linejoin="round"/>
<path d="M43.6307 43.1193C43.1307 43.1193 42.6804 43.0199 42.2798 42.821C41.8793 42.6222 41.5582 42.3494 41.3168 42.0028C41.0753 41.6562 40.9432 41.2614 40.9205 40.8182H41.9432C41.983 41.2131 42.1619 41.5398 42.4801 41.7983C42.8011 42.054 43.1847 42.1818 43.6307 42.1818C43.9886 42.1818 44.3068 42.098 44.5852 41.9304C44.8665 41.7628 45.0866 41.5327 45.2457 41.2401C45.4077 40.9446 45.4886 40.6108 45.4886 40.2386C45.4886 39.858 45.4048 39.5185 45.2372 39.2202C45.0724 38.919 44.8452 38.6818 44.5554 38.5085C44.2656 38.3352 43.9347 38.2472 43.5625 38.2443C43.2955 38.2415 43.0213 38.2827 42.7401 38.3679C42.4588 38.4503 42.2273 38.5568 42.0455 38.6875L41.0568 38.5682L41.5852 34.2727H46.1193V35.2102H42.4716L42.1648 37.7841H42.2159C42.3949 37.642 42.6193 37.5241 42.8892 37.4304C43.1591 37.3366 43.4403 37.2898 43.733 37.2898C44.267 37.2898 44.7429 37.4176 45.1605 37.6733C45.581 37.9261 45.9105 38.2727 46.1491 38.7131C46.3906 39.1534 46.5114 39.6562 46.5114 40.2216C46.5114 40.7784 46.3864 41.2756 46.1364 41.7131C45.8892 42.1477 45.5483 42.4915 45.1136 42.7443C44.679 42.9943 44.1847 43.1193 43.6307 43.1193Z" fill="black"/>
<path d="M24.8807 49.7273H25.9318L28.4034 55.7642H28.4886L30.9602 49.7273H32.0114V57H31.1875V51.4744H31.1165L28.8438 57H28.0483L25.7756 51.4744H25.7045V57H24.8807V49.7273ZM35.8794 57.1136C35.387 57.1136 34.955 56.9964 34.5833 56.7621C34.214 56.5277 33.9251 56.1998 33.7168 55.7784C33.5108 55.357 33.4078 54.8646 33.4078 54.3011C33.4078 53.733 33.5108 53.237 33.7168 52.8132C33.9251 52.3894 34.214 52.0604 34.5833 51.826C34.955 51.5916 35.387 51.4744 35.8794 51.4744C36.3719 51.4744 36.8027 51.5916 37.1721 51.826C37.5437 52.0604 37.8326 52.3894 38.0385 52.8132C38.2469 53.237 38.351 53.733 38.351 54.3011C38.351 54.8646 38.2469 55.357 38.0385 55.7784C37.8326 56.1998 37.5437 56.5277 37.1721 56.7621C36.8027 56.9964 36.3719 57.1136 35.8794 57.1136ZM35.8794 56.3608C36.2535 56.3608 36.5613 56.2649 36.8027 56.0732C37.0442 55.8814 37.223 55.6293 37.339 55.3168C37.455 55.0043 37.513 54.6657 37.513 54.3011C37.513 53.9366 37.455 53.5968 37.339 53.282C37.223 52.9671 37.0442 52.7126 36.8027 52.5185C36.5613 52.3243 36.2535 52.2273 35.8794 52.2273C35.5054 52.2273 35.1976 52.3243 34.9561 52.5185C34.7147 52.7126 34.5359 52.9671 34.4199 53.282C34.3039 53.5968 34.2459 53.9366 34.2459 54.3011C34.2459 54.6657 34.3039 55.0043 34.4199 55.3168C34.5359 55.6293 34.7147 55.8814 34.9561 56.0732C35.1976 56.2649 35.5054 56.3608 35.8794 56.3608ZM40.4684 53.7188V57H39.6303V51.5455H40.44V52.3977H40.511C40.6388 52.1207 40.833 51.8982 41.0934 51.7301C41.3538 51.5597 41.69 51.4744 42.1019 51.4744C42.4712 51.4744 42.7944 51.5502 43.0714 51.7017C43.3484 51.8509 43.5638 52.0781 43.7177 52.3835C43.8716 52.6866 43.9485 53.0701 43.9485 53.5341V57H43.1104V53.5909C43.1104 53.1624 42.9992 52.8286 42.7766 52.5895C42.5541 52.348 42.2487 52.2273 41.8604 52.2273C41.5929 52.2273 41.3538 52.2853 41.1431 52.4013C40.9348 52.5173 40.7702 52.6866 40.6495 52.9091C40.5288 53.1316 40.4684 53.4015 40.4684 53.7188ZM47.5396 57.1136C47.085 57.1136 46.6838 56.9988 46.3358 56.7692C45.9877 56.5372 45.7155 56.2105 45.519 55.7891C45.3225 55.3653 45.2243 54.8646 45.2243 54.2869C45.2243 53.714 45.3225 53.2169 45.519 52.7955C45.7155 52.3741 45.9889 52.0485 46.3393 51.8189C46.6897 51.5893 47.0945 51.4744 47.5538 51.4744C47.9089 51.4744 48.1895 51.5336 48.3954 51.652C48.6038 51.768 48.7624 51.9006 48.8713 52.0497C48.9825 52.1965 49.069 52.3172 49.1305 52.4119H49.2015V49.7273H50.0396V57H49.2299V56.1619H49.1305C49.069 56.2614 48.9814 56.3868 48.8677 56.5384C48.7541 56.6875 48.5919 56.8213 48.3812 56.9396C48.1705 57.0556 47.89 57.1136 47.5396 57.1136ZM47.6532 56.3608C47.9894 56.3608 48.2735 56.2732 48.5055 56.098C48.7375 55.9205 48.9139 55.6754 49.0346 55.3629C49.1554 55.0481 49.2157 54.6847 49.2157 54.2727C49.2157 53.8655 49.1565 53.5092 49.0382 53.2038C48.9198 52.8961 48.7446 52.657 48.5126 52.4865C48.2806 52.3137 47.9941 52.2273 47.6532 52.2273C47.2981 52.2273 47.0022 52.3184 46.7654 52.5007C46.5311 52.6806 46.3547 52.9257 46.2363 53.2358C46.1203 53.5436 46.0623 53.8892 46.0623 54.2727C46.0623 54.661 46.1215 55.0137 46.2399 55.331C46.3606 55.6458 46.5382 55.8968 46.7725 56.0838C47.0093 56.2685 47.3029 56.3608 47.6532 56.3608ZM53.296 57.1278C52.9503 57.1278 52.6367 57.0627 52.3549 56.9325C52.0732 56.8 51.8495 56.6094 51.6838 56.3608C51.5181 56.1098 51.4352 55.8068 51.4352 55.4517C51.4352 55.1392 51.4967 54.8859 51.6199 54.6918C51.743 54.4953 51.9075 54.3414 52.1135 54.2301C52.3194 54.1188 52.5467 54.036 52.7953 53.9815C53.0462 53.9247 53.2984 53.8797 53.5517 53.8466C53.8831 53.804 54.1518 53.772 54.3578 53.7507C54.5661 53.727 54.7176 53.688 54.8123 53.6335C54.9094 53.5791 54.9579 53.4844 54.9579 53.3494V53.321C54.9579 52.9706 54.862 52.6984 54.6703 52.5043C54.4809 52.3101 54.1932 52.2131 53.8074 52.2131C53.4073 52.2131 53.0936 52.3007 52.8663 52.4759C52.639 52.651 52.4792 52.8381 52.3869 53.0369L51.5914 52.7528C51.7335 52.4214 51.9229 52.1634 52.1596 51.9787C52.3987 51.7917 52.6592 51.6615 52.9409 51.5881C53.225 51.5123 53.5043 51.4744 53.7789 51.4744C53.9541 51.4744 54.1554 51.4957 54.3826 51.5384C54.6123 51.5786 54.8336 51.6626 55.0467 51.7905C55.2621 51.9183 55.4409 52.1113 55.5829 52.3693C55.725 52.6274 55.796 52.973 55.796 53.4062V57H54.9579V56.2614H54.9153C54.8585 56.3797 54.7638 56.5064 54.6312 56.6413C54.4986 56.7763 54.3223 56.8911 54.1021 56.9858C53.8819 57.0805 53.6132 57.1278 53.296 57.1278ZM53.4238 56.375C53.7553 56.375 54.0346 56.3099 54.2619 56.1797C54.4915 56.0495 54.6644 55.8814 54.7804 55.6754C54.8987 55.4695 54.9579 55.2528 54.9579 55.0256V54.2585C54.9224 54.3011 54.8443 54.3402 54.7235 54.3757C54.6052 54.4089 54.4679 54.4384 54.3116 54.4645C54.1577 54.4882 54.0074 54.5095 53.8606 54.5284C53.7162 54.545 53.599 54.5592 53.5091 54.571C53.2913 54.5994 53.0877 54.6456 52.8983 54.7095C52.7112 54.7711 52.5597 54.8646 52.4437 54.9901C52.3301 55.1132 52.2733 55.2812 52.2733 55.4943C52.2733 55.7855 52.381 56.0057 52.5964 56.1548C52.8142 56.3016 53.09 56.375 53.4238 56.375ZM57.6701 59.0455C57.5281 59.0455 57.4014 59.0336 57.2901 59.0099C57.1789 58.9886 57.1019 58.9673 57.0593 58.946L57.2724 58.2074C57.476 58.2595 57.6559 58.2784 57.8121 58.2642C57.9684 58.25 58.1069 58.1802 58.2276 58.0547C58.3507 57.9316 58.4632 57.7315 58.565 57.4545L58.7212 57.0284L56.7042 51.5455H57.6133L59.119 55.892H59.1758L60.6815 51.5455H61.5906L59.2752 57.7955C59.171 58.0772 59.042 58.3104 58.8881 58.495C58.7343 58.6821 58.5555 58.8205 58.3519 58.9105C58.1507 59.0005 57.9234 59.0455 57.6701 59.0455Z" fill="black"/>
</svg>
