<svg width="223" height="35" viewBox="0 0 223 35" fill="none" xmlns="http://www.w3.org/2000/svg">
<g id="ProgressBar">
<rect id="Progress" x="3.5" y="3.5" width="219" height="29" rx="9.5" stroke="#D3D3D3"/>
<g id="Gear">
<path d="M1.80412 26.2051L0 21.5983L2.58591 19.5043C2.46564 18.4274 2.36942 15.9026 2.94674 14.4188L0.420962 11.8462L2.58591 7.53846L5.89347 7.83761C6.42268 7.02393 8.23883 5.7037 9.08076 5.1453V1.61538L13.6512 0L15.9966 2.81197C17.0069 2.3812 19.1838 2.63248 20.146 2.81197L22.8522 0.418803L27.122 2.33333L26.701 5.80342C28.2887 6.71282 29.3671 8.21652 29.7079 8.8547L33.1959 8.49573L35 13.1624L32.4141 15.3761C32.7027 16.6205 32.5344 19.1254 32.4141 20.2222L34.5189 23.2735L32.4141 27.4017L28.9261 26.9231C28.3007 27.9282 26.701 29.2564 25.9794 29.7949V33.3846L21.3488 35L19.1237 32.1282C18.354 32.4154 15.9164 32.2479 14.7938 32.1282L12.3282 34.7009L7.75773 32.6068L8.17869 29.0171C7.31271 28.7299 5.85338 27.0228 5.23196 26.2051H1.80412Z" fill="#2A0A0A"/>
<path d="M25 17.5C25 21.6421 21.6421 25 17.5 25C13.3579 25 10 21.6421 10 17.5C10 13.3579 13.3579 10 17.5 10C21.6421 10 25 13.3579 25 17.5Z" fill="#D9D9D9"/>
<path d="M5.63004 25.9026L5.47997 25.7051H5.23196H2.14529L0.598982 21.7566L2.90057 19.8928L3.11319 19.7207L3.08282 19.4488C3.02517 18.9326 2.97226 18.0566 3.00442 17.1315C3.03695 16.1958 3.15521 15.2619 3.41271 14.6001L3.52985 14.299L3.30352 14.0685L1.02833 11.7511L2.87983 8.06709L5.84843 8.33558L6.1484 8.36271L6.31262 8.11022C6.52785 7.77928 7.05285 7.29087 7.68266 6.78579C8.29433 6.29526 8.94635 5.83443 9.35712 5.56198L9.58076 5.41365V5.1453V1.96898L13.49 0.587301L15.6126 3.13222L15.8507 3.41771L16.1927 3.2719C16.5855 3.1044 17.2817 3.05144 18.0695 3.08273C18.8325 3.11303 19.593 3.21743 20.0544 3.30349L20.2944 3.34826L20.4773 3.18652L22.9419 1.00697L26.5813 2.63884L26.2047 5.7432L26.1647 6.07244L26.4525 6.23728C27.9365 7.08731 28.9566 8.50915 29.2668 9.09022L29.425 9.38645L29.7591 9.35207L32.8672 9.03219L34.4061 13.0127L32.0889 14.9962L31.8585 15.1935L31.927 15.489C32.0559 16.0447 32.0886 16.9268 32.0676 17.843C32.0469 18.7457 31.9758 19.6317 31.9171 20.1677L31.8968 20.3528L32.0025 20.5061L33.938 23.312L32.13 26.858L28.9941 26.4277L28.6729 26.3836L28.5016 26.6589C28.2263 27.1014 27.712 27.6471 27.1495 28.1667C26.5953 28.6787 26.0286 29.1343 25.6804 29.3941L25.4794 29.5441V29.7949V33.0295L21.5237 34.4094L19.519 31.822L19.2936 31.5311L18.9489 31.6597C18.8297 31.7042 18.5957 31.7448 18.2482 31.7672C17.9142 31.7887 17.5184 31.7912 17.1034 31.7809C16.2741 31.7604 15.398 31.6898 14.8468 31.631L14.6027 31.605L14.4328 31.7822L12.2132 34.0982L8.2967 32.3038L8.67529 29.0753L8.72274 28.6707L8.33608 28.5425C8.20408 28.4987 8.00576 28.3822 7.75139 28.1801C7.50534 27.9846 7.23846 27.7347 6.97162 27.461C6.43803 26.9137 5.93113 26.2988 5.63004 25.9026ZM24.5 17.5C24.5 21.366 21.366 24.5 17.5 24.5C13.634 24.5 10.5 21.366 10.5 17.5C10.5 13.634 13.634 10.5 17.5 10.5C21.366 10.5 24.5 13.634 24.5 17.5ZM17.5 25.5C21.9183 25.5 25.5 21.9183 25.5 17.5C25.5 13.0817 21.9183 9.5 17.5 9.5C13.0817 9.5 9.5 13.0817 9.5 17.5C9.5 21.9183 13.0817 25.5 17.5 25.5Z" stroke="black"/>
</g>
</g>
</svg>
